<?xml version="1.0" standalone="no"?>
<!DOCTYPE svg PUBLIC "-//W3C//DTD SVG 1.1//EN" "http://www.w3.org/Graphics/SVG/1.1/DTD/svg11.dtd" >
<svg xmlns="http://www.w3.org/2000/svg" xmlns:xlink="http://www.w3.org/1999/xlink" version="1.1">
<metadata>
Created by FontForge 20201107 at Wed Mar 11 13:46:00 2015
 By 
Copyright (c) Korea land &#38; Housing corporation All rights reserved.
</metadata>
<defs>
<font id="LHL" horiz-adv-x="850" >
  <font-face 
    font-family="LH L"
    font-weight="400"
    font-stretch="normal"
    units-per-em="1000"
    panose-1="2 2 5 3 2 1 1 2 1 1"
    ascent="800"
    descent="-200"
    x-height="546"
    cap-height="746"
    bbox="-86 -287 1009 912"
    underline-thickness="25"
    underline-position="-156"
    unicode-range="U+0020-FFE6"
  />
<missing-glyph horiz-adv-x="853" 
d="M100 -45v800h653v-800h-653zM150 5h553v700h-553v-700z" />
    <glyph glyph-name=".notdef" horiz-adv-x="853" 
d="M100 -45v800h653v-800h-653zM150 5h553v700h-553v-700z" />
    <glyph glyph-name="glyph1" horiz-adv-x="0" 
 />
    <glyph glyph-name="glyph2" horiz-adv-x="1000" 
 />
    <glyph glyph-name="space" unicode=" " horiz-adv-x="405" 
d="M0 -21z" />
    <glyph glyph-name="exclam" unicode="!" horiz-adv-x="326" 
d="M218 2h-110v110h110v-110zM205 232h-84l-13 581h110z" />
    <glyph glyph-name="quotedbl" unicode="&#x22;" horiz-adv-x="438" 
d="M151 691h-84l18 157h109zM328 691h-84l17 157h110z" />
    <glyph glyph-name="numbersign" unicode="#" horiz-adv-x="892" 
d="M615 224l-44 -222h-103l43 222h-192l-44 -222h-107l43 222h-144v66h155l39 203h-151v66h162l43 208h108l-43 -208h192l43 208h104l-43 -208h148v-66h-159l-39 -203h154v-66h-165zM522 290l39 203h-192l-39 -203h192z" />
    <glyph glyph-name="dollar" unicode="$" horiz-adv-x="714" 
d="M400 -75h-91v128q-88 12 -153 66.5t-89 129.5h108q11 -45 45.5 -79.5t88.5 -53.5v266q-45 8 -87 23.5t-74 38.5q-32 22 -52.5 52.5t-20.5 67.5q0 45 20.5 77.5t53.5 53.5q33 22 74.5 35t85.5 17v87h91v-89q81 -10 142 -55.5t81 -116.5h-105q-8 36 -41 61.5t-77 46.5v-249
q49 -8 93 -23t79 -36q34 -23 54 -53.5t20 -72.5q0 -46 -22 -79.5t-57 -57.5q-36 -25 -79.5 -39t-87.5 -20v-126zM540 249q0 40 -35.5 67.5t-104.5 48.5v-253q59 15 99.5 49t40.5 88zM182 574q0 -22 10.5 -40.5t29.5 -33.5q18 -15 40 -28t47 -22v237q-52 -12 -89.5 -39
t-37.5 -74z" />
    <glyph glyph-name="percent" unicode="%" horiz-adv-x="919" 
d="M614 188q0 -39 21 -67.5t52 -28.5t52 28.5t21 67.5t-21 67.5t-52 28.5t-52 -28.5t-21 -67.5zM522 188q0 32 13 61t36 51q21 21 51.5 33.5t64.5 12.5q33 0 63 -12.5t53 -33.5q21 -22 34.5 -51t13.5 -61q0 -34 -13.5 -63t-34.5 -49q-23 -22 -53 -34t-63 -12q-34 0 -64.5 12
t-51.5 34q-23 20 -36 49t-13 63zM159 556q0 -39 21 -67t52 -28t52 28t21 67q0 40 -21 68t-52 28t-52 -28t-21 -68zM67 556q0 33 13 62t36 50q21 22 51.5 34t64.5 12q33 0 63 -12t53 -34q21 -21 34.5 -50t13.5 -62t-13.5 -62t-34.5 -50q-23 -21 -53 -33.5t-63 -12.5
q-34 0 -64.5 12.5t-51.5 33.5q-23 21 -36 50t-13 62zM641 807h102l-467 -855h-102z" />
    <glyph glyph-name="ampersand" unicode="&#x26;" horiz-adv-x="831" 
d="M576 132q-49 -54 -119.5 -83t-146.5 -29q-46 0 -89 13.5t-77 40.5q-34 26 -55 63t-21 86q0 44 17.5 78.5t46.5 61.5q27 26 61.5 46t67.5 38q-44 47 -72.5 96.5t-28.5 89.5q0 39 17 70.5t45 52.5q27 22 63 33.5t74 11.5q41 0 79 -11.5t68 -34.5q28 -23 45.5 -57t17.5 -77
q0 -31 -16 -61.5t-40 -55.5q-25 -26 -54.5 -45t-55.5 -27l178 -185q7 8 16 25t17 36q7 19 11.5 38.5t4.5 34.5h92q-10 -54 -29.5 -106t-54.5 -94l126 -143l-99 -1zM325 396q-77 -23 -118 -72.5t-33 -108.5q4 -26 17.5 -47.5t33.5 -37.5t44.5 -25.5t48.5 -9.5q68 -2 118.5 26
t93.5 65zM380 741q-51 0 -84 -28t-33 -81q0 -23 9.5 -63.5t52.5 -89.5q43 9 72 27.5t48 40.5q18 22 25 44.5t7 39.5q0 46 -26 78t-71 32z" />
    <glyph glyph-name="quotesingle" unicode="'" horiz-adv-x="261" 
d="M151 691h-84l18 157h109z" />
    <glyph glyph-name="parenleft" unicode="(" horiz-adv-x="318" 
d="M209 -102q-61 106 -100 231.5t-41 250.5q-1 51 9 112.5t31 125.5q18 64 44.5 126.5t56.5 116.5h100q-29 -54 -54 -113t-44 -120q-18 -62 -29 -125t-11 -123q0 -61 8 -120t26 -117q17 -59 43 -119t62 -126h-101z" />
    <glyph glyph-name="parenright" unicode=")" horiz-adv-x="318" 
d="M6 -102q37 66 62.5 126t43.5 119q17 58 25 117t8 120q0 60 -10.5 123t-29.5 125q-19 61 -44 120t-53 113h100q29 -54 55 -116.5t46 -126.5q19 -64 29.5 -125.5t9.5 -112.5q-3 -125 -42 -250.5t-98 -231.5h-102z" />
    <glyph glyph-name="asterisk" unicode="*" horiz-adv-x="487" 
d="M67 682l26 89l129 -61l-31 138h103l-31 -138l131 61l25 -89l-147 -24l112 -100l-73 -54l-67 114l-69 -116l-74 56l113 100z" />
    <glyph glyph-name="plus" unicode="+" horiz-adv-x="642" 
d="M575 413v-66h-204v-206h-100v206h-204v66h204v205h100v-205h204z" />
    <glyph glyph-name="comma" unicode="," horiz-adv-x="305" 
d="M176 -25h-109l61 137h109z" />
    <glyph glyph-name="hyphen" unicode="-" horiz-adv-x="588" 
d="M521 417v-71h-454v71h454z" />
    <glyph glyph-name="period" unicode="." horiz-adv-x="245" 
d="M178 2h-111v110h111v-110z" />
    <glyph glyph-name="slash" unicode="/" horiz-adv-x="650" 
d="M481 834h102l-415 -909h-101z" />
    <glyph glyph-name="zero" unicode="0" horiz-adv-x="625" 
d="M469 408q0 28 -0.5 64t-4.5 72q-4 37 -13.5 72.5t-27.5 62.5q-17 27 -43.5 44t-65.5 17q-63 0 -95.5 -38t-46.5 -90q-15 -54 -16 -111t-1 -94q0 -44 2.5 -101t17.5 -109t47.5 -88t91.5 -36t91 38.5t47 92.5q13 54 15 110.5t2 93.5zM584 408q0 -76 -10 -148t-39 -129
t-82 -91t-139 -34q-92 0 -146 35.5t-82 93.5q-28 57 -37 128.5t-9 143.5q0 75 9.5 147.5t39.5 128.5q28 56 82 90t143 34t142.5 -36t81.5 -93q29 -58 37.5 -129.5t8.5 -140.5z" />
    <glyph glyph-name="one" unicode="1" horiz-adv-x="425" 
d="M182 38v656l-142 -100v77l157 107h93v-740h-108z" />
    <glyph glyph-name="two" unicode="2" horiz-adv-x="560" 
d="M519 38h-397q-51 0 -73 19t-22 57q66 64 122 124q25 25 50 51t48 50q21 24 40 44.5t30 35.5q29 37 55.5 86t22.5 99q-7 74 -47.5 100.5t-100.5 26.5q-42 0 -83.5 -15t-89.5 -46l-34 62q61 40 119 52.5t105 13.5q50 1 94 -11.5t78 -37.5q32 -25 51 -64.5t19 -90.5
q0 -44 -17 -85.5t-43 -77.5q-25 -38 -55.5 -71t-57.5 -63l-190 -192h376v-67z" />
    <glyph glyph-name="three" unicode="3" horiz-adv-x="568" 
d="M236 22q-120 4 -220 51l36 65q42 -23 83 -37t86 -14q36 0 69.5 10t57.5 30q24 19 38 49.5t13 70.5q-1 49 -16 80t-39 50q-25 17 -55 24t-63 7h-36v67h30q33 0 63 7.5t51 23.5q22 17 33.5 44.5t8.5 67.5q-5 57 -43.5 85t-95.5 28q-51 0 -92.5 -18t-78.5 -43l-35 62
q47 32 104.5 49t111.5 17q48 0 92 -9.5t78 -30.5q32 -22 52.5 -56t20.5 -82q0 -27 -11.5 -52t-29.5 -47q-19 -23 -42.5 -40.5t-47.5 -30.5q78 -31 118 -85t40 -114q0 -56 -25 -100t-65 -73t-90 -43.5t-101 -12.5z" />
    <glyph glyph-name="four" unicode="4" horiz-adv-x="625" 
d="M598 216h-125v-178h-108v178h-345v85l349 477h104v-494h125v-68zM365 284v384l-255 -384h255z" />
    <glyph glyph-name="five" unicode="5" horiz-adv-x="573" 
d="M494 710h-312v-224q21 3 41 4.5t34 1.5q53 0 103 -11t89 -37q38 -25 61 -67.5t23 -104.5q0 -40 -12.5 -77t-33.5 -68q-23 -31 -52.5 -54t-66.5 -35q-40 -15 -82.5 -17.5t-84.5 2.5q-44 6 -84.5 18t-76.5 27l32 71q38 -21 85.5 -36t89.5 -15q85 0 129.5 52.5t38.5 137.5
q-2 39 -19.5 67t-43.5 45q-27 17 -59.5 25t-63.5 8q-43 0 -81.5 -5.5t-73.5 -15.5v300q0 39 22 57.5t74 18.5h324v-68z" />
    <glyph glyph-name="six" unicode="6" horiz-adv-x="587" 
d="M560 277q0 -53 -20.5 -99.5t-53.5 -80.5q-36 -35 -81.5 -55t-95.5 -22q-69 6 -119.5 36.5t-83.5 77.5q-34 46 -50 104.5t-16 122.5q0 83 21.5 165.5t68.5 144.5q45 61 116 94t142 33q29 0 57 -4t51 -14l-24 -81q-46 19 -94 19t-90.5 -23t-73.5 -63q-12 -16 -21.5 -46.5
t-14.5 -60.5q-6 -29 -8 -51t0 -20q21 21 59.5 37.5t85.5 16.5q53 0 97.5 -17.5t78.5 -47.5q32 -31 50.5 -73.5t18.5 -92.5zM453 273q-3 77 -41.5 119.5t-114.5 42.5q-37 0 -64 -15t-44 -36q-19 -23 -27.5 -51t-8.5 -52q0 -38 10.5 -71.5t29.5 -59.5q18 -26 48 -40.5
t69 -14.5t67 15.5t45 40.5q16 26 23.5 57.5t7.5 64.5z" />
    <glyph glyph-name="seven" unicode="7" horiz-adv-x="541" 
d="M20 710v68h412q87 0 89 -74l-314 -666h-113l320 672h-394z" />
    <glyph glyph-name="eight" unicode="8" horiz-adv-x="621" 
d="M580 231q0 -53 -25 -95.5t-64 -71.5q-39 -30 -87 -45.5t-94 -15.5q-53 0 -102 17t-86 46q-37 30 -59.5 72t-22.5 93q0 34 12 63.5t33 55.5q20 25 47 46t55 39q-57 36 -90 76t-33 94q0 49 24 85t60 61q35 24 78.5 36t83.5 12q43 0 86.5 -11.5t78.5 -34.5q35 -24 56.5 -59
t21.5 -82q0 -29 -11.5 -55t-28.5 -49q-19 -23 -42 -42.5t-48 -34.5q31 -18 59.5 -39t50.5 -45q21 -24 34 -53t13 -63zM261 405q-43 -30 -77.5 -74.5t-34.5 -92.5q0 -35 13 -65.5t36 -53.5q22 -23 51.5 -36.5t61.5 -13.5q34 0 64 13t51 33q22 20 34 47t12 56q0 43 -20 74
t-52 54q-31 21 -68 35.5t-71 23.5zM446 612q0 29 -11.5 52t-29.5 40q-19 14 -44 21.5t-51 7.5q-27 0 -52 -8t-44 -23q-19 -16 -30.5 -37.5t-11.5 -48.5q0 -38 18.5 -65t45.5 -45t58.5 -29.5t58.5 -20.5q39 32 66 70t27 86z" />
    <glyph glyph-name="nine" unicode="9" horiz-adv-x="587" 
d="M27 543q0 53 20 99.5t55 81.5q34 34 79 54t97 21q68 -5 119 -35.5t84 -76.5q33 -47 49 -106.5t16 -121.5q0 -85 -23.5 -164.5t-66.5 -147.5q-43 -64 -110.5 -95.5t-140.5 -31.5q-62 0 -115 19l24 81q23 -10 46 -13.5t46 -3.5q49 0 92.5 21.5t74.5 61.5q17 25 25.5 56
t14.5 59q4 29 4.5 47.5t-0.5 17.5q-22 -22 -60.5 -38t-85.5 -16q-53 0 -97.5 17.5t-76.5 48.5q-34 30 -52 72.5t-18 92.5zM133 547q3 -77 41.5 -119.5t115.5 -42.5q36 0 63 15t46 38q18 21 26 49t8 52q0 38 -10 71.5t-29 59.5q-19 25 -49 40t-69 15t-66.5 -15.5t-43.5 -41.5
q-18 -25 -25.5 -57t-7.5 -64z" />
    <glyph glyph-name="colon" unicode=":" horiz-adv-x="272" 
d="M191 153h-110v110h110v-110zM191 532h-110v111h110v-111z" />
    <glyph glyph-name="semicolon" unicode=";" horiz-adv-x="298" 
d="M217 532h-111v111h111v-111zM189 103h-108l25 62v98h111v-90z" />
    <glyph glyph-name="less" unicode="&#x3c;" horiz-adv-x="403" 
d="M396 861l-236 -481l236 -482h-94q-59 116 -117.5 228t-117.5 228v51l235 456h94z" />
    <glyph glyph-name="equal" unicode="=" horiz-adv-x="642" 
d="M575 305v-66h-508v66h508zM575 535v-66h-508v66h508z" />
    <glyph glyph-name="greater" unicode="&#x3e;" horiz-adv-x="402" 
d="M101 861l233 -456v-51l-235 -456h-93l237 482l-237 481h95z" />
    <glyph glyph-name="question" unicode="?" horiz-adv-x="594" 
d="M526 648q0 -36 -9.5 -60.5t-24.5 -41.5q-16 -19 -35 -34t-39 -31h1q-20 -16 -38 -31t-32 -33q-15 -17 -23.5 -39.5t-8.5 -53.5v-88h-111v88q0 34 9.5 58.5t25.5 44.5q15 20 34 37t39 36q20 17 38.5 32.5t33.5 31.5q13 17 22 37t9 49q0 32 -11 53t-28 34q-19 12 -44 17
t-52 5q-50 0 -101.5 -16.5t-82.5 -36.5l-31 69q53 23 105.5 40.5t105.5 17.5q47 0 92 -10.5t80 -33.5q34 -23 55 -57.5t21 -83.5zM317 2h-111v110h111v-110z" />
    <glyph glyph-name="at" unicode="@" horiz-adv-x="997" 
d="M506 820q93 0 171.5 -29t133.5 -83q55 -56 86 -133.5t31 -174.5q0 -45 -10 -97.5t-32 -98.5q-22 -47 -57.5 -80t-86.5 -36q-47 -3 -84 15.5t-60 70.5q-34 -19 -78 -33t-79 -14q-31 0 -60.5 11.5t-51.5 31.5q-23 21 -36 48.5t-13 59.5q0 58 31 91t79 51q47 18 103 22.5
t105 7.5q-3 59 -26 83.5t-73 28.5q-31 2 -71 -9t-76 -44l-45 55q25 18 72.5 38.5t106.5 20.5q43 0 80.5 -7t67.5 -25q28 -18 45.5 -50.5t20.5 -82.5v-255q0 -14 3 -25q3 -9 9.5 -16t20.5 -7q29 2 47.5 29.5t29.5 65.5q9 38 12.5 77t3.5 63q0 75 -20.5 139.5t-59.5 113.5
q-40 47 -100.5 74.5t-138.5 27.5q-74 0 -135.5 -28t-104.5 -77t-67.5 -115t-24.5 -141q0 -77 21.5 -143.5t64.5 -114.5q44 -50 108 -78t150 -28q34 0 70 4.5t68 12.5l26 -67q-40 -9 -84.5 -15t-85.5 -6q-94 0 -174 31t-140 88q-59 56 -93.5 136.5t-37.5 180.5
q-2 85 30 163.5t92 138.5q59 60 140 96.5t176 36.5zM598 397q-23 0 -59.5 -4.5t-71.5 -17.5q-35 -12 -59.5 -34t-24.5 -57q0 -41 23 -68t69 -27q25 0 60.5 15t62.5 36v157z" />
    <glyph glyph-name="A" unicode="A" horiz-adv-x="731" 
d="M133 38h-106l265 725h146l266 -725h-106l-77 200l-312 -2zM365 694l-131 -390h262z" />
    <glyph glyph-name="B" unicode="B" horiz-adv-x="688" 
d="M661 253q0 -48 -21 -87.5t-55 -68.5q-35 -28 -77.5 -43.5t-84.5 -15.5h-260q-49 0 -69 18t-20 62v565q0 43 20 61.5t69 18.5h243q36 0 72.5 -11t66.5 -31q28 -20 46.5 -50.5t18.5 -69.5q0 -46 -27 -86t-68 -67q65 -27 105.5 -81t40.5 -114zM187 107h226q60 3 98 44t38 98
q0 28 -10 55t-28 49q-17 20 -41.5 32.5t-54.5 12.5h-151q-11 0 -32.5 1.5t-44.5 19.5v-312zM187 695v-230h207q23 0 41.5 10.5t33.5 28.5q14 16 21.5 37.5t7.5 43.5q0 50 -29 80t-81 30h-201z" />
    <glyph glyph-name="C" unicode="C" horiz-adv-x="675" 
d="M554 562q-12 28 -31 54.5t-43 46.5q-26 20 -56 32.5t-67 12.5q-60 0 -102 -30.5t-66 -76.5q-26 -46 -37.5 -100t-11.5 -100q0 -51 11.5 -106t38.5 -99q26 -46 67 -75t100 -29q33 0 64.5 13t58.5 34q27 20 46.5 47t29.5 57l92 -43q-48 -92 -122 -136t-170 -44
q-85 0 -147 34t-103 88q-40 54 -59.5 122t-19.5 137q0 74 22 142.5t65 120.5q42 53 103 84t139 31q104 0 178 -48t109 -125z" />
    <glyph glyph-name="D" unicode="D" horiz-adv-x="696" 
d="M669 412q0 -84 -25 -152.5t-71 -117.5q-47 -50 -113 -77t-149 -27h-149q-48 0 -68 18t-20 62v565q0 42 19.5 61t66.5 19h159q81 0 145.5 -28.5t110.5 -75.5q46 -49 70 -112.5t24 -134.5zM330 107q60 8 102.5 36.5t69.5 69.5q27 42 39.5 93.5t12.5 105.5q0 57 -10.5 109
t-36.5 91q-26 38 -68.5 60.5t-105.5 22.5h-146v-588h143z" />
    <glyph glyph-name="E" unicode="E" horiz-adv-x="665" 
d="M267 377q-15 0 -37.5 4t-45.5 31v-304h434v-70h-456q-48 0 -68 18t-20 62v565q0 43 20 61.5t68 18.5h442v-70h-420v-247h405v-69h-322z" />
    <glyph glyph-name="F" unicode="F" horiz-adv-x="618" 
d="M271 377q-15 0 -38 3.5t-46 26.5v-369h-113v645q0 43 21 61.5t68 18.5h441v-70h-417v-247h402v-69h-318z" />
    <glyph glyph-name="G" unicode="G" horiz-adv-x="787" 
d="M589 563q-12 30 -32 56t-47 47q-27 19 -61 30.5t-71 11.5q-61 0 -102.5 -30.5t-66.5 -76.5q-26 -46 -37.5 -99.5t-11.5 -99.5q0 -51 12 -106.5t38 -99.5q26 -46 67 -75t101 -29q44 0 84 17t69 44q30 27 47 61.5t17 69.5v42h-161v70h263v-358h-102l-1 76q-40 -48 -102 -71
t-117 -23q-85 0 -147 34t-103 89q-40 54 -59 122.5t-19 136.5q0 75 22 143t66 121q41 51 102 82t139 31q103 0 184.5 -44.5t118.5 -125.5z" />
    <glyph glyph-name="H" unicode="H" horiz-adv-x="738" 
d="M552 38v339h-288q-11 0 -32.5 2.5t-45.5 18.5v-360h-112v725h112v-317h366v317h112v-725h-112z" />
    <glyph glyph-name="I" unicode="I" horiz-adv-x="322" 
d="M108 38v725h106v-725h-106z" />
    <glyph glyph-name="J" unicode="J" horiz-adv-x="344" 
d="M163 763h107v-558q0 -52 -14.5 -86t-39.5 -53q-27 -20 -63 -27.5t-81 -7.5h-52v69h48q41 3 68 21t27 65v577z" />
    <glyph glyph-name="K" unicode="K" horiz-adv-x="697" 
d="M74 38v725h110v-371l342 371h117l-291 -312l332 -413h-127l-275 344l-98 -105v-239h-110z" />
    <glyph glyph-name="L" unicode="L" horiz-adv-x="638" 
d="M162 38q-46 0 -67 18t-21 62v645h113v-656h431v-69h-456z" />
    <glyph glyph-name="M" unicode="M" horiz-adv-x="835" 
d="M661 38v553l-205 -398h-77l-205 398v-553h-100v725h101l242 -474l243 474h101v-725h-100z" />
    <glyph glyph-name="N" unicode="N" horiz-adv-x="742" 
d="M571 38l-395 574v-574h-102v725h98l393 -582v582h103v-725h-97z" />
    <glyph glyph-name="O" unicode="O" horiz-adv-x="746" 
d="M27 400q0 79 24.5 148.5t70.5 121.5q45 51 109 80t142 29q86 0 150.5 -32.5t107.5 -86.5q44 -54 66 -122t22 -138q0 -81 -25 -150.5t-69 -119.5q-46 -52 -110.5 -81t-141.5 -29q-82 0 -146.5 32.5t-109.5 86.5t-67.5 121.5t-22.5 139.5zM140 400q0 -56 14 -110.5
t44 -97.5q28 -45 72 -72.5t103 -27.5q63 0 106.5 29t72.5 74q27 44 39.5 98.5t12.5 106.5q0 54 -14 109t-42 100q-29 45 -72 72.5t-103 27.5q-62 0 -105.5 -29t-72.5 -75q-28 -46 -41.5 -100.5t-13.5 -104.5z" />
    <glyph glyph-name="P" unicode="P" horiz-adv-x="664" 
d="M365 763q53 0 101.5 -13.5t86.5 -41.5q38 -29 61 -72t23 -101q0 -56 -21.5 -98.5t-59.5 -70.5q-38 -30 -88 -44.5t-108 -14.5h-96q-11 0 -34 6t-43 21v-296h-113v645q0 43 20 61.5t68 18.5h203zM359 375q77 0 122.5 41.5t45.5 118.5q0 73 -43.5 115.5t-124.5 42.5h-172
v-318h172z" />
    <glyph glyph-name="Q" unicode="Q" horiz-adv-x="766" 
d="M27 398q0 80 24.5 149.5t70.5 120.5q45 52 109 81.5t142 29.5q86 0 150.5 -33t107.5 -86q44 -54 66 -122.5t22 -139.5q0 -72 -22 -137t-63 -119l77 -68l-47 -50l-79 68q-45 -35 -98 -53.5t-114 -18.5q-82 0 -146.5 32.5t-109.5 86.5q-45 53 -67.5 120.5t-22.5 138.5z
M140 398q0 -55 14 -109.5t44 -97.5q28 -44 72 -71.5t103 -27.5q44 0 79.5 16t64.5 43l-111 100l48 53l106 -95q23 48 33.5 97t10.5 92q0 54 -14 109.5t-42 100.5q-29 44 -72 72.5t-103 28.5q-62 0 -105.5 -29.5t-72.5 -74.5q-28 -46 -41.5 -101.5t-13.5 -105.5z" />
    <glyph glyph-name="R" unicode="R" horiz-adv-x="692" 
d="M365 763q53 0 102.5 -13t86.5 -38q38 -27 61 -67.5t23 -96.5q0 -60 -29 -103.5t-78 -73.5l134 -333h-100l-120 302q-24 -4 -45 -5t-40 -1h-96q-11 0 -32.5 4.5t-44.5 22.5v-323h-113v645q0 43 20 61.5t69 18.5h202zM359 402q77 0 123.5 37.5t46.5 108.5q0 68 -44.5 106.5
t-125.5 38.5h-172v-291h172z" />
    <glyph glyph-name="S" unicode="S" horiz-adv-x="634" 
d="M324 89q33 2 63 12t53 29q21 19 34.5 46t13.5 63q0 57 -48.5 88.5t-153.5 50.5q-46 7 -91.5 22.5t-80.5 39.5q-36 25 -58.5 59t-22.5 79q0 57 26 95.5t66 62.5q39 23 87.5 33t96.5 10t92.5 -13.5t81.5 -39.5q36 -25 62.5 -60t38.5 -80h-121q-10 57 -54.5 90.5t-99.5 33.5
q-30 0 -58.5 -6.5t-49.5 -21.5q-22 -15 -35.5 -38t-13.5 -55q0 -31 17 -56t42 -43q25 -19 54 -31t53 -17q53 -10 105 -23.5t94 -36.5q40 -24 65 -58.5t25 -85.5q0 -60 -28.5 -101t-70.5 -67q-43 -25 -94 -37.5t-97 -12.5q-111 0 -189.5 58.5t-100.5 161.5h120
q16 -63 59 -107t118 -44z" />
    <glyph glyph-name="T" unicode="T" horiz-adv-x="629" 
d="M257 38v656h-244v69h602v-69h-244v-656h-114z" />
    <glyph glyph-name="U" unicode="U" horiz-adv-x="742" 
d="M558 763h110v-450q0 -136 -76.5 -214.5t-222.5 -78.5q-143 0 -218.5 77t-76.5 211v455h109v-450q1 -46 10.5 -86.5t31.5 -69.5q22 -31 57 -48.5t87 -17.5q53 0 88 16t58 46q22 29 32 70.5t11 89.5v450z" />
    <glyph glyph-name="V" unicode="V" horiz-adv-x="689" 
d="M556 763h106l-262 -725h-112l-261 725h106l211 -626z" />
    <glyph glyph-name="W" unicode="W" horiz-adv-x="908" 
d="M777 763h104l-184 -725h-101l-142 570l-141 -570h-102l-184 725h105l132 -571l139 571h103l139 -571z" />
    <glyph glyph-name="X" unicode="X" horiz-adv-x="714" 
d="M152 38h-119l264 374l-253 351h119l194 -273l195 273h117l-256 -350l267 -375h-118l-205 294z" />
    <glyph glyph-name="Y" unicode="Y" horiz-adv-x="681" 
d="M396 366v-328h-110v328l-273 397h116l212 -320l212 320h115z" />
    <glyph glyph-name="Z" unicode="Z" horiz-adv-x="720" 
d="M631 107v-69h-557v72l453 584h-425v69h544v-72l-451 -584h436z" />
    <glyph glyph-name="bracketleft" unicode="[" horiz-adv-x="336" 
d="M329 798h-157v-837h157v-63h-262v963h262v-63z" />
    <glyph glyph-name="backslash" unicode="\" horiz-adv-x="1077" 
d="M831 722h93l-63 -275h148v-66h-162l-67 -303h-99l-82 303h-123l-81 -303h-98l-68 303h-162v66h147l-62 275h93l54 -275h118l74 275h94l73 -275h118zM346 192l53 189h-88zM730 191l35 190h-89zM495 447h86l-43 154z" />
    <glyph glyph-name="bracketright" unicode="]" horiz-adv-x="336" 
d="M6 861h262v-963h-262v63h157v837h-157v63z" />
    <glyph glyph-name="asciicircum" unicode="^" horiz-adv-x="521" 
d="M453 691h-101l-92 103q-22 -24 -46.5 -51t-46.5 -52h-100l147 157h93z" />
    <glyph glyph-name="underscore" unicode="_" horiz-adv-x="588" 
d="M521 -69v-67h-454v67h454z" />
    <glyph glyph-name="grave" unicode="`" horiz-adv-x="261" 
d="M67 848h109l18 -157h-84z" />
    <glyph glyph-name="a" unicode="a" horiz-adv-x="652" 
d="M577 38h-101v59q-39 -36 -84.5 -56.5t-93.5 -20.5q-57 0 -104 21t-81 58q-35 36 -54 84.5t-19 104.5t19 105.5t54 87.5q34 38 81 59.5t104 21.5q48 0 99 -21.5t79 -61.5v67h101v-508zM472 288q0 42 -13 80.5t-34 67.5q-22 29 -51.5 45.5t-62.5 16.5q-32 0 -61.5 -16.5
t-51.5 -45.5q-23 -29 -36.5 -67.5t-13.5 -80.5q0 -43 13.5 -80.5t36.5 -64.5q22 -28 51.5 -44t61.5 -16q33 0 62.5 16t51.5 44q21 27 34 64.5t13 80.5z" />
    <glyph glyph-name="b" unicode="b" horiz-adv-x="652" 
d="M175 38h-101v725h101v-278q31 35 81.5 56t96.5 21q57 0 104 -21.5t83 -58.5q33 -38 52 -87t19 -105q0 -55 -19 -104t-52 -86q-36 -36 -83 -58t-104 -22q-46 0 -91 21t-87 56v-59zM179 290q0 -43 13 -80.5t34 -66.5q22 -28 51.5 -45t62.5 -17q32 0 62 17t52 45
q22 29 35.5 66.5t13.5 80.5q0 42 -13.5 80t-35.5 66q-22 29 -52 45.5t-62 16.5q-33 0 -62.5 -16.5t-51.5 -45.5q-21 -28 -34 -66t-13 -80z" />
    <glyph glyph-name="c" unicode="c" horiz-adv-x="584" 
d="M544 124q-30 -39 -87 -71.5t-139 -32.5q-65 0 -117 22t-87 59q-36 37 -55 86t-19 105q0 59 21 108.5t59 85.5q36 35 86.5 55.5t111.5 20.5q69 0 128.5 -28t95.5 -75l-82 -40q-23 37 -57 56t-85 19q-48 0 -80 -17.5t-49 -45.5q-19 -30 -26.5 -67t-7.5 -75q0 -39 8 -75.5
t28 -63.5q19 -28 50 -44.5t77 -16.5q33 0 57 8t42 21q16 10 26.5 23t17.5 24z" />
    <glyph glyph-name="d" unicode="d" horiz-adv-x="650" 
d="M475 763h100v-725h-100v62q-43 -36 -89 -58t-89 -22q-56 0 -103 22t-81 58q-35 37 -54 86t-19 104q0 56 19 105t54 87q34 37 80.5 58.5t101.5 21.5q22 0 46 -5.5t49 -16.5q24 -11 45.5 -25.5t37.5 -32.5zM472 290q0 42 -13 80t-34 66q-23 29 -52 45.5t-63 16.5
t-63.5 -16.5t-51.5 -45.5q-23 -28 -36.5 -66t-13.5 -80q0 -43 13.5 -80.5t36.5 -66.5q22 -28 51.5 -45t63.5 -17t63 17t52 45q21 29 34 66.5t13 80.5z" />
    <glyph glyph-name="e" unicode="e" horiz-adv-x="604" 
d="M310 83q55 0 93.5 16t53.5 63h104q-21 -61 -88.5 -101.5t-163.5 -40.5q-62 0 -111.5 22t-84.5 58q-35 37 -54 86t-19 104q0 60 20.5 110t56.5 86q35 35 85 55.5t109 20.5q62 0 111.5 -26t81.5 -67q33 -44 48 -97t9 -107h-406q4 -34 16 -67t32 -59q19 -25 45.5 -40.5
t61.5 -15.5zM453 324q-4 29 -14 59t-28 57q-19 26 -46 43t-64 17t-63.5 -16.5t-42.5 -41.5q-17 -26 -26.5 -57t-13.5 -61h298z" />
    <glyph glyph-name="f" unicode="f" horiz-adv-x="426" 
d="M394 466h-153v-428h-102v428h-119v61h119v67q1 35 6.5 61.5t28.5 53.5q15 20 38.5 31t52.5 16q29 6 59.5 6.5t58.5 0.5v-61q-28 0 -54.5 -2t-45.5 -10t-30.5 -25t-11.5 -47v-91h153v-61z" />
    <glyph glyph-name="g" unicode="g" horiz-adv-x="637" 
d="M577 77q0 -70 -17.5 -114.5t-52.5 -71.5q-36 -26 -92 -36t-135 -10q-24 0 -52.5 4t-52.5 9q-26 7 -46.5 15t-30.5 18v57q18 -10 43.5 -18t52.5 -14q27 -5 53.5 -8.5t44.5 -3.5q53 0 88 9.5t57 27.5q20 17 29 43t9 58v108q-45 -42 -94 -65t-90 -23q-57 0 -102.5 19.5
t-78.5 53.5q-34 33 -52 77.5t-18 94.5t19 95.5t54 82.5q34 35 81 56t103 21q20 0 43.5 -6t47.5 -17q25 -12 48 -28.5t39 -36.5v73h102v-470zM475 307q0 37 -13.5 72.5t-35.5 62.5q-23 25 -53.5 40.5t-62.5 15.5q-34 0 -63.5 -16t-51.5 -42q-23 -27 -36.5 -62t-13.5 -71
q0 -37 13.5 -69.5t36.5 -56.5q22 -26 51.5 -40.5t63.5 -14.5t63.5 14.5t52.5 40.5q22 24 35.5 56.5t13.5 69.5z" />
    <glyph glyph-name="h" unicode="h" horiz-adv-x="630" 
d="M176 38h-102v725h102l-2 -270q42 35 79.5 50t75.5 15q44 0 84.5 -13t73.5 -39q31 -25 49 -61.5t18 -82.5v-324h-102v316q0 15 -5 39t-18 49q-14 23 -39 39.5t-65 16.5q-33 0 -60 -13.5t-45 -34.5q-21 -22 -31.5 -50.5t-12.5 -57.5v-304z" />
    <glyph glyph-name="i" unicode="i" horiz-adv-x="270" 
d="M184 51h-99v488h99v-488zM171 763q7 0 12.5 -3.5t5.5 -11.5v-97h-91q-7 0 -12 3.5t-5 11.5v82q0 8 5 11.5t12 3.5h73z" />
    <glyph glyph-name="j" unicode="j" horiz-adv-x="330" 
d="M257 539v-519q0 -35 -6.5 -68t-25.5 -60q-12 -16 -29.5 -25.5t-39.5 -14.5q-21 -6 -44 -7t-45 -1h-47v60h29q48 3 80.5 25.5t32.5 70.5v539h95zM245 763q7 0 12.5 -3.5t5.5 -11.5v-96h-91q-6 0 -11.5 3.5t-5.5 11.5v81q0 8 5.5 11.5t11.5 3.5h73z" />
    <glyph glyph-name="k" unicode="k" horiz-adv-x="585" 
d="M176 38h-102v725h102v-428l241 232h117l-231 -206l270 -323h-109l-224 266l-64 -73v-193z" />
    <glyph glyph-name="l" unicode="l" horiz-adv-x="263" 
d="M81 763h102v-581q0 -27 15.5 -50.5t38.5 -34.5v-64q-31 2 -60 10t-51 26q-21 18 -33 47t-12 73v574z" />
    <glyph glyph-name="m" unicode="m" horiz-adv-x="842" 
d="M176 479q25 41 62.5 62t63.5 21q39 0 73.5 -19t62.5 -53q68 72 147 72q64 0 100.5 -22.5t55.5 -53.5q17 -32 22 -66t5 -57v-325h-103v320q0 67 -24.5 104.5t-60.5 37.5q-31 0 -51.5 -17t-30.5 -40q-12 -24 -16.5 -50.5t-4.5 -46.5v-308h-102v323q0 19 -4 43t-14 46
q-11 20 -28.5 35t-45.5 15q-18 0 -36.5 -9.5t-33.5 -28.5q-16 -20 -26.5 -49t-10.5 -69v-306h-102v508h102v-67z" />
    <glyph glyph-name="n" unicode="n" horiz-adv-x="630" 
d="M557 38h-103v309q0 18 -4 44t-16 51q-12 24 -35.5 41t-62.5 17q-34 0 -63 -20.5t-51 -47.5q-21 -27 -33.5 -55.5t-12.5 -44.5v-294h-102v508h102l-1 -79q39 52 88.5 73.5t88.5 21.5q67 0 107.5 -23t62.5 -54q20 -33 27.5 -67t7.5 -59v-321z" />
    <glyph glyph-name="o" unicode="o" horiz-adv-x="615" 
d="M575 289q0 -58 -20.5 -107.5t-56.5 -84.5q-37 -36 -85.5 -56.5t-105.5 -20.5q-59 0 -108.5 21t-84.5 59q-35 37 -54.5 86t-19.5 106q0 54 19 102.5t54 86.5q35 36 84.5 58.5t108.5 22.5q55 0 104 -19.5t85 -56.5q36 -36 58 -86t22 -111zM465 290q0 33 -8 69.5t-27 68.5
q-19 31 -48.5 51.5t-72.5 20.5q-42 0 -72.5 -19t-49.5 -49q-19 -31 -28.5 -68t-9.5 -74q0 -32 8.5 -68.5t26.5 -66.5q19 -31 49.5 -51t73.5 -20q41 0 71.5 19t48.5 48q19 30 28.5 67t9.5 72z" />
    <glyph glyph-name="p" unicode="p" horiz-adv-x="652" 
d="M175 -143h-101v689h101v-65q16 17 37 32.5t45 26.5q23 11 48 17t48 6q57 0 104 -21.5t83 -58.5q33 -36 52 -85.5t19 -104.5q0 -57 -19 -106t-52 -86q-36 -36 -83 -57.5t-104 -21.5q-56 0 -101.5 23t-76.5 59v-247zM179 293q0 -43 13 -81t34 -66q22 -28 51.5 -44.5
t62.5 -16.5q32 0 62 16.5t52 44.5t35.5 66t13.5 81q0 42 -13.5 80t-35.5 66t-52 45t-62 17q-33 0 -62.5 -17t-51.5 -45q-21 -28 -34 -66t-13 -80z" />
    <glyph glyph-name="q" unicode="q" horiz-adv-x="652" 
d="M476 104q-31 -36 -76 -59t-102 -23t-104 21.5t-81 57.5q-35 37 -54 86t-19 106q0 55 19 104.5t54 85.5q34 37 81 58.5t104 21.5q23 0 48 -6t49 -17q23 -11 44 -26.5t37 -32.5v65h101v-689h-101v247zM472 293q0 42 -13 80t-34 66q-22 28 -51.5 45t-62.5 17
q-32 0 -61.5 -17t-51.5 -45q-23 -28 -36.5 -66t-13.5 -80q0 -43 13.5 -81t36.5 -66q22 -28 51.5 -44.5t61.5 -16.5q33 0 62.5 16.5t51.5 44.5q21 28 34 66t13 81z" />
    <glyph glyph-name="r" unicode="r" horiz-adv-x="413" 
d="M176 38h-102v508h102v-84q6 21 23 37.5t38 27.5q20 9 42.5 14t38.5 5h82v-65h-63q-36 -2 -65 -14t-51 -31q-22 -20 -33.5 -43t-11.5 -46v-309z" />
    <glyph glyph-name="s" unicode="s" horiz-adv-x="573" 
d="M141 176q3 -10 10.5 -24.5t23.5 -28.5q16 -15 42.5 -25.5t65.5 -10.5q22 0 46 5t44 18q19 10 32 28.5t13 42.5q0 35 -33 56t-99 32q-50 8 -93.5 21.5t-74.5 32.5q-31 17 -49 41t-18 52q0 43 23.5 71.5t58.5 45.5q34 17 74.5 23.5t74.5 6.5q37 0 77 -8.5t75 -27.5
q34 -19 59 -47.5t33 -67.5h-101q-30 93 -143 93q-21 0 -41.5 -6t-37.5 -17q-16 -12 -26.5 -29.5t-10.5 -40.5q0 -30 33.5 -51.5t90.5 -30.5q38 -7 80.5 -17t78.5 -27q37 -16 60.5 -40t23.5 -60q0 -47 -25 -78t-63 -50q-38 -20 -81 -28t-81 -8q-36 0 -75.5 9.5t-72.5 28.5
q-36 18 -61.5 47.5t-33.5 68.5h101z" />
    <glyph glyph-name="t" unicode="t" horiz-adv-x="449" 
d="M379 528v-61h-128v-290q0 -26 10 -42t27 -24q17 -10 39 -14t46 -5h30v-59h-39q-39 0 -78 4t-69 20q-31 16 -50 49t-19 91v270h-128v61h128v235h103v-235h128z" />
    <glyph glyph-name="u" unicode="u" horiz-adv-x="611" 
d="M74 546h102v-324q0 -69 24.5 -103.5t81.5 -34.5q54 0 97 33t57 84v345h102v-508h-102v50q-42 -34 -86.5 -51t-77.5 -17q-47 0 -84 15t-63 41q-26 25 -38.5 60.5t-12.5 74.5v335z" />
    <glyph glyph-name="v" unicode="v" horiz-adv-x="575" 
d="M27 546h101l159 -427l159 427h102l-207 -508h-108z" />
    <glyph glyph-name="w" unicode="w" horiz-adv-x="741" 
d="M27 546h99l100 -408l91 379h105l91 -378l101 407h100l-142 -508h-103l-100 360l-99 -360h-102z" />
    <glyph glyph-name="x" unicode="x" horiz-adv-x="584" 
d="M291 367l134 179h112l-189 -241l202 -267h-113l-146 198l-146 -198h-112l203 266l-192 242h113z" />
    <glyph glyph-name="y" unicode="y" horiz-adv-x="577" 
d="M550 547q-8 -20 -25.5 -63.5t-40.5 -98.5q-23 -57 -50 -121t-55 -126t-56 -118t-51 -95q-19 -26 -44 -41.5t-52 -25.5q-28 -8 -56.5 -11t-52.5 -3h-47v60h34q41 0 69 7t47 20q19 15 32.5 36t27.5 51l25 50l-206 479h107l147 -374l141 374h106z" />
    <glyph glyph-name="z" unicode="z" horiz-adv-x="594" 
d="M518 479l-329 -380h330v-61h-445v66l331 381h-322v61h435v-67z" />
    <glyph glyph-name="braceleft" unicode="{" horiz-adv-x="484" 
d="M477 -102h-59q-97 0 -154 56.5t-53 160.5q2 42 -4 81.5t-23 72.5q-16 32 -44 53t-73 24v69q50 1 79 23.5t45 54.5q15 32 18.5 68.5t1.5 63.5q-2 64 12.5 108.5t43.5 72.5q28 28 67 41.5t84 13.5h59v-63q-47 -1 -79.5 -10.5t-52.5 -32.5t-28 -61t-7 -96q0 -32 -6.5 -68.5
t-21.5 -67.5q-17 -33 -44 -55t-67 -26q69 -18 104 -75t35 -144q0 -51 4 -88t22 -62q16 -25 49.5 -37.5t91.5 -13.5v-63z" />
    <glyph glyph-name="bar" unicode="|" horiz-adv-x="245" 
d="M178 -102h-111v963h111v-963z" />
    <glyph glyph-name="braceright" unicode="}" horiz-adv-x="484" 
d="M6 -39q58 1 92 13.5t51 37.5t21 62t4 88q0 87 35 144t104 75q-41 4 -68 26t-42 55q-16 31 -22.5 67.5t-6.5 68.5q1 58 -7 96t-28 61q-21 23 -53 32.5t-80 10.5v63h60q44 0 83.5 -13.5t67.5 -41.5t43 -72.5t12 -108.5q-1 -27 2.5 -63.5t19.5 -68.5q15 -32 44 -54.5
t79 -23.5v-69q-45 -3 -73.5 -24t-44.5 -53q-16 -33 -22 -72.5t-5 -81.5q4 -104 -52.5 -160.5t-153.5 -56.5h-60v63z" />
    <glyph glyph-name="asciitilde" unicode="~" horiz-adv-x="787" 
d="M67 389q30 38 59.5 61t56.5 35t52 16t45 4q39 0 67 -15t52 -32q23 -18 46 -33.5t53 -16.5q43 -1 80 23t64 58l77 -54q-43 -50 -93.5 -82.5t-117.5 -29.5q-31 1 -56.5 16t-49.5 32q-26 18 -51.5 32t-58.5 14q-37 0 -73 -15.5t-71 -63.5z" />
    <glyph glyph-name="exclamdown" unicode="&#xa1;" horiz-adv-x="950" 
d="M458 585h34l10 -273v-392h-59v392zM512 719h-82v86h82v-86z" />
    <glyph glyph-name="currency" unicode="&#xa4;" horiz-adv-x="950" 
d="M471 665q-55 0 -102 -21t-86 -63q-40 -42 -59.5 -92.5t-19.5 -108.5q0 -59 19.5 -109.5t59.5 -92.5q39 -42 86.5 -62.5t101.5 -20.5q55 0 104 20.5t91 62.5q39 42 59.5 92.5t20.5 109.5q0 58 -20.5 108.5t-59.5 92.5q-42 42 -90.5 63t-104.5 21v0zM152 11l-31 31l114 120
q-18 22 -32.5 47t-23.5 53q-11 27 -16 56.5t-5 61.5q0 31 5 60.5t17 58.5q10 27 24 52t32 46q-15 15 -29.5 31t-27.5 32q-8 7 -15.5 14.5t-14.5 15.5t-14 15.5t-14 15.5l31 32l112 -122q21 19 45.5 34t51.5 27q27 10 54 15.5t56 5.5q31 0 59.5 -5.5t54.5 -15.5
q24 -12 47.5 -27t44.5 -33q15 15 29.5 30t29.5 30q13 15 27.5 30t29.5 31l35 -32l-119 -124q20 -21 35.5 -46t26.5 -52q9 -29 14.5 -58.5t5.5 -60.5q0 -32 -5.5 -61.5t-14.5 -56.5q-11 -28 -26.5 -53t-34.5 -47l118 -120l-35 -31l-114 118q-21 -20 -44.5 -35t-48.5 -25
q-26 -12 -55 -17t-60 -5q-29 0 -56.5 5.5t-54.5 17.5q-28 10 -52.5 25t-45.5 35z" />
    <glyph glyph-name="section" unicode="&#xa7;" horiz-adv-x="950" 
d="M237 778q30 0 54 -12t42 -36q16 -24 17 -41t-14 -26q-11 -8 -20 -5.5t-17 16.5q-6 15 -8.5 27t-2.5 23q0 15 -14 23.5t-44 10.5q-32 0 -47.5 -21t-15.5 -63q0 -48 27 -93.5t82 -87.5q51 -44 75.5 -91.5t21.5 -98.5q-3 -24 -13 -38t-27 -19q-2 -2 -3.5 -3t-4.5 -1
q-3 -2 -5 -2h-2q-3 -1 -6 -1.5t-5 -1.5t-3.5 -1.5t-2.5 -0.5l-6 -3q-2 0 7.5 -18t30.5 -54q8 -15 12.5 -31.5t4.5 -34.5q0 -11 -1.5 -21.5t-3.5 -20.5q-2 -6 -3.5 -11.5t-3.5 -11.5t-3.5 -11.5t-2.5 -10.5q-8 -14 -17 -25t-20 -19q-12 -8 -26 -11t-29 -3q-17 0 -31 4t-26 10
q-14 6 -26 14.5t-24 18.5q-12 18 -14 34t4 30q3 12 12 14.5t24 -3.5h-1q11 -9 15.5 -19.5t3.5 -22.5q-3 -14 -2.5 -22t3.5 -11q6 -5 15.5 -9.5t24.5 -8.5q18 -5 35 2t33 25q6 12 10 26t4 31q0 8 -1.5 18.5t-4.5 24.5t-8 27.5t-14 27.5q-5 6 -10 11.5t-9 11.5q-5 5 -9 10.5
t-8 10.5q-14 12 -27.5 25.5t-25.5 28.5q-14 15 -26.5 29.5t-24.5 29.5q-5 9 -8.5 18.5t-6.5 20.5q-5 9 -6.5 19t-1.5 20q0 11 2 23t7 24q5 18 16.5 28.5t29.5 13.5q6 1 11.5 2.5t11.5 3.5q4 1 6.5 2t3.5 1v0v1q-1 1 -1.5 2.5t-0.5 3.5q-2 1 -3.5 3t-3.5 4l-4.5 4.5t-4.5 5.5
l-2 2t-2 3q-1 1 -2 2.5t-1 3.5q-3 2 -4 4.5t-1 5.5q-18 21 -27 46t-10 55q-3 34 3.5 60t23.5 43q15 16 35.5 25t44.5 11zM208 464q-30 6 -45 -3.5t-15 -35.5q0 -27 6 -49.5t19 -39.5q18 -24 34.5 -40.5t33.5 -25.5q15 -10 28 -14.5t23 -2.5q25 3 35 17t6 38
q-4 22 -11.5 39.5t-19.5 31.5h1q-9 16 -20.5 30.5t-24.5 26.5q-15 12 -27.5 18.5t-22.5 9.5z" />
    <glyph glyph-name="dieresis" unicode="&#xa8;" horiz-adv-x="950" 
d="M658 839h104v-114h-104v114zM179 839h112v-114h-112v114z" />
    <glyph glyph-name="ordfeminine" unicode="&#xaa;" horiz-adv-x="950" 
d="M188 38h590v-62h-590v62zM691 261q0 -15 1.5 -28t4.5 -23q3 -12 5 -19.5t5 -11.5q-7 0 -12.5 -0.5t-11.5 -0.5h-9.5h-8.5q-9 -1 -19.5 -1h-20.5q-5 8 -7.5 18t-3.5 22q-3 10 -3.5 20.5t-0.5 21.5q-9 -9 -18 -17t-18 -15q-10 -9 -20 -16.5t-19 -13.5q-15 -8 -28.5 -14
t-25.5 -10q-14 -6 -29 -8.5t-32 -2.5q-36 -2 -68 5.5t-59 24.5q-26 15 -40.5 39.5t-18.5 57.5q-3 18 -2 35t6 32q3 14 8 27t11 25q9 10 19 19.5t22 18.5q10 7 21.5 13t23.5 11q15 4 29.5 7.5t28.5 5.5q13 1 27.5 2.5t29.5 3.5q3 0 7 0.5t9 0.5q4 1 8.5 1.5t10.5 1.5
q9 0 18.5 1t19.5 2q10 3 23 7.5t28 12.5q13 7 20.5 19.5t7.5 30.5q0 16 -9 32.5t-25 34.5q-18 15 -45 23t-63 8q-18 0 -33.5 -2t-27.5 -5q-14 -4 -23 -9.5t-15 -11.5q-11 -8 -18 -16t-10 -17q-5 -9 -6.5 -19t-0.5 -20h-84q0 41 16 72.5t49 54.5q31 22 69.5 34t83.5 12
q42 0 80.5 -12t74.5 -34q33 -23 50.5 -53t17.5 -69v-308zM610 470q-6 -5 -12.5 -9.5t-13.5 -8.5q-9 -5 -18 -8.5t-18 -4.5q-17 -5 -36.5 -8t-41.5 -4q-11 -2 -20 -3t-18 -1q-9 -2 -16.5 -4.5t-12.5 -5.5q-22 -6 -38 -15.5t-26 -22.5q-12 -15 -16 -32t-1 -38q1 -11 4 -20
t8 -15q3 -8 10 -14t18 -10q6 -5 14 -7.5t19 -3.5q9 -3 18 -3.5t18 1.5q42 3 75 16.5t58 37.5q22 23 34 44t12 41v98z" />
    <glyph glyph-name="uni00AD" unicode="&#xad;" horiz-adv-x="950" 
d="M724 399v-74h-507v74h507z" />
    <glyph glyph-name="registered" unicode="&#xae;" horiz-adv-x="950" 
d="M471 818q90 0 167.5 -34t142.5 -100q63 -67 95 -147.5t32 -174.5q0 -95 -32 -176t-95 -148q-65 -66 -142.5 -98.5t-167.5 -32.5t-166 32.5t-138 98.5q-63 66 -94 147t-31 177q0 94 31 175t94 147q62 66 138 100t166 34v0zM471 783q-83 0 -152 -31.5t-124 -92.5
q-59 -62 -87.5 -136t-28.5 -161q0 -88 28.5 -162.5t87.5 -135.5q56 -61 125 -91.5t151 -30.5q81 0 151 30.5t129 91.5q60 61 90 135.5t30 162.5q0 87 -30 161t-90 136q-59 61 -129 92.5t-151 31.5v0zM620 95l-149 227h-116v-226h-65v542h211q37 0 68 -10.5t55 -31.5
q25 -22 38.5 -50.5t13.5 -62.5q0 -15 -3 -28t-7 -25q-6 -12 -12.5 -23t-13.5 -20q-10 -11 -20.5 -19.5t-20.5 -15.5q-12 -8 -24.5 -14t-25.5 -9q17 -30 35.5 -59t38.5 -57q9 -15 18.5 -30t19.5 -30t19.5 -29.5t19.5 -28.5h-80zM499 387q19 0 37 6t36 18q17 12 26 30t9 42
t-8 41t-23 28q-17 10 -34.5 16t-35.5 6h-151v-187h144z" />
    <glyph glyph-name="degree" unicode="&#xb0;" horiz-adv-x="950" 
d="M129 839q21 0 41 -9t38 -25q18 -17 27 -38t9 -45q0 -25 -9 -46t-27 -37q-18 -18 -38 -26t-41 -8q-23 0 -43 8t-36 26q-15 17 -21.5 38t-6.5 45t6.5 44.5t21.5 38.5q16 16 36 25t43 9v0zM129 802q-17 0 -30.5 -6t-23.5 -17q-12 -12 -17 -26.5t-5 -30.5q0 -18 5 -32t17 -25
q10 -12 23.5 -17.5t30.5 -5.5q18 0 32 5.5t26 17.5q10 11 15.5 25t5.5 32q0 16 -5.5 30.5t-15.5 26.5q-12 11 -26 17t-32 6v0z" />
    <glyph glyph-name="plusminus" unicode="&#xb1;" horiz-adv-x="950" 
d="M792 412h-281v-232h-80v232h-276v73h276v229h80v-229h281v-73zM792 17h-637v71h637v-71z" />
    <glyph glyph-name="uni00B2" unicode="&#xb2;" horiz-adv-x="950" 
d="M216 616q-5 -5 -9 -10.5t-7 -11.5q-5 -8 -8 -13.5t-4 -8.5h140v-35h-197q0 13 4 27t12 29q6 13 19 27.5t31 29.5l50 36q3 5 8.5 10.5t12.5 11.5q6 5 9.5 12.5t4.5 16.5q0 9 -3 17.5t-9 16.5q-8 6 -16.5 10t-18.5 4q-14 0 -24 -4t-16 -11q-8 -8 -11 -17.5t-3 -20.5h-45
q0 15 6.5 29t21.5 28q13 15 31 23.5t41 8.5q9 0 18 -2t19 -5q9 -4 15.5 -8.5t11.5 -9.5q7 -6 12.5 -13t8.5 -14q3 -8 4.5 -16t1.5 -15q0 -18 -4.5 -30.5t-12.5 -20.5q-9 -9 -18 -16.5t-16 -13.5z" />
    <glyph glyph-name="uni00B3" unicode="&#xb3;" horiz-adv-x="950" 
d="M179 617q0 -12 3.5 -20t11.5 -14q6 -6 16.5 -9t25.5 -3q9 0 18 3t17 9q7 6 11 13.5t6 17.5q0 6 -1.5 13t-5.5 14q-5 6 -12.5 10t-17.5 7q-3 0 -7 1t-9 2h-11.5h-8.5v39h10t13 2q6 0 9.5 0.5t6.5 1.5q1 2 3 4t5 4l4 4l5 5t5.5 8.5t4.5 11.5q0 6 -2 13t-8 15q-7 6 -16 10
t-19 4q-15 0 -24.5 -3t-13.5 -9q-6 -6 -8 -13.5t0 -16.5h-49q2 16 9.5 30t21.5 26q12 10 28 16t36 6t36.5 -6t29.5 -16q12 -12 18 -25t6 -28q0 -14 -4.5 -24t-12.5 -17q-9 -9 -16 -14t-11 -8q8 -5 16.5 -11t17.5 -14q8 -9 12.5 -19.5t4.5 -21.5q0 -18 -7 -33t-20 -26
q-14 -12 -31.5 -18t-38.5 -6q-13 0 -23.5 1.5t-19.5 4.5q-10 3 -17 7t-11 10q-8 5 -13.5 11.5t-9.5 15.5q-6 7 -8 15.5t-1 19.5h46z" />
    <glyph glyph-name="acute" unicode="&#xb4;" horiz-adv-x="950" 
d="M366 587l-5 3l1 0.5t3 2.5l3 3q-2 -3 -2 -5.5v-3.5zM470 732q-15 -24 -29 -44.5t-29 -38.5q-16 -18 -27 -31.5t-17 -21.5q3 11 8 28t13 41q3 11 7 22.5t8 23.5q3 12 7 24.5t9 26.5q3 8 8 16.5t11 17.5q4 8 9 15.5t10 13.5q6 13 16.5 16t25.5 -3q11 -7 12.5 -18t-6.5 -26
q-6 -17 -15 -32t-21 -30z" />
    <glyph glyph-name="paragraph" unicode="&#xb6;" horiz-adv-x="950" 
d="M605 809v-896h-32v862h-114v-862h-32v512q-48 0 -83.5 13.5t-59.5 41.5q-26 27 -38.5 61.5t-12.5 76.5q0 39 13 72.5t40 62.5q25 27 57.5 41.5t71.5 14.5h190z" />
    <glyph glyph-name="periodcentered" unicode="&#xb7;" horiz-adv-x="630" 
d="M249 419h112v-114h-112v114z" />
    <glyph glyph-name="cedilla" unicode="&#xb8;" horiz-adv-x="950" 
d="M428 -35l94 97q-12 10 -23 22t-22 25q-6 6 -12.5 11.5t-12.5 11.5t-12 11.5t-12 11.5v37l130 -130q-15 -18 -30.5 -35t-32.5 -33q-18 -16 -35 -32.5t-32 -34.5v38z" />
    <glyph glyph-name="uni00B9" unicode="&#xb9;" horiz-adv-x="950" 
d="M237 545v189h-65v36q7 0 14 0.5t13 2.5q5 1 10 3.5t10 7.5v-1q6 1 10.5 5t7.5 10q3 4 4.5 9.5t2.5 11.5h38v-274h-45z" />
    <glyph glyph-name="ordmasculine" unicode="&#xba;" horiz-adv-x="950" 
d="M716 450q0 -61 -15.5 -112t-45.5 -92q-35 -42 -80.5 -62.5t-102.5 -20.5q-56 0 -100.5 20.5t-78.5 62.5q-31 41 -46 92t-15 112q0 58 15 109t46 94q34 42 79 63t101 21q57 0 102.5 -21t79.5 -63q30 -43 45.5 -94t15.5 -109v0zM777 -24h-595v62h595v-62zM631 450
q0 20 -3 40t-7 40q-6 19 -14 36.5t-20 34.5q-9 15 -21 26.5t-27 20.5q-16 7 -32.5 11t-33.5 4q-35 0 -62.5 -16t-48.5 -46q-23 -33 -33.5 -70.5t-10.5 -80.5q0 -45 10.5 -82.5t33.5 -67.5q22 -32 49.5 -47.5t60.5 -15.5q34 0 63 15.5t52 47.5q21 30 32.5 67.5t11.5 82.5v0z
" />
    <glyph glyph-name="onequarter" unicode="&#xbc;" horiz-adv-x="950" 
d="M132 384h682v-44h-682v44zM457 425v286h-93v58q7 0 16 1.5t20 4.5q9 2 19 5t19 8q5 4 9.5 10t9.5 14q3 6 5 14t3 17h64v-418h-72zM292 -59v74q12 17 24 34.5t24 34.5q13 18 25.5 36t25.5 37q12 18 24.5 35.5t24.5 35.5t24.5 35.5t24.5 35.5h69v-296h59v-62h-59v-59h-67
v59h-199zM491 186l-126 -183h126v183z" />
    <glyph glyph-name="onehalf" unicode="&#xbd;" horiz-adv-x="950" 
d="M132 384h682v-44h-682v44zM457 -4q-9 -6 -16.5 -13t-13.5 -16t-10.5 -17t-7.5 -17h211v-60h-294q0 21 4.5 42.5t14.5 44.5q9 23 27 45t45 45q10 6 19.5 13t18.5 14q8 6 18 12.5t22 14.5l-1 -1l1.5 1t4.5 4q6 6 13 13.5t15 16.5q6 7 10 17.5t5 24.5q0 12 -3.5 24t-11.5 24
q-9 11 -22.5 17t-30.5 6t-29.5 -6t-21.5 -17q-10 -12 -14.5 -26.5t-4.5 -29.5h-72q0 25 9 48.5t28 44.5q18 21 44.5 32.5t60.5 11.5q33 0 60 -10t48 -29q18 -20 27 -42.5t9 -46.5t-7.5 -43t-22.5 -32q-5 -8 -11 -14t-13 -11q-8 -6 -14 -12t-10 -11zM449 425v286h-93v58
q9 0 19 1.5t21 4.5q9 2 16.5 5t13.5 8q8 4 14 10t11 14q3 6 5 14t2 17h63v-418h-72z" />
    <glyph glyph-name="threequarters" unicode="&#xbe;" horiz-adv-x="950" 
d="M132 384h682v-44h-682v44zM292 -59v74q12 17 24 34.5t24 34.5q13 18 25.5 36t25.5 37q12 18 24.5 35.5t24.5 35.5t24.5 35.5t24.5 35.5h69v-296h59v-62h-59v-59h-67v59h-199zM491 186l-126 -183h126v183zM391 547q-2 -17 4 -29t19 -21q12 -10 25.5 -14.5t30.5 -4.5
q18 0 32 4.5t25 14.5q10 9 15.5 20t7.5 26q0 10 -2 20t-8 19q-7 8 -17 14t-23 10q-5 2 -11 3.5t-13 1.5h-29v63q6 0 14 0.5t18 2.5q9 0 15 2t10 5q8 3 14.5 8.5t11.5 12.5q4 6 7 14t5 17q0 4 -1 9.5t-2 11.5q-2 4 -5 9l-6 10l-12 8t-11 7q-6 3 -15 4.5t-20 1.5q-16 0 -28 -5
t-19 -14q-9 -10 -13.5 -21.5t-4.5 -23.5h-72q0 25 9.5 46t30.5 39q19 18 43.5 27t53.5 9q32 0 57.5 -9t45.5 -26q19 -17 29 -37t10 -43q0 -11 -2.5 -19.5t-5.5 -15.5q-5 -9 -9.5 -15.5t-8.5 -12.5q-3 -7 -8 -12t-11 -8q-8 -5 -14 -8t-10 -4q18 -6 32.5 -16t26.5 -23
q11 -15 17 -30.5t6 -31.5q0 -27 -10.5 -50t-31.5 -41q-22 -20 -50 -29.5t-62 -9.5q-15 0 -29 2.5t-28 8.5q-15 5 -27.5 12t-21.5 16q-12 9 -20.5 19.5t-12.5 23.5q-5 12 -7 24.5t-2 27.5h68z" />
    <glyph glyph-name="questiondown" unicode="&#xbf;" horiz-adv-x="950" 
d="M696 163q2 -47 -10.5 -88.5t-39.5 -78.5q-14 -18 -31.5 -32t-39.5 -24q-24 -10 -51.5 -15t-58.5 -5q-52 0 -95 19t-76 57q-23 27 -33.5 57t-10.5 63q0 13 1 27t4 28q9 27 20 49.5t26 42.5q13 18 30 32.5t38 24.5q39 18 59 50.5t20 80.5v134h52v-131q0 -60 -23.5 -102
t-68.5 -66q-45 -23 -71 -59t-35 -85q-2 -11 -2.5 -18.5t-0.5 -12.5q0 -17 3.5 -31t11.5 -26q6 -13 13.5 -23.5t16.5 -18.5q15 -10 31 -17.5t33 -13.5q16 -6 31.5 -9t30.5 -3q48 0 82 14.5t55 43.5q21 28 29 62.5t5 73.5h55zM512 719h-82v86h82v-86z" />
    <glyph glyph-name="AE" unicode="&#xc6;" horiz-adv-x="950" 
d="M534 175h-336q-12 -27 -21.5 -52t-18.5 -49q-9 -25 -17.5 -49.5t-15.5 -48.5h-92q33 97 67 193.5t70 192.5q34 95 68.5 191t67.5 193h571v-83h-425l88 -244h322v-84h-291l96 -276h219v-83h-281zM224 259h276l-134 385z" />
    <glyph glyph-name="Eth" unicode="&#xd0;" horiz-adv-x="950" 
d="M335 319h242v-64h-242v-196h159q65 0 111.5 22.5t75.5 68.5q31 45 47 98t16 114q0 60 -16 113t-47 99q-29 44 -75.5 66.5t-111.5 22.5h-159v-344zM250 255h-165v64h165v427h259q78 0 139 -27.5t104 -81.5q43 -56 65 -125t22 -150q0 -83 -22 -152t-65 -124
q-43 -56 -104 -83t-139 -27h-259v279z" />
    <glyph glyph-name="multiply" unicode="&#xd7;" horiz-adv-x="950" 
d="M784 95l-16 -16t-11 -13q-5 -7 -11 -14.5t-12 -14.5l-263 271q-29 -33 -58.5 -65.5t-59.5 -64.5q-32 -33 -62.5 -66t-60.5 -65q-10 6 -17.5 13t-12.5 14q-3 3 -7 6t-7 6q-4 4 -8.5 7.5t-8.5 7.5l252 259q-29 31 -58 62.5t-59 64.5q-31 31 -62.5 63t-62.5 64q9 7 16 14
t13 14q4 6 11.5 13t16.5 15l234 -257q31 31 62.5 63t61.5 64q30 30 58.5 61t57.5 62l51 -49l-235 -252z" />
    <glyph glyph-name="Oslash" unicode="&#xd8;" horiz-adv-x="950" 
d="M333 94q16 -12 32.5 -21.5t33.5 -15.5q15 -8 33 -11t39 -3q55 0 99 22.5t77 67.5q30 44 45.5 101t15.5 128q0 31 -4 61t-10 57q-8 27 -16.5 51t-18.5 45zM618 621q-33 30 -69.5 45t-77.5 15q-51 0 -94.5 -22.5t-77.5 -67.5q-30 -45 -45 -102.5t-15 -126.5q0 -33 3 -63.5
t10 -57.5q6 -29 15.5 -53.5t24.5 -45.5zM244 63q-24 27 -42 59.5t-30 71.5q-14 37 -20 79t-6 89q0 87 22 158.5t67 128.5q45 55 104 83.5t132 28.5q30 0 56.5 -4.5t50.5 -11.5q23 -9 45.5 -21t43.5 -27l94 147q7 -5 13.5 -9.5t12.5 -7.5q4 -5 9.5 -9.5t11.5 -8.5l-100 -154
q21 -27 38.5 -59.5t30.5 -68.5q12 -38 18 -79t6 -86q0 -89 -22.5 -161t-66.5 -127q-44 -56 -104.5 -83t-136.5 -27q-27 0 -52 3.5t-46 11.5q-23 8 -44 18.5t-40 24.5q-15 -18 -28 -36t-25 -36q-13 -18 -24.5 -36.5t-20.5 -36.5q-9 4 -15 8.5t-10 8.5q-6 4 -12.5 8.5
t-13.5 9.5z" />
    <glyph glyph-name="Thorn" unicode="&#xde;" horiz-adv-x="950" 
d="M320 -24h-89v770h89v-200q17 19 37 34t43 27q21 10 45 16t50 6q54 0 97.5 -21.5t75.5 -63.5q35 -43 53 -97t18 -120q0 -67 -18 -121.5t-53 -96.5q-32 -42 -75 -63t-98 -21q-26 0 -50 5t-45 17q-23 10 -43 25.5t-37 35.5v-132zM481 546q-39 0 -69 -16t-50 -46
q-21 -32 -31.5 -71t-10.5 -86q0 -48 10 -88t31 -70q21 -31 51 -46t69 -15q36 0 64.5 15t50.5 46q21 30 32 70t11 88t-11 87t-32 70q-21 30 -50 46t-65 16v0z" />
    <glyph glyph-name="germandbls" unicode="&#xdf;" horiz-adv-x="950" 
d="M275 -46v573q0 57 14.5 96.5t44.5 62.5q33 21 67 32.5t69 11.5h17q44 0 78.5 -13t59.5 -38q25 -27 38.5 -57.5t15.5 -63.5q1 -45 -7 -76.5t-24 -48.5q-18 -18 -37 -32.5t-38 -24.5q6 -3 14.5 -7.5t19.5 -10.5q4 -4 9.5 -8t11.5 -8q6 -5 13 -9.5t15 -9.5q25 -23 37.5 -60
t12.5 -88q0 -23 -4.5 -43t-11.5 -38q-9 -19 -19 -35t-22 -29q-15 -14 -32.5 -24.5t-38.5 -17.5q-22 -7 -47.5 -10.5t-55.5 -3.5h-37v71h20q27 0 54.5 6.5t54.5 20.5q26 15 39.5 44t13.5 73q0 42 -13.5 71.5t-40.5 44.5q-14 6 -27 11t-25 8q-14 2 -28 3.5t-28 1.5h-19v73h15
q15 0 29 1.5t28 4.5q12 2 22.5 8t19.5 17q11 7 19 17.5t13 22.5q4 11 6.5 26.5t2.5 35.5q0 34 -10 59t-29 40q-18 13 -40 20.5t-49 7.5q-26 0 -47.5 -10.5t-37.5 -30.5q-13 -18 -19 -39t-6 -44v-584h-81z" />
    <glyph glyph-name="ae" unicode="&#xe6;" horiz-adv-x="950" 
d="M715 283q-1 34 -9 64t-23 55v-1q-14 25 -33 38t-43 13q-26 0 -45.5 -11.5t-32.5 -33.5q-15 -24 -23 -54.5t-9 -69.5h218zM412 253l-5 1q-3 -5 -6.5 -8t-9.5 -6l-7 -3.5l-5 -2.5q-3 -2 -5 -3t-3 -1q-15 -5 -29 -8t-28 -4q-6 -1 -11 -1.5t-9 -1.5t-7 -1.5t-5 -0.5
q-3 -2 -6 -3l-6 -2t-5.5 -2t-5.5 -2q-14 -7 -24.5 -17.5t-18.5 -23.5q-9 -15 -12.5 -32t-1.5 -36q0 -11 2.5 -20t6.5 -15q3 -8 8 -14t14 -10q5 -5 11 -7.5t14 -3.5q6 -3 12.5 -3.5t14.5 1.5q29 3 51.5 16t39.5 37q18 22 27 44t9 43v90zM494 -4q0 -3 1 -6.5t3 -6.5
q0 -2 0.5 -3.5t0.5 -2.5t0.5 -2t0.5 -2h-75q-5 9 -6.5 17t-1.5 17q-1 8 -1 16v16l-6 4q-10 -18 -23.5 -34t-29.5 -29q-18 -13 -39 -19.5t-45 -6.5q-31 -2 -57 5t-47 22q-22 15 -34 40t-15 58q-1 5 -1 9.5v8.5q-1 3 -1 6.5v7.5q0 28 6 51.5t19 42.5q12 18 28 30.5t37 21.5
q12 3 24 6.5t24 6.5q5 0 10 1l10 2t9.5 2t9.5 2q9 0 17.5 1.5t15.5 3.5q3 0 6 0.5t6 1.5q4 0 7.5 1t8.5 2q4 0 8 2t9 5q1 1 3 2.5t5 3.5q2 1 4 3l5 5q6 3 10 8t7 11q2 5 3.5 12t1.5 16q0 17 -7 33.5t-19 33.5h1q-8 15 -25.5 23.5t-44.5 8.5q-29 0 -49 -7.5t-30 -20.5
q-12 -15 -17.5 -32.5t-3.5 -38.5h-78q-2 20 1.5 38t11.5 33q6 14 16 27.5t23 27.5q26 22 57.5 33.5t67.5 11.5q22 0 43.5 -5.5t42.5 -15.5q19 -12 34 -27.5t27 -35.5q15 20 31.5 35.5t35.5 27.5q18 10 37.5 16t41.5 6q39 0 74 -20t66 -59q27 -40 40.5 -98.5t13.5 -136.5
h-307q0 -39 8.5 -72.5t25.5 -61.5q13 -26 32.5 -38.5t46.5 -12.5q22 0 38 7t25 22q12 13 20.5 26.5t11.5 25.5h86q-4 -15 -9.5 -28.5t-12.5 -25.5q-5 -7 -9 -13.5t-7 -12.5l-8 -12t-7 -12q-13 -12 -26.5 -21.5t-27.5 -16.5q-15 -6 -33 -9.5t-39 -3.5q-17 0 -32 3.5t-28 9.5
q-15 6 -27.5 13.5t-24.5 16.5z" />
    <glyph glyph-name="eth" unicode="&#xf0;" horiz-adv-x="950" 
d="M317 212q0 -20 3 -37t9 -32q4 -16 13 -30.5t21 -26.5q21 -27 48.5 -39.5t60.5 -12.5q34 0 62.5 12t49.5 37q20 24 32 56t15 73h-314zM455 330q-6 7 -11 14t-11 13t-10.5 12t-7.5 12l99 91q-12 3 -22.5 5.5t-19.5 2.5q-30 0 -54 -7.5t-42 -22.5q-4 -4 -7 -8t-6 -7
q-3 -4 -6 -7t-5 -6q-6 -7 -10.5 -14t-6.5 -13h-96q6 27 22.5 55t43.5 55q28 27 69.5 40.5t95.5 13.5q31 0 59 -7.5t54 -20.5q12 10 25.5 21.5t27.5 23.5l24 22t23 23q6 -7 11.5 -13t10.5 -11q3 -6 7.5 -12t10.5 -12l-89 -79q22 -22 40.5 -48t32.5 -56q12 -31 19 -64t7 -69
q0 -63 -18 -116.5t-52 -96.5q-38 -45 -86 -67.5t-105 -22.5q-50 0 -95 20.5t-85 62.5q-41 40 -60 102.5t-17 146.5h418q-1 21 -5.5 42t-12.5 42q-9 20 -19 36.5t-22 30.5z" />
    <glyph glyph-name="divide" unicode="&#xf7;" horiz-adv-x="950" 
d="M542 635q0 -15 -5.5 -27t-15.5 -21q-11 -10 -23.5 -14.5t-25.5 -4.5t-24.5 4.5t-20.5 14.5q-11 9 -15.5 21t-4.5 27q0 16 4.5 30t15.5 25q9 9 20.5 14.5t24.5 5.5q15 0 28 -6t23 -17q9 -12 14 -25.5t5 -26.5v0zM800 322h-659v78h659v-78zM542 86q0 -8 -1.5 -15t-2.5 -13
q-3 -7 -6.5 -13t-7.5 -10q-8 -5 -14 -8.5t-10 -6.5q-6 -3 -13 -4.5t-16 -1.5q-13 0 -24.5 5t-21.5 16q-11 9 -16 21.5t-5 28.5q0 6 1.5 13t4.5 13q3 5 6 11t6 13q4 4 10 8.5t13 7.5q6 3 12.5 4.5t12.5 1.5q15 0 28 -5.5t24 -15.5q9 -11 14.5 -23.5t5.5 -26.5v0z" />
    <glyph glyph-name="oslash" unicode="&#xf8;" horiz-adv-x="950" 
d="M379 69q12 -9 23.5 -15.5t23.5 -10.5q10 -5 21 -7t23 -2q36 0 65.5 16t52.5 49q22 31 33.5 70.5t11.5 87.5q0 18 -2 37t-5 38q-4 18 -11 34.5t-17 32.5zM563 448q-11 7 -21.5 13t-20.5 11q-11 3 -23.5 5.5t-27.5 2.5q-35 0 -63.5 -17t-50.5 -50q-25 -33 -37 -72t-12 -84
q0 -20 2.5 -38t8.5 -35q4 -18 9.5 -34.5t11.5 -30.5zM289 37q-20 21 -34 45.5t-23 53.5q-10 28 -14.5 58t-4.5 63q0 62 18 115t54 98q35 44 81.5 66.5t103.5 22.5q18 0 37 -3t37 -7q17 -6 33.5 -13.5t31.5 -16.5q6 9 13.5 20t15.5 23q6 11 13 21.5t15 21.5q3 -5 9 -9.5
t14 -7.5q6 -5 11.5 -9.5t10.5 -8.5l-1 -2.5t-2 -5.5l-12 -24q-7 -6 -12.5 -12.5t-8.5 -13.5q-5 -9 -10 -17l-10 -16q18 -21 32 -46t25 -53q9 -30 14 -60.5t5 -62.5q0 -63 -17.5 -116.5t-50.5 -96.5q-36 -45 -84.5 -67.5t-108.5 -22.5q-20 0 -38 3t-33 9q-17 6 -33.5 13.5
t-32.5 16.5q-3 -4 -6.5 -8t-6.5 -9q-3 -4 -6.5 -9t-6.5 -10q-8 -11 -14.5 -21t-10.5 -19q-9 4 -15.5 8.5t-10.5 8.5q-6 4 -11 8.5t-11 8.5z" />
    <glyph glyph-name="thorn" unicode="&#xfe;" horiz-adv-x="950" 
d="M250 746h85v-274q18 18 39.5 34t45.5 31q18 10 41 16t50 6h9.5h9.5q1 -1 3 -1.5t3 -0.5h3h3q20 -3 38 -9t35 -15q15 -9 27 -21t21 -26q18 -31 27.5 -60t9.5 -56v-394h-89v352q0 37 -8 64t-23 44q-17 16 -39.5 24.5t-51.5 8.5q-34 0 -62 -12t-49 -35q-22 -24 -32.5 -51.5
t-10.5 -60.5v-334h-85v770z" />
    <glyph glyph-name="dcroat" unicode="&#x111;" horiz-adv-x="950" 
d="M469 402q-18 0 -34.5 -4t-29.5 -11q-15 -9 -26 -18t-18 -19q-12 -13 -20.5 -28t-11.5 -31q-5 -18 -7 -37t-2 -40t2 -40.5t7 -35.5q3 -18 11.5 -32.5t20.5 -26.5q7 -13 18 -23t26 -16q13 -8 29.5 -11t34.5 -3t35 3t33 11q15 6 26 16t20 23q11 12 19 26.5t14 32.5
q4 16 6.5 35.5t2.5 40.5t-2.5 40t-6.5 37q-6 16 -14 31t-19 28q-9 10 -20 19t-26 18q-16 7 -33 11t-35 4v0zM625 535h-299v64h299v147h83v-147h132v-64h-132v-560h-83v60q-18 -20 -36.5 -35t-39.5 -25q-21 -11 -44 -16t-47 -5q-25 0 -47.5 5t-43.5 14q-22 10 -41 23t-35 31
q-18 18 -30.5 39t-20.5 45q-9 23 -13 49t-4 55q0 27 4 53.5t13 50.5q8 23 20.5 44t30.5 39q16 17 35 30.5t41 23.5q21 9 43.5 14t47.5 5q24 0 47 -4.5t45 -13.5q21 -9 39.5 -22.5t35.5 -30.5v131z" />
    <glyph glyph-name="Hbar" unicode="&#x126;" horiz-adv-x="950" 
d="M208 619v127h89v-127h352v127h89v-127h123v-64h-123v-579h-89v364h-352v-364h-89v579h-124v64h124zM297 555v-131h352v131h-352z" />
    <glyph glyph-name="hbar" unicode="&#x127;" horiz-adv-x="950" 
d="M259 599v147h84v-147h296v-64h-296v-138q10 7 20.5 15.5t21.5 17.5q5 3 10 7t10 7q5 4 10 7.5t11 7.5q18 10 39.5 15.5t46.5 5.5h9.5h9.5q1 -1 3 -1.5t3 -0.5h3h2q41 -5 70 -22t46 -45q18 -29 27 -56.5t9 -53.5v-324h-84v284q0 33 -8 58.5t-23 42.5q-16 16 -38 24.5
t-49 8.5q-33 0 -59 -11.5t-47 -33.5q-9 -12 -16.5 -24t-13.5 -24q-7 -14 -10 -28.5t-3 -29.5v-267h-84v558h-134v64h134z" />
    <glyph glyph-name="dotlessi" unicode="&#x131;" horiz-adv-x="950" 
d="M515 -24h-89v562h89v-562zM515 655h-89v91h89v-91z" />
    <glyph glyph-name="IJ" unicode="&#x132;" horiz-adv-x="950" 
d="M170 739h89v-773h-89v773zM453 219v-47q0 -38 9 -64t27 -41t38 -22t43 -7q21 0 41 7t39 22q16 13 24.5 39.5t8.5 65.5v567h93v-585q0 -48 -16.5 -85.5t-48.5 -62.5q-29 -26 -64 -39t-77 -13q-44 0 -81.5 13t-68.5 39q-29 24 -42.5 61t-13.5 87v65h89z" />
    <glyph glyph-name="ij" unicode="&#x133;" horiz-adv-x="950" 
d="M367 -24h-89v562h89v-562zM367 655h-89v91h89v-91zM667 655h-85v91h85v-91zM667 -70q0 -21 -1 -37.5t-2 -28.5q-2 -11 -5.5 -20.5t-8.5 -17.5q-9 -7 -18.5 -14t-21.5 -13q-12 -5 -26.5 -8t-29.5 -3h-52v72h2h6h7q3 0 7 0.5t9 1.5q7 1 15 3.5t16 5.5q6 8 10 15.5t6 13.5
q0 6 1 14.5t1 18.5v605h85v-608z" />
    <glyph glyph-name="kgreenlandic" unicode="&#x138;" horiz-adv-x="950" 
d="M334 -46h-84v565h84v-238q14 11 28 24.5t29 29.5q13 15 28.5 31t33.5 33q15 15 28.5 31t27.5 32q12 15 22 29t19 28h113q-6 -7 -12.5 -14t-12.5 -14l-12 -14l-12 -14q-13 -15 -25.5 -31t-24.5 -31t-24.5 -27t-24.5 -21q-8 -10 -16 -19t-17 -18t-16.5 -17.5t-11.5 -15.5
q27 -41 56.5 -82t61.5 -82q30 -42 62 -83.5t65 -81.5h-108l-202 265q-4 -5 -7.5 -8.5l-7.5 -7.5q-3 -4 -6.5 -7t-6.5 -6q-8 -7 -14.5 -14t-12.5 -13v-209z" />
    <glyph glyph-name="Ldot" unicode="&#x13f;" horiz-adv-x="950" 
d="M320 746v-688h395v-82h-484v770h89zM661 359q9 0 18.5 -4.5t18.5 -13.5q8 -9 12.5 -20t4.5 -23q0 -13 -4.5 -23.5t-12.5 -18.5q-9 -9 -18.5 -13.5t-18.5 -4.5q-14 0 -25 4.5t-19 13.5q-9 8 -13.5 18.5t-4.5 23.5q0 12 4.5 23t13.5 20q8 9 19 13.5t25 4.5v0z" />
    <glyph glyph-name="ldot" unicode="&#x140;" horiz-adv-x="950" 
d="M624 518q11 0 20.5 -4.5t18.5 -13.5q7 -9 11 -21t4 -25q0 -12 -4 -21.5t-11 -17.5q-9 -9 -18.5 -13.5t-20.5 -4.5q-14 0 -24.5 4.5t-17.5 13.5q-9 8 -12.5 17.5t-3.5 21.5q0 13 3.5 25t12.5 21q7 9 17.5 13.5t24.5 4.5v0zM381 746h89v-770h-89v770z" />
    <glyph glyph-name="Lslash" unicode="&#x141;" horiz-adv-x="950" 
d="M231 410v336h89v-257q7 8 17 17t22 20q10 9 22 19t24 19l18 -24q3 -6 8.5 -12t13.5 -12l-125 -112v-346h395v-82h-484v349q-12 -9 -23 -19t-21 -19q-6 -6 -11.5 -11t-11.5 -10t-11.5 -10t-11.5 -10q-3 3 -5.5 7t-4.5 7q-2 4 -4.5 7.5t-3.5 6.5q-5 5 -9.5 11t-8.5 13z" />
    <glyph glyph-name="lslash" unicode="&#x142;" horiz-adv-x="950" 
d="M426 293l-15.5 -15.5l-14.5 -14.5q-8 -7 -16 -14.5t-16 -14.5q-9 -8 -18 -15.5t-18 -14.5q-9 -8 -17.5 -15t-17.5 -13q-3 6 -7.5 13t-9.5 14q-6 6 -11.5 12.5t-9.5 14.5l171 149v367h89v-292q17 16 35 32.5t38 33.5q18 15 36.5 30t37.5 30q2 -6 6.5 -11t10.5 -11
t11 -12.5t10 -12.5l-185 -162v-395h-89v317z" />
    <glyph glyph-name="napostrophe" unicode="&#x149;" horiz-adv-x="950" 
d="M249 538h85v-67q7 9 16.5 18t20.5 18q9 7 20.5 14.5t25.5 15.5q7 5 17 9.5t24 7.5q12 2 23.5 3.5t22.5 1.5h8.5h11.5q3 -1 5.5 -1.5t4.5 -0.5h4h4q20 -3 37.5 -9t32.5 -15q14 -9 26.5 -21t23.5 -26q18 -31 27.5 -60t9.5 -56v-394h-89v352q0 37 -8 64t-23 44
q-17 16 -39.5 24.5t-51.5 8.5q-34 0 -62 -12t-49 -35q-22 -24 -32.5 -51.5t-10.5 -60.5v-334h-85v562z" />
    <glyph glyph-name="Eng" unicode="&#x14a;" horiz-adv-x="950" 
d="M474 37q38 4 67 20.5t50 45.5q19 28 29 66.5t10 87.5q0 48 -11 87t-32 69q-21 31 -50.5 47t-68.5 16t-69 -16t-50 -47q-21 -31 -31.5 -70t-10.5 -86v-212h-89v701h89v-270q17 19 37 34t43 27q21 10 46 16t53 6q52 0 96.5 -21.5t80.5 -63.5q33 -43 50 -97t17 -120
q0 -69 -17.5 -123.5t-51.5 -94.5q-37 -39 -83.5 -60t-103.5 -25v83z" />
    <glyph glyph-name="eng" unicode="&#x14b;" horiz-adv-x="950" 
d="M596 328q0 37 -7.5 64t-20.5 44q-15 16 -35 24.5t-45 8.5q-33 0 -59.5 -12t-46.5 -35q-20 -26 -29.5 -54t-9.5 -58v-334h-89v562h89v-68q15 19 34 35.5t43 31.5q18 10 40.5 16t48.5 6h10.5h9.5q1 -1 3 -1.5t3 -0.5h3.5h3.5q38 -6 65.5 -23.5t45.5 -47.5t27 -59.5t9 -56.5
v-440q0 -21 -2 -37.5t-5 -28.5q-4 -11 -8 -20.5t-7 -17.5q-6 -7 -14.5 -14t-20.5 -13q-12 -5 -26.5 -8t-29.5 -3h-52v72h2h6h7q3 0 7 0.5t9 1.5q7 1 14 3.5t13 5.5q4 8 7 15.5t5 13.5q0 6 1 14.5t1 18.5v395z" />
    <glyph glyph-name="OE" unicode="&#x152;" horiz-adv-x="950" 
d="M344 681q-47 0 -83 -22.5t-61 -67.5q-27 -45 -40 -102.5t-13 -126.5q0 -71 13 -128t40 -101q25 -45 61 -67.5t83 -22.5q48 0 86 22.5t67 67.5q24 43 37 100.5t13 128.5q0 69 -13 126.5t-37 102.5q-29 45 -67 67.5t-86 22.5v0zM876 761v-84h-334q20 -25 36.5 -54.5
t29.5 -63.5q12 -36 20 -74.5t11 -80.5h222v-84h-222q-3 -42 -11 -80.5t-20 -72.5q-13 -36 -29.5 -66t-36.5 -54h344v-83h-542q-68 0 -122 27t-94 83q-41 55 -60.5 127t-19.5 161q0 87 19.5 158.5t60.5 128.5q40 55 94 83.5t122 28.5h532z" />
    <glyph glyph-name="oe" unicode="&#x153;" horiz-adv-x="950" 
d="M751 283q-1 36 -9 66t-23 53v-1q-14 25 -33.5 38t-45.5 13q-24 0 -42 -11.5t-31 -33.5q-15 -24 -23.5 -54.5t-11.5 -69.5h219zM322 452q-26 0 -47 -16.5t-37 -47.5t-23.5 -68t-7.5 -80q0 -45 7.5 -82t23.5 -67q16 -32 37 -47.5t47 -15.5q25 0 45.5 15.5t37.5 47.5
q12 30 19 67t7 82q0 42 -7 79t-19 69q-17 31 -37.5 47.5t-45.5 16.5v0zM481 65q-13 -26 -29.5 -46t-35.5 -35q-21 -15 -44.5 -22.5t-49.5 -7.5q-47 0 -84 20.5t-64 62.5q-26 42 -38 92.5t-12 110.5q0 58 12 108.5t38 94.5q27 42 64 63t84 21q26 0 49.5 -8t44.5 -23
q19 -17 36 -38t31 -47q11 26 27 47t37 38q19 15 42.5 23t50.5 8q39 0 75 -20t69 -59q15 -20 25.5 -44.5t16.5 -54.5q6 -31 8.5 -65t2.5 -71h-306q0 -39 8.5 -72.5t25.5 -61.5q13 -26 32 -38.5t43 -12.5t41 7t27 22q11 13 18.5 26t12.5 26h86q-9 -28 -22.5 -54t-31.5 -50
q-24 -26 -56.5 -38.5t-73.5 -12.5q-26 0 -49 7.5t-42 22.5q-21 15 -36.5 35t-26.5 46h-6z" />
    <glyph glyph-name="Tbar" unicode="&#x166;" horiz-adv-x="950" 
d="M426 429v234h-247v83h583v-83h-247v-234h247v-64h-247v-389h-89v389h-247v64h247z" />
    <glyph glyph-name="tbar" unicode="&#x167;" horiz-adv-x="950" 
d="M402 371v97h-86v70h86v171h89v-171h92v-70h-92v-97h148v-66h-148v-184v-16t2 -13q0 -7 3 -14t9 -13q5 -6 12 -9.5t16 -3.5q8 -2 16.5 -2.5t17.5 -0.5v-73h-65q-14 0 -26 3t-22 9q-12 6 -20 13.5t-14 16.5q-5 8 -8.5 17.5t-5.5 21.5q-2 4 -2.5 10.5t-0.5 15.5q-1 7 -1 16
v20v186h-147v66h147z" />
    <glyph glyph-name="caron" unicode="&#x2c7;" horiz-adv-x="950" 
d="M471 719q-24 13 -47.5 26.5t-45.5 28.5q-12 6 -23.5 13t-22.5 14q-11 6 -22.5 13t-22.5 15q2 3 4 7t4 9q1 3 2.5 7t4.5 7l169 -98l42 24t43 25q10 6 20.5 12t21.5 12q10 6 20.5 12.5t21.5 12.5l14 -14q1 -4 3.5 -8t5.5 -8z" />
    <glyph glyph-name="uni02D0" unicode="&#x2d0;" horiz-adv-x="950" 
d="M224 475l-68 130h139zM224 246l71 -127h-139z" />
    <glyph glyph-name="breve" unicode="&#x2d8;" horiz-adv-x="950" 
d="M300 856q15 -21 34 -37.5t42 -28.5q22 -14 45.5 -20t49.5 -6q27 0 52.5 6t49.5 20q22 12 40.5 28.5t33.5 37.5q4 -4 8 -7t7 -5q2 -3 5.5 -7t8.5 -8q-18 -24 -39.5 -42.5t-46.5 -32.5q-27 -15 -56.5 -22t-62.5 -7q-30 0 -58.5 7t-55.5 22q-29 14 -51.5 32.5t-39.5 42.5z
" />
    <glyph glyph-name="dotaccent" unicode="&#x2d9;" horiz-adv-x="950" 
d="M470 635q-41 0 -61 21t-20 63t20 63.5t61 21.5q40 0 60.5 -21.5t20.5 -63.5t-20.5 -63t-60.5 -21v0z" />
    <glyph glyph-name="ring" unicode="&#x2da;" horiz-adv-x="950" 
d="M471 804q-15 0 -27 -5.5t-21 -15.5q-11 -11 -16 -25t-5 -31q0 -18 5 -32t16 -24q9 -11 21 -16t27 -5t28.5 5t24.5 16q9 10 14.5 24t5.5 32q0 17 -5.5 31t-14.5 25q-11 10 -24.5 15.5t-28.5 5.5v0zM471 839q22 0 41 -8.5t34 -24.5q17 -18 26 -37.5t9 -41.5q0 -23 -9 -43
t-26 -36q-15 -17 -34 -25t-41 -8q-23 0 -41 8t-30 25q-16 16 -23.5 36t-7.5 43q0 22 7.5 41.5t23.5 37.5q12 16 30 24.5t41 8.5v0z" />
    <glyph glyph-name="ogonek" unicode="&#x2db;" horiz-adv-x="950" 
d="M524 -73q-17 18 -34 34.5t-33 32.5q-18 16 -34.5 33t-32.5 35l134 130v-37l-94 -93q6 -6 12 -12.5t12 -12.5l12 -12l12 -12q10 -12 22 -24l24 -24v-38z" />
    <glyph glyph-name="hungarumlaut" unicode="&#x2dd;" horiz-adv-x="950" 
d="M328 588l-5 2l1 0.5t2 2.5l3 3q-1 -2 -1 -4v-4zM432 732q-15 -24 -29.5 -44.5t-29.5 -38.5q-17 -18 -27.5 -31.5t-16.5 -21.5q1 10 6 26.5t14 39.5q7 21 15.5 46t17.5 54q3 8 7.5 16.5t10.5 17.5q5 7 9.5 14.5t7.5 14.5q3 6 8.5 9.5t12.5 6.5q6 1 11 0.5t9 -3.5
q12 -7 14.5 -18t-5.5 -26q-4 -9 -7 -17t-6 -15q-4 -9 -9.5 -16.5t-12.5 -13.5zM456 587l-5 3l7 7q-2 -5 -2 -7.5v-2.5zM564 732q-17 -24 -32.5 -44t-30.5 -38q-16 -18 -26.5 -31.5t-16.5 -21.5q0 11 5 28t14 40q7 21 15.5 45.5t17.5 51.5q3 8 7.5 16.5t10.5 17.5
q5 7 8.5 14.5t6.5 14.5q4 5 9.5 8.5t13.5 6.5q6 1 11.5 1t10.5 -3h-1q12 -7 14.5 -18t-6.5 -26q-4 -9 -7 -17t-6 -15q-4 -9 -8.5 -16.5t-9.5 -13.5z" />
    <glyph glyph-name="Alpha" unicode="&#x391;" horiz-adv-x="950" 
d="M759 44q13 0 18.5 -4.5t4.5 -13.5q-3 -11 -11 -15.5t-21 -4.5h-207q-11 0 -14.5 4.5t-0.5 13.5q1 9 7 14.5t17 5.5q15 0 26 0.5t19 2.5q6 0 11.5 2t8.5 5q3 2 4.5 5.5t2.5 9.5v4.5v4.5q0 3 0.5 6t0.5 6l-16 146h-262q-9 -18 -19 -35.5t-20 -34.5l-24 -36t-24 -35h1
q-7 -13 -10 -22t-3 -13q0 -6 3 -9.5t11 -3.5q6 -2 16 -2.5t24 -0.5q13 0 19 -4.5t5 -13.5q-3 -11 -11 -15.5t-22 -4.5h-172q-15 0 -20.5 4.5t-2.5 13.5t10 14.5t17 5.5q12 0 21 0.5t15 3.5q6 1 11 3.5t10 5.5v-1q9 4 22 19t29 41l366 596q6 7 11 11t10 4q3 -1 5.5 -5
t4.5 -10l73 -632q1 -12 4 -19t8 -10q4 -4 15 -5.5t29 -1.5v0zM600 278l-30 311l-195 -311h225z" />
    <glyph glyph-name="Beta" unicode="&#x392;" horiz-adv-x="950" 
d="M773 538q-7 -16 -14 -30.5t-14 -27.5q-8 -14 -17.5 -26t-20.5 -22q-14 -11 -27.5 -20t-26.5 -15q-15 -8 -30 -14.5t-30 -10.5v-3q33 -6 60 -19.5t47 -33.5q10 -15 16 -32.5t6 -38.5q0 -12 -1.5 -23.5t-4.5 -23.5q-3 -14 -9 -29t-15 -30q-9 -17 -18.5 -30t-18.5 -23
q-15 -14 -31.5 -24.5t-33.5 -18.5q-18 -9 -34 -15t-30 -9q-18 -4 -35.5 -6.5t-35.5 -3.5q-20 -2 -39.5 -2.5t-40.5 -0.5h-250q-15 0 -19.5 4.5t0.5 13.5q1 9 7.5 14.5t17.5 5.5q28 0 46.5 2t27.5 7q1 2 3.5 6t5.5 10q2 4 4 10.5t5 14.5l138 527q3 16 2.5 26t-3.5 15
q-6 3 -23.5 5.5t-44.5 2.5q-11 0 -15 4.5t-1 13.5q1 8 7 12.5t17 4.5h289q9 0 18.5 -0.5t19.5 -1.5q10 0 20 -1t21 -1q19 -3 36 -10t31 -18q7 -9 14 -19t15 -22q6 -14 10 -27.5t4 -28.5q0 -8 -1.5 -17l-3.5 -21v0zM693 528q3 13 4.5 25.5t1.5 24.5q0 21 -7.5 37t-22.5 27
q-9 9 -24 14.5t-35 8.5q-21 2 -48 3.5t-58 1.5q-22 0 -34.5 -2.5t-15.5 -5.5q-6 -5 -12.5 -15.5t-12.5 -25.5l-55 -235h46q26 0 48 0.5t40 3.5q16 1 32 4.5t31 9.5q7 3 15.5 8.5t19.5 12.5q9 6 19.5 12.5t21.5 15.5q7 7 14.5 16t14.5 19q6 9 10 19t7 21v0zM638 191
q4 6 6.5 13.5t4.5 16.5v6.5v6.5t0.5 6.5t0.5 6.5q0 15 -3 27.5t-9 23.5q-7 9 -14.5 15.5t-16.5 11.5q-15 4 -32.5 8.5t-36.5 8.5q-21 3 -42 4.5t-43 1.5h-89l-69 -254q-3 -18 -3 -28.5t2 -13.5q3 -5 16 -6.5t34 -1.5h20.5t24.5 1h24.5t26.5 2q12 0 24.5 2t25.5 5q12 1 23 4
t22 7q2 1 5.5 3t6.5 5q4 2 8.5 5t9.5 7q9 6 16 13t13 16q9 7 16 16t13 20q4 9 8 19t7 22v0z" />
    <glyph glyph-name="Gamma" unicode="&#x393;" horiz-adv-x="950" 
d="M758 475q-3 -11 -6.5 -16.5t-9.5 -5.5q-5 -1 -8 0.5t-5 5.5q-3 3 -4 6.5t-1 8.5q3 9 4.5 19t3.5 20v8.5v8.5t0.5 8t0.5 8q0 36 -7.5 60t-20.5 36q-21 13 -72.5 20.5t-132.5 7.5q-21 0 -35.5 -3t-20.5 -7q-9 -6 -15.5 -17t-10.5 -28l-126 -502q-5 -24 -5 -38t5 -19
q2 -6 19 -9t49 -3q9 0 13 -4.5t3 -13.5q-1 -11 -8.5 -15.5t-20.5 -4.5h-230q-16 0 -22.5 4.5t-3.5 13.5q1 9 10 14.5t24 5.5q26 0 44 3t28 9q3 2 6.5 7t6.5 14q1 7 3.5 16t5.5 20l129 507q5 16 5 26t-6 15q-5 4 -20 6.5t-40 2.5q-16 0 -22.5 4.5t-3.5 13.5q1 8 9 12.5
t22 4.5h498q6 0 9.5 -4.5t3.5 -11.5z" />
    <glyph glyph-name="uni0394" unicode="&#x394;" horiz-adv-x="950" 
d="M703 80q1 -9 2 -17.5t1 -14.5q0 -12 -2.5 -20t-5.5 -12q-5 -6 -12.5 -8t-18.5 -2h-445q-8 0 -14 0.5t-10 3.5q-6 1 -8 5.5t-2 10.5q0 3 1.5 8.5t4.5 13.5q2 6 5.5 14t8.5 17q23 39 47.5 78.5t51.5 80.5q12 19 24.5 38.5t25.5 39.5t25.5 40t25.5 41q12 19 24 39l24 40
t24.5 40t24.5 41q23 39 46.5 77.5t47.5 77.5q6 6 11 9t10 4q3 0 5.5 -3.5t4.5 -9.5zM570 589q-19 -30 -38 -60.5t-38 -61.5q-20 -31 -39.5 -62.5t-39.5 -62.5q-21 -33 -40.5 -64.5t-39.5 -62.5q-19 -30 -38 -60.5t-37 -59.5q-6 -12 -9 -21t-3 -14q0 -6 3 -9.5t11 -3.5
q6 -2 16 -2.5t24 -0.5h250q21 0 35 2t23 8q7 4 11 13t4 23z" />
    <glyph glyph-name="Epsilon" unicode="&#x395;" horiz-adv-x="950" 
d="M750 475q-2 -11 -6.5 -16t-11.5 -5q-6 -1 -9.5 0.5t-4.5 5.5q-3 3 -3.5 6t-0.5 8q0 7 1 14.5t2 16.5v14v14q0 46 -9 74t-25 39h5q-21 12 -72 18t-130 6q-21 0 -35.5 -2.5t-21.5 -5.5q-6 -5 -10.5 -15.5t-6.5 -25.5l-64 -236q54 0 89.5 3.5t51.5 12.5q6 4 13.5 12.5
t16.5 21.5q9 12 16.5 29t14.5 40q6 12 13 18t16 6q5 -2 6 -8t-2 -17q-7 -34 -14.5 -68.5t-16.5 -68.5q-9 -36 -19 -70t-20 -67q-5 -14 -9.5 -20t-8.5 -5q-8 0 -10.5 6t-0.5 19q1 13 2 24.5t1 21.5q0 22 -5.5 35.5t-14.5 18.5q-10 7 -42 11.5t-86 4.5l-61 -251
q-6 -18 -6.5 -28.5t5.5 -13.5q3 -5 16 -6.5t34 -1.5q86 0 142 6.5t82 20.5q15 6 29.5 21t29.5 39q13 22 27.5 50t29.5 61q3 9 9.5 13.5t15.5 4.5q7 -2 10 -7t2 -14q-8 -27 -16 -53.5t-16 -53.5q-9 -29 -18.5 -56t-18.5 -52q-4 -9 -9.5 -13.5t-11.5 -4.5h-508
q-14 0 -19.5 4.5t-3.5 13.5q0 9 8 14.5t23 5.5q26 0 42.5 2t23.5 7q5 2 9.5 6t7.5 10q2 4 4 10.5t5 14.5l130 527q3 16 2.5 26t-3.5 15q-3 3 -18 5.5t-42 2.5q-13 0 -19 4.5t-5 13.5q1 8 9 12.5t23 4.5h497q6 0 9 -4.5t3 -11.5z" />
    <glyph glyph-name="Zeta" unicode="&#x396;" horiz-adv-x="950" 
d="M249 44h135q34 0 62.5 1.5t51.5 5.5q21 3 38.5 8t30.5 12q10 6 23 21t28 38q14 22 27 50t25 62q4 11 11.5 15.5t17.5 3.5q4 -3 6 -8.5t2 -14.5q-8 -27 -16 -53.5t-16 -53.5q-9 -28 -18.5 -55t-18.5 -52q-4 -9 -9.5 -13.5t-12.5 -4.5h-457q-9 0 -14 1.5t-5 6.5q-1 3 2.5 8
t12.5 13l560 635h-110q-32 0 -58 -2t-47 -5q-21 -4 -39 -9t-31 -11q-10 -7 -22 -22t-25 -38q-15 -24 -28.5 -52t-26.5 -59q-5 -12 -12 -17t-16 -2q-6 0 -8 5.5t0 17.5q7 26 15 53t17 54q7 27 16.5 53.5t20.5 53.5q3 7 8 11t13 4h424q15 0 16.5 -7t-8.5 -19z" />
    <glyph glyph-name="Eta" unicode="&#x397;" horiz-adv-x="950" 
d="M880 705q14 0 20 -4t5 -11q-3 -11 -10.5 -15.5t-19.5 -4.5q-30 0 -49 -3t-28 -9q-3 -3 -6 -8.5t-5 -12.5q-3 -9 -5.5 -18t-4.5 -18q-10 -30 -18 -59.5t-14 -59.5q-8 -32 -16.5 -63t-17.5 -62q-6 -32 -13.5 -63t-14.5 -61q-9 -32 -16.5 -62t-13.5 -58q-3 -11 -5.5 -20
t-3.5 -16q-3 -8 -1.5 -13t6.5 -8q4 -6 19 -9t42 -3q15 0 21 -4.5t5 -13.5q-3 -11 -10.5 -15.5t-19.5 -4.5h-240q-11 0 -15 4.5t-1 13.5q1 9 7.5 14.5t17.5 5.5q31 0 50 3t25 9q9 6 17 20t14 37l55 233h-335l-55 -233q-6 -24 -6.5 -38t4.5 -19q3 -6 18.5 -9t45.5 -3
q12 0 18 -4.5t6 -13.5q-3 -11 -11 -15.5t-22 -4.5h-232q-14 0 -20 4.5t-5 13.5t10 14.5t24 5.5q26 0 44 3t28 9q3 2 7 7t7 14q2 7 4 16t4 20q9 28 17 58t16 62q6 30 14 61t19 63q6 31 14 62t17 63q7 30 14 59.5t13 59.5q1 4 2 9t1 9q1 5 2 9t2 9q0 7 -1 12.5t-3 8.5
q-3 6 -18 9t-42 3q-15 0 -21.5 4.5t-4.5 13.5q1 8 10 12.5t24 4.5h236q9 0 14 -4t5 -11q-2 -11 -10 -15.5t-22 -4.5q-29 0 -47 -3t-25 -9q-9 -6 -16 -20.5t-10 -36.5l-53 -213h335l53 213q3 22 3.5 36.5t-1.5 20.5q-5 6 -23 9t-49 3q-11 0 -14.5 4.5t-0.5 13.5q1 8 8.5 12.5
t19.5 4.5h232z" />
    <glyph glyph-name="Theta" unicode="&#x398;" horiz-adv-x="950" 
d="M794 356q-19 -77 -58 -141.5t-97 -116.5q-57 -54 -120 -80.5t-132 -26.5q-32 0 -61 6.5t-54 21.5q-27 13 -46.5 33t-32.5 46q-12 17 -20 35t-11 38q-5 18 -6.5 37t-1.5 39q0 25 3 52t10 57q10 36 24.5 70.5t34.5 67.5q18 33 42.5 63t54.5 57q26 24 55.5 44t62.5 35
q31 15 65 22.5t70 7.5q66 0 115.5 -28t82.5 -82q19 -35 29 -72t10 -77q0 -27 -5 -54t-14 -54v0zM712 356q10 34 15.5 65.5t5.5 60.5q0 27 -5.5 53t-15.5 51q-18 47 -54.5 71t-90.5 24q-57 0 -106.5 -24t-91.5 -70q-21 -25 -39.5 -52t-33.5 -55q-17 -30 -28.5 -61t-17.5 -63
q-5 -18 -8.5 -34t-4.5 -31q-3 -17 -3.5 -32t-0.5 -29q0 -31 4 -58t13 -50q18 -46 55.5 -68.5t94.5 -22.5q55 0 103.5 22.5t90.5 68.5q42 49 71 107.5t47 126.5v0zM618 305q0 -2 -1 -3.5l-1 -1.5q-2 -5 -3.5 -8.5t-2.5 -6.5q-1 -4 -2.5 -7l-2.5 -5q-4 -6 -8.5 -8.5t-9.5 -2.5
q-4 0 -6.5 3t-2.5 10q-2 6 -2 13t1 15q0 4 -0.5 8.5t-1.5 9.5q-3 3 -8.5 5.5t-14.5 2.5h-151q-9 0 -15.5 -2.5t-9.5 -5.5q-4 -5 -7 -10t-4 -9q-3 -8 -7 -14l-8 -12q-6 -7 -10.5 -10t-7.5 -3q-6 0 -8 3t-2 9q-1 5 0 12.5t4 17.5q1 6 2.5 12.5t3.5 13.5t3.5 14.5t3.5 15.5
q2 15 6 29.5t10 29.5q2 8 5 15.5t7 13.5q3 6 5 9t4 3q6 0 9 -4.5t3 -12.5q-2 -11 -2 -19.5t2 -14.5q0 -4 2 -7t6 -4q3 -3 8 -4t12 -1h156q5 0 9.5 1.5t8.5 4.5q3 2 5 4.5t5 5.5q4 3 7.5 7.5t6.5 9.5q2 3 4 7.5t4 9.5q1 9 5 13.5t11 4.5q6 0 9 -3t4 -8q0 -6 -1.5 -14
t-3.5 -17z" />
    <glyph glyph-name="Iota" unicode="&#x399;" horiz-adv-x="950" 
d="M690 705q9 0 13.5 -4t4.5 -11q-2 -11 -10 -15.5t-21 -4.5q-29 0 -47 -3t-25 -9q-6 -3 -10.5 -8.5t-6.5 -12.5q-3 -9 -5.5 -18t-3.5 -18l-124 -488q-6 -24 -6.5 -38t4.5 -19q2 -6 19 -9t49 -3q10 0 14.5 -4.5t4.5 -13.5q-3 -11 -11 -15.5t-22 -4.5h-231q-14 0 -20 4.5
t-5 13.5t10 14.5t24 5.5q26 0 44 3t28 9q3 2 6.5 7t6.5 14q2 7 4 16t5 20l124 488q5 22 5.5 36.5t-3.5 20.5q-3 6 -18 9t-42 3q-15 0 -21 4.5t-4 13.5q1 8 10 12.5t24 4.5h236z" />
    <glyph glyph-name="Kappa" unicode="&#x39a;" horiz-adv-x="950" 
d="M869 705q9 0 13 -4t3 -11q-3 -11 -9 -15.5t-15 -4.5q-21 0 -38 -2t-29 -5q-8 -3 -20.5 -11t-28.5 -21l-254 -222l162 -329q1 -3 2.5 -5t2.5 -4t2.5 -4t3.5 -3q1 -5 4.5 -8t8.5 -5q6 -3 11.5 -4t11.5 -1q5 -2 14 -2h21q8 0 11.5 -4.5t3.5 -13.5q-2 -11 -9 -15.5t-19 -4.5
h-253q-11 0 -14.5 4.5t-0.5 13.5q1 9 8 14.5t19 5.5h23.5t21.5 2q9 0 16 1t12 4q6 1 9.5 4t4.5 8q0 3 -3 7t-7 10l-133 277l-139 -126l-35 -118q-4 -24 -4 -38t3 -19q3 -6 21 -9t50 -3q9 0 13 -4.5t3 -13.5q-3 -11 -10 -15.5t-19 -4.5h-231q-16 0 -22.5 4.5t-3.5 13.5
q1 9 9 14.5t23 5.5q27 0 45.5 3t28.5 9q3 2 6.5 7t6.5 14q1 7 3.5 16t5.5 20l125 488q7 22 7.5 36.5t-5.5 20.5q-5 6 -20 9t-40 3q-16 0 -22.5 4.5t-3.5 13.5q1 8 8.5 12.5t21.5 4.5h240q9 0 13 -4t3 -11q-3 -11 -9 -15.5t-16 -4.5q-33 0 -51.5 -3t-23.5 -9q-5 -3 -9 -8.5
t-7 -12.5q-5 -9 -8.5 -18t-5.5 -18l-76 -300l373 321q14 12 21.5 20.5t7.5 13.5q0 3 -5.5 6t-14.5 5q-11 1 -27.5 2t-37.5 1q-14 0 -19.5 4.5t-2.5 13.5q1 8 8.5 12.5t21.5 4.5h244z" />
    <glyph glyph-name="Lambda" unicode="&#x39b;" horiz-adv-x="950" 
d="M759 44q13 0 18.5 -4.5t4.5 -13.5q-3 -11 -11 -15.5t-21 -4.5h-207q-11 0 -14.5 4.5t-0.5 13.5q1 9 7 14.5t17 5.5q15 0 26 0.5t19 2.5q6 0 11.5 2t8.5 5q3 2 4.5 5.5t2.5 9.5v4.5v4.5q0 3 0.5 6t0.5 6l-55 499q-19 -30 -38 -60.5t-38 -61.5q-20 -31 -39.5 -62.5
t-39.5 -62.5q-21 -33 -40.5 -64.5t-39.5 -62.5q-19 -30 -38 -60.5t-37 -59.5q-6 -12 -9 -21t-3 -14q0 -6 3 -9.5t11 -3.5q6 -2 16 -2.5t24 -0.5q13 0 19 -4.5t5 -13.5q-3 -11 -11 -15.5t-22 -4.5h-172q-15 0 -20.5 4.5t-2.5 13.5t10 14.5t17 5.5q12 0 21 0.5t15 3.5
q6 1 11 3.5t10 5.5v-1q9 4 22 19t29 41l366 596q6 7 11 11t10 4q3 -1 5.5 -5t4.5 -10l73 -632q1 -12 4 -19t8 -10q4 -4 15 -5.5t29 -1.5v0z" />
    <glyph glyph-name="Mu" unicode="&#x39c;" horiz-adv-x="950" 
d="M921 705q13 0 19 -4t5 -11q-3 -11 -9.5 -15.5t-18.5 -4.5q-30 0 -49.5 -3t-28.5 -9q-3 -3 -6 -8.5t-5 -12.5l-6 -18t-5 -18l-122 -488q-8 -24 -8.5 -38t6.5 -19q4 -6 20 -9t43 -3q13 0 18.5 -4.5t4.5 -13.5q-3 -11 -10 -15.5t-19 -4.5h-229q-14 0 -19.5 4.5t-2.5 13.5
q0 9 7.5 14.5t22.5 5.5q27 0 43.5 3t23.5 9q6 3 10.5 8t7.5 13q1 3 2 7.5t2 8.5q1 5 2.5 9.5l3.5 10.5l126 513l-3 2l-356 -618q-5 -8 -9 -11.5t-7 -3.5q-5 0 -7.5 4t-2.5 12l-60 622l-6 1l-130 -521q-4 -24 -4.5 -38.5t2.5 -18.5q3 -6 19.5 -9t46.5 -3q9 0 13 -5t4 -14
q-1 -10 -8.5 -14.5t-21.5 -4.5h-193q-14 0 -20.5 4.5t-4.5 13.5q1 9 9.5 14.5t23.5 5.5q24 0 39 3t22 9q6 3 10.5 8t7.5 13l2.5 7.5t2.5 8.5q1 5 2.5 9.5l3.5 10.5l122 488q3 23 3.5 37.5t-1.5 20.5q-5 5 -18.5 8t-37.5 3q-14 0 -20 4.5t-4 13.5q1 8 9 12.5t23 4.5h168
q3 0 4.5 -1t3.5 -1v-2.5v-3.5t0.5 -4t1.5 -5l48 -534q18 33 37 66t38 67q20 34 39.5 67.5t39.5 68.5q19 33 38.5 66.5t38.5 67.5q20 33 39 66.5t38 67.5v-1q2 3 4.5 6t5.5 6q1 1 3 2t5 1h168z" />
    <glyph glyph-name="Nu" unicode="&#x39d;" horiz-adv-x="950" 
d="M879 705q15 0 21 -4t5 -11q-3 -11 -10.5 -15.5t-19.5 -4.5q-27 0 -44.5 -3t-26.5 -9q-5 -3 -7.5 -8.5t-3.5 -12.5q-3 -9 -5 -18l-4 -18q-9 -37 -18.5 -74t-19.5 -75q-9 -37 -19 -75t-19 -75q-11 -39 -21 -76.5t-20 -74.5t-20 -73t-19 -72q-2 -6 -6 -9t-10 -3
q-7 0 -12 2.5t-8 8.5l-257 599q-6 -29 -12.5 -58.5t-13.5 -59.5q-9 -32 -17 -64t-14 -63q-11 -33 -20.5 -64.5t-16.5 -62.5q-9 -32 -16.5 -62t-13.5 -57q-2 -11 -2.5 -20t-0.5 -16q-1 -8 -1 -13t1 -8q4 -6 20.5 -9t46.5 -3q9 0 13.5 -4.5t3.5 -13.5q-1 -11 -8.5 -15.5
t-20.5 -4.5h-197q-14 0 -20 4.5t-4 13.5q0 9 8.5 14.5t23.5 5.5q11 0 20.5 0.5t18.5 3.5q7 1 13 3t10 5q6 3 10.5 8t7.5 13l2.5 7.5t2.5 8.5q1 5 2.5 9.5l3.5 10.5l125 488q3 23 3.5 37.5t-1.5 20.5q-5 5 -19 8t-38 3q-14 0 -20 4.5t-4 13.5q1 8 9 12.5t23 4.5h129q1 0 3 -1
t5 -1q1 -2 2.5 -4t3.5 -4l235 -538l113 444q5 22 5.5 36.5t-3.5 20.5q-7 6 -23.5 9t-42.5 3q-11 0 -15 4.5t-1 13.5q1 8 7 12.5t17 4.5h201z" />
    <glyph glyph-name="Xi" unicode="&#x39e;" horiz-adv-x="950" 
d="M762 475q-3 -11 -7.5 -16.5t-10.5 -5.5q-12 -2 -15 3t2 17q3 22 4.5 41t1.5 36q0 30 -6.5 47.5t-18.5 23.5q-15 11 -39 17t-57 6h-123q-38 0 -66.5 -6t-49.5 -17q-21 -10 -43 -47.5t-44 -101.5q-5 -12 -12 -16.5t-16 -1.5q-6 0 -9 5.5t-2 16.5q10 26 18.5 53t16.5 54
q6 27 15 53.5t20 53.5q2 4 4 7.5t5 5.5q1 0 3.5 1t7.5 1h451q3 0 7 -1t8 -1q3 -2 3 -5t-3 -9zM627 295q-1 -2 -1 -3v-1q0 -2 -0.5 -2.5l-0.5 -0.5q-1 -8 -2.5 -14.5t-3.5 -10.5q-3 -6 -6.5 -8.5t-7.5 -2.5q-8 0 -12.5 3.5t-4.5 11.5q-2 6 -2 13t1 13q0 4 -0.5 8.5t-0.5 9.5
q-2 4 -6 6.5t-10 2.5h-199q-8 0 -14 -2.5t-11 -6.5q-6 -5 -9.5 -10.5t-3.5 -11.5q-2 -5 -5.5 -10.5t-9.5 -11.5q-6 -8 -11.5 -11t-9.5 -3t-5.5 2.5t-0.5 8.5v12.5t1 18.5l34 115q3 20 8 30.5t12 10.5q8 0 11.5 -4.5t3.5 -12.5v-10.5v-7.5v-9t1 -7q0 -9 5.5 -12.5t14.5 -3.5
h201q6 0 11.5 1.5t10.5 4.5q4 2 7 4.5t6 5.5q2 3 4 7t4 10q1 4 2.5 8t4.5 9q3 9 8.5 13.5t14.5 4.5q3 0 5.5 -3t2.5 -9t-1 -13.5t-2 -16.5zM667 24q-3 -9 -9.5 -13.5t-16.5 -4.5h-506q-6 0 -9 0.5t-3 3.5q-2 1 -2 5t2 10q3 25 8 52t12 55q6 27 12 53.5t12 53.5q0 9 5.5 14.5
t16.5 7.5q3 0 5.5 -2t5.5 -5q1 -5 2 -8t1 -6q-3 -23 -4.5 -43t-1.5 -36q0 -30 3.5 -48t11.5 -24q16 -10 42.5 -14.5t62.5 -4.5h180q34 0 62.5 4.5t49.5 15.5q21 10 44 48t48 104q3 10 8 15t12 4q6 -1 9 -3t5 -5v-7.5v-6.5z" />
    <glyph glyph-name="Omicron" unicode="&#x39f;" horiz-adv-x="950" 
d="M776 356q-19 -76 -58 -140.5t-98 -117.5q-60 -54 -123 -80.5t-129 -26.5q-36 0 -65.5 6.5t-53.5 21.5q-24 13 -45 33t-37 46q-8 16 -14.5 34t-12.5 37q-6 18 -9 37t-3 40q0 25 4.5 52.5t13.5 57.5q9 36 24 70.5t36 67.5q19 33 41.5 63t49.5 57q30 24 61.5 44t64.5 35
q31 15 63 22.5t64 7.5q69 0 119.5 -28t80.5 -82q20 -35 30.5 -72t10.5 -77q0 -27 -4 -54t-11 -54v0zM694 356q6 34 10 65.5t4 60.5q0 27 -4 53t-10 51q-18 47 -56 71t-96 24q-57 0 -107 -24t-92 -70q-21 -25 -38.5 -52t-30.5 -55q-15 -30 -27.5 -61t-22.5 -63q-5 -18 -8 -34
t-4 -31q-3 -17 -3.5 -32t-0.5 -29q0 -31 3.5 -58t12.5 -50q10 -22 24.5 -38.5t34.5 -28.5q18 -12 41 -18t51 -6q58 0 108 22.5t92 68.5q21 25 38 52t32 56q13 28 25.5 59.5t23.5 66.5v0z" />
    <glyph glyph-name="Pi" unicode="&#x3a0;" horiz-adv-x="950" 
d="M847 705q13 0 18.5 -4t4.5 -11q-3 -11 -11 -15.5t-21 -4.5q-29 0 -48 -3t-28 -9q-5 -3 -8 -8.5t-4 -12.5q-3 -9 -5.5 -18t-4.5 -18l-124 -488q-6 -24 -6.5 -38t4.5 -19q4 -6 20 -9t44 -3q13 0 18.5 -4.5t4.5 -13.5q-3 -11 -11 -15.5t-22 -4.5h-235q-12 0 -16 4.5t-1 13.5
q0 9 7.5 14.5t22.5 5.5q27 0 43.5 3t24.5 9q6 2 10.5 7t8.5 14q3 7 5 16t4 20q6 28 13 58t16 62q7 30 15.5 61t19.5 63q3 15 7 30.5t8 31.5t8 31.5t9 31.5q3 15 6.5 29.5t7.5 29.5t7.5 30t7.5 30q1 12 1.5 23t0.5 20q-2 8 -4.5 12.5t-5.5 6.5q-13 3 -41.5 5t-71.5 2
q-47 0 -76 -2.5t-41 -5.5q-6 -2 -10 -7t-7 -12q-4 -9 -7.5 -19.5t-6.5 -22.5l-124 -488q-8 -24 -8.5 -38t6.5 -19q4 -6 20 -9t44 -3q13 0 18.5 -4.5t4.5 -13.5q-3 -11 -10 -15.5t-19 -4.5h-239q-12 0 -16 4.5t-1 13.5q1 9 7.5 14.5t18.5 5.5q30 0 48 3t24 9q3 2 7.5 7
t9.5 14q3 7 6.5 16t6.5 20l124 488q3 22 3.5 36.5t-1.5 20.5q-5 6 -22 9t-46 3q-12 0 -16 4.5t-1 13.5q1 8 8.5 12.5t21.5 4.5h574z" />
    <glyph glyph-name="Rho" unicode="&#x3a1;" horiz-adv-x="950" 
d="M772 514q-7 -21 -16 -39t-19 -33q-12 -17 -26.5 -32.5t-31.5 -29.5q-9 -9 -19 -16.5t-21 -12.5q-12 -6 -25.5 -11.5t-26.5 -9.5q-11 -3 -22 -4.5t-23 -2.5q-14 -2 -24.5 -2.5t-17.5 -0.5h-162q-5 -26 -11 -51.5t-12 -51.5q-8 -27 -14 -53t-10 -50q-3 -11 -4.5 -20
t-1.5 -16q-2 -8 -1 -13t4 -8q2 -6 19 -9t49 -3q9 0 14 -4.5t5 -13.5q-3 -11 -11 -16t-23 -5h-230q-15 0 -21 4.5t-4 14.5q1 9 10 14.5t25 5.5q26 0 44 3t28 9q6 5 11.5 19t10.5 38l128 507q3 16 2.5 26t-3.5 15q-5 3 -20 5.5t-41 2.5q-15 0 -20.5 4.5t-2.5 13.5q1 8 9 12.5
t23 4.5h293q49 0 89 -11.5t70 -33.5q18 -17 28 -39t10 -50q0 -12 -2.5 -26.5t-5.5 -30.5zM690 514l6 27v6v6t0.5 6.5t0.5 6.5q0 24 -8.5 43.5t-23.5 33.5q-17 13 -39.5 20t-49.5 7h-92q-18 0 -29 -2.5t-16 -5.5q-6 -3 -9.5 -7t-4.5 -8q-3 -6 -5 -12.5t-3 -13.5l-69 -263
q9 -1 18.5 -1t20.5 1h67q42 0 77.5 7.5t65.5 23.5q34 15 57.5 46.5t35.5 78.5z" />
    <glyph glyph-name="Sigma" unicode="&#x3a3;" horiz-adv-x="950" 
d="M761 475q-3 -11 -7.5 -16t-9.5 -5q-3 -1 -5.5 0.5t-3.5 4.5q-3 3 -3.5 6t-0.5 8q0 8 1 17l2 18v30q0 45 -7.5 71.5t-21.5 35.5v-1q-20 12 -83 19t-169 7q-23 0 -36.5 -2.5t-16.5 -5.5q-6 -3 -5.5 -13t8.5 -28q9 -28 20 -56.5t23 -56.5q11 -30 23.5 -59t26.5 -57
q1 -6 1.5 -11t0.5 -8q-2 -5 -6.5 -11.5t-11.5 -15.5l-262 -274q-6 -9 -7.5 -14t1.5 -8q1 -3 8.5 -4.5t19.5 -1.5q120 0 197.5 6.5t111.5 20.5q16 6 34 21.5t37 39.5q18 23 32.5 50.5t26.5 59.5q6 11 13 15.5t15 3.5q5 -3 6.5 -8.5t-1.5 -14.5q-6 -27 -13 -53.5t-15 -53.5
q-9 -28 -17.5 -55t-15.5 -52q-6 -9 -12.5 -13.5t-13.5 -4.5h-461q-15 0 -24.5 1.5t-13.5 4.5q-1 0 0.5 3.5t4.5 9.5q2 5 8 12t16 16l271 302q-14 39 -28.5 77.5t-29.5 77.5q-17 38 -32.5 76t-30.5 77q-4 10 -5.5 18t-1.5 14q0 4 2 6.5t8 3.5h484q6 0 9.5 -4.5t3.5 -11.5z
" />
    <glyph glyph-name="Tau" unicode="&#x3a4;" horiz-adv-x="950" 
d="M745 475q-3 -11 -9.5 -16t-17.5 -5q-8 -2 -10.5 3t0.5 16q0 14 0.5 27.5t2.5 26.5q0 6 0.5 11.5t0.5 10.5q0 6 0.5 11t0.5 11q0 27 -3 45.5t-9 28.5q-16 15 -41.5 22.5t-60.5 7.5q-18 0 -30 -1.5t-18 -4.5q-3 -3 -5 -6.5t-2 -6.5q-2 -5 -3.5 -9.5t-2.5 -9.5
q-18 -66 -36 -131t-34 -131q-18 -66 -34 -132t-29 -130q-3 -11 -4.5 -20t-1.5 -16q-2 -8 -1 -13t4 -8q4 -6 20 -9t45 -3q13 0 19 -4.5t5 -13.5q-3 -11 -11 -15.5t-22 -4.5h-236q-12 0 -16.5 4.5t-1.5 13.5q1 9 9 14.5t22 5.5q28 0 45 3t23 9q6 2 10.5 7t8.5 14l2.5 7.5
t2.5 8.5q1 5 2.5 9.5l3.5 10.5q15 64 31.5 130t33.5 132q15 66 31 131t33 131q3 12 3.5 20t-2.5 12q-4 3 -15.5 4.5t-29.5 1.5q-35 0 -64 -8t-51 -23q-9 -9 -19 -24t-22 -37q-14 -24 -27.5 -51.5t-26.5 -59.5q-3 -12 -9.5 -16.5t-15.5 -1.5q-9 0 -11 5.5t1 16.5
q9 25 17.5 52t16.5 55q7 27 15.5 53.5t19.5 53.5q3 7 8 11t13 4h510q7 0 11.5 -4.5t4.5 -11.5z" />
    <glyph glyph-name="Upsilon" unicode="&#x3a5;" horiz-adv-x="950" 
d="M789 632q-4 -14 -10.5 -25t-15.5 -18q-10 -9 -22 -13t-27 -4q-9 0 -15.5 3.5t-12.5 11.5q-6 7 -8 15.5t1 18.5q1 11 8.5 23t20.5 24q-21 -5 -41 -13.5t-39 -20.5q-20 -14 -39.5 -32t-37.5 -41q-36 -47 -59.5 -91.5t-34.5 -87.5q-5 -17 -9 -33.5t-8 -33.5t-8 -33.5
t-8 -32.5q-9 -35 -19 -68t-19 -66q-3 -12 -5.5 -21t-2.5 -16q-2 -9 -2 -14.5t3 -8.5q3 -6 16 -8.5t36 -2.5q13 0 19 -4.5t5 -13.5q-3 -11 -11 -15.5t-22 -4.5h-188q-14 0 -20 4.5t-5 13.5t10 14.5t24 5.5q21 0 33.5 2.5t16.5 8.5q4 4 11.5 18t16.5 38q6 32 13.5 65t18.5 68
q9 33 17 66t14 66q7 21 12.5 41t8.5 40q2 18 3.5 35.5t1.5 34.5q0 2 -0.5 5t-0.5 6v7.5v7.5q-1 6 -2 13t-1 13q-9 40 -39.5 61t-81.5 23q-18 0 -26.5 4t-7.5 13q3 8 13 12.5t28 5.5q58 3 96.5 -9.5t56.5 -39.5q18 -29 25.5 -60.5t4.5 -66.5l9 -2q10 19 23.5 37.5t30.5 35.5
q15 16 30 31l30 30q34 27 68 41t68 14q13 0 24 -6t20 -17q7 -12 10 -25.5t1 -28.5v0z" />
    <glyph glyph-name="Phi" unicode="&#x3a6;" horiz-adv-x="950" 
d="M792 356q-14 -52 -45 -97.5t-79 -84.5q-46 -39 -101 -62.5t-119 -31.5q-2 -6 -2 -11t2 -8q0 -5 2.5 -8t7.5 -4q1 -2 6.5 -3t14.5 -1q8 -1 18.5 -1h23.5q10 0 15 -4.5t5 -13.5q-3 -11 -11 -15.5t-22 -4.5h-231q-14 0 -20.5 4.5t-5.5 13.5t10 14.5t24 5.5h17.5t16.5 2
q7 0 13 1t12 4q6 1 11 4t9 8q1 1 2.5 3t2.5 4t2.5 4t3.5 5q-63 8 -108 32t-72 63q-20 25 -29.5 54t-9.5 61q0 16 2 33t7 34q13 51 44 97t80 85q46 39 101.5 62.5t120.5 30.5q0 6 0.5 11.5t0.5 10.5q-2 3 -4.5 5.5t-5.5 4.5t-8 3.5t-12 2.5h-9.5h-8.5q-5 0 -9.5 0.5t-8.5 0.5
q-15 0 -21.5 4.5t-4.5 13.5q1 8 10 12.5t24 4.5h236q9 0 13.5 -4t4.5 -11q-2 -11 -9.5 -15.5t-21.5 -4.5q-11 0 -20 -1t-16 -2q-5 -1 -8.5 -2t-6.5 -1q-3 -1 -5.5 -1.5t-4.5 -0.5q-6 -2 -10.5 -5t-7.5 -6q-5 -5 -8.5 -10.5t-5.5 -11.5q61 -8 106 -30.5t72 -61.5
q18 -27 28 -56.5t10 -61.5q0 -15 -2.5 -31t-5.5 -32v0zM709 356q4 18 7 36.5t3 36.5q0 24 -4 45t-11 40q-18 32 -49 51.5t-76 27.5l-122 -475q23 1 45.5 7.5t43.5 17.5q20 9 39.5 23.5t38.5 32.5q33 33 54.5 72.5t30.5 84.5v0zM502 594q-48 -8 -90 -28t-78 -52
q-18 -17 -32 -35t-25 -37q-12 -21 -19.5 -42.5t-10.5 -43.5q-6 -19 -8 -37.5t-2 -36.5q0 -24 3.5 -45.5t11.5 -39.5q18 -35 50.5 -54.5t77.5 -23.5z" />
    <glyph glyph-name="Chi" unicode="&#x3a7;" horiz-adv-x="950" 
d="M839 705q13 0 19 -4t5 -11q-3 -11 -10.5 -15.5t-19.5 -4.5q-25 0 -41.5 -2.5t-25.5 -5.5q-8 -3 -19.5 -13t-26.5 -28l-206 -240q13 -33 26 -66.5t25 -66.5q11 -35 23.5 -68.5t26.5 -65.5q3 -11 7 -20.5t8 -16.5q3 -9 6.5 -14t9.5 -7q7 -6 22.5 -9t39.5 -3q12 0 15.5 -4.5
t0.5 -13.5q-3 -11 -8.5 -15.5t-14.5 -4.5h-247q-15 0 -21 4.5t-3 13.5t10 14.5t18 5.5q31 0 50.5 2t26.5 8q3 4 2 19t-7 39l-74 199l-171 -199q-21 -24 -29.5 -38.5t-5.5 -18.5q0 -6 16.5 -8.5t48.5 -2.5q9 0 13.5 -4.5t4.5 -13.5q-2 -11 -10 -15.5t-21 -4.5h-219
q-13 0 -17 4.5t1 13.5q1 9 7 14.5t17 5.5q27 0 46 2.5t30 8.5q7 5 22 20t36 39l214 246l-99 261q-6 18 -11.5 28t-11.5 13h1q-8 3 -24.5 5.5t-40.5 2.5q-11 0 -14.5 4.5t-0.5 13.5q1 8 7 12.5t17 4.5h238q12 0 17.5 -4t4.5 -11q-5 -11 -12 -15.5t-16 -4.5q-27 0 -44.5 -2
t-24.5 -5q-3 -1 -4.5 -4t-0.5 -8q0 -6 1 -13.5t4 -15.5l75 -192l167 192q3 7 5.5 12.5t5.5 10.5q2 3 3.5 6t1.5 6t-3 5t-9 5q-6 1 -18 2t-28 1q-14 0 -18 4.5t1 13.5q1 8 7 12.5t17 4.5h207z" />
    <glyph glyph-name="Psi" unicode="&#x3a8;" horiz-adv-x="950" 
d="M857 633q-26 -18 -40.5 -19.5t-17.5 15.5q-4 19 -9 29.5t-11 11.5q-28 0 -43 -37t-18 -110q-3 -74 -22.5 -129t-54.5 -92q-22 -24 -47.5 -39.5t-54.5 -24.5q-34 -9 -62 -14.5t-50 -6.5l-23 -104q-8 -24 -8.5 -38t6.5 -19q4 -6 20 -9t44 -3q13 0 19 -4.5t5 -13.5
q-3 -11 -11 -15.5t-21 -4.5h-236q-12 0 -16.5 4.5t-1.5 13.5q1 9 8.5 14.5t21.5 5.5q28 0 45 3t23 9q6 2 10.5 7t8.5 14l2.5 7.5t2.5 8.5q1 5 2.5 9.5l3.5 10.5l27 104q-27 1 -53 6.5t-51 14.5q-24 9 -41 25t-26 40q-8 11 -11 24.5t-3 29.5q0 33 11.5 74t35.5 92
q20 41 30.5 71t10.5 50q0 12 -5 19t-14 7q-10 -2 -20.5 -12t-21.5 -28q-6 -9 -13 -13t-16 -4q-3 0 -6 1t-6 4q-5 1 -9.5 5.5l-10.5 10.5t-2.5 17.5t15.5 29.5q6 11 20.5 17t38.5 6q5 0 10 -0.5t10 -0.5h9.5h9.5q16 -3 28 -9t20 -15q7 -11 11.5 -22t6.5 -22q3 -32 -6 -74
t-29 -95q-12 -28 -19.5 -51.5t-8.5 -41.5q-3 -20 -4 -35t1 -25q5 -18 17 -31t30 -19q10 -5 19 -8t17 -4q6 -3 14 -4.5t17 -1.5q4 16 16.5 64t33.5 127q19 76 29.5 117.5t12.5 47.5q3 22 3.5 36.5t-2.5 20.5q-5 6 -21.5 9t-45.5 3q-12 0 -16.5 4.5t-1.5 13.5q0 8 7.5 12.5
t22.5 4.5h232q13 0 19 -4t5 -11q-3 -11 -11 -15.5t-22 -4.5q-29 0 -47.5 -3t-27.5 -9q-5 -3 -8 -8.5t-4 -12.5q-3 -9 -5.5 -18t-4.5 -18l-91 -356q8 0 17 2t19 5q9 2 17.5 5t17.5 7q20 6 38.5 18.5t35.5 30.5q6 10 13 25t15 35q6 19 11 42.5t8 50.5q9 52 22 94.5t31 74.5
q8 10 18.5 21t23.5 22q12 10 25.5 16t30.5 9h8.5h9.5t10.5 0.5t11.5 0.5q24 0 36.5 -6t14.5 -16q1 -18 -2.5 -30.5t-12.5 -18.5v0z" />
    <glyph glyph-name="uni03A9" unicode="&#x3a9;" horiz-adv-x="950" 
d="M826 429q-15 -54 -44.5 -102t-73.5 -89q-45 -42 -97 -66.5t-110 -33.5l-13 -71h19q37 0 66.5 3t51.5 9q11 5 22 15.5t23 25.5q10 14 19.5 33.5t18.5 43.5q4 10 9.5 15.5t13.5 5.5q7 -2 8.5 -7.5t-1.5 -14.5l-58 -172q-3 -6 -5 -9.5t-3 -4.5q-3 -3 -6.5 -3.5t-6.5 -0.5
h-232q6 20 12 39.5t11 39.5q1 9 3 18t5 19l4 20t5 21q54 8 99 31t81 62q15 18 29.5 38.5t28.5 43.5q13 21 23 44t16 47q3 19 4.5 38t1.5 39q0 27 -5.5 52.5t-14.5 48.5q-21 38 -58.5 57.5t-89.5 19.5q-57 0 -105.5 -19.5t-87.5 -57.5q-38 -39 -63.5 -83t-37.5 -95
q-5 -20 -7 -39t-2 -37q0 -26 3 -50t11 -46q18 -38 50.5 -61t79.5 -32q-3 -21 -7.5 -41t-8.5 -38q-6 -19 -12 -38.5t-12 -40.5h-229q-8 0 -12.5 0.5t-5.5 3.5q-3 1 -4 5t1 10q3 21 8 42t11 44q4 21 8 42.5t7 42.5q0 10 5.5 16t15.5 7q6 0 9 -5t2 -16q-1 -6 -1 -11v-9
q-1 -5 -1 -9.5v-7.5q0 -33 6 -53t19 -28q16 -7 43 -10t66 -3h30l14 71q-47 6 -83.5 30.5t-61.5 68.5q-18 27 -26 58t-8 64q0 15 2 32.5t7 37.5q6 28 18.5 56t31.5 55q18 26 39.5 50t47.5 46q55 43 116.5 65t128.5 22q69 0 120 -22.5t85 -65.5q20 -30 30.5 -63t10.5 -69
q0 -19 -2 -37.5t-5 -36.5v0z" />
    <glyph glyph-name="alpha" unicode="&#x3b1;" horiz-adv-x="950" 
d="M458 459q2 -3 4.5 -5.5l5.5 -5.5q1 -3 2.5 -7t1.5 -8q0 -3 -0.5 -5t-1.5 -5q0 -2 -1 -4.5t-1 -5.5q-3 -6 -5.5 -13t-4.5 -13q-7 -12 -14 -23.5t-13 -21.5q-8 -12 -13.5 -23t-9.5 -21v1q-3 -3 -4.5 -6t-2.5 -6q-2 -4 -5 -7l-6 -6h1q-2 -2 -3.5 -4.5t-2.5 -5.5
q-3 -4 -5 -6.5t-2 -3.5q-5 -9 -9 -17.5t-7 -17.5q-4 -8 -8 -16.5t-7 -16.5q-9 -18 -12.5 -37t-1.5 -40q3 -30 17 -44t38 -12q21 0 27.5 -6.5t0.5 -19.5q-9 -16 -23 -21.5t-33 -0.5q-21 3 -38 9.5t-29 17.5q-3 5 -5.5 11t-4.5 13q-3 6 -6 11.5t-4 11.5q-12 -12 -35 -28
t-57 -37h1q-15 -9 -29.5 -13.5t-27.5 -4.5q-18 0 -35.5 5t-33.5 16q-30 22 -43 55.5t-13 78.5q1 43 13.5 86.5t36.5 86.5q20 34 48.5 64t65.5 55q18 13 37 20t40 7q15 0 29.5 -4.5t29.5 -13.5q17 -10 28.5 -25t17.5 -35q4 -11 7 -20.5t5 -17.5q0 -9 1 -16.5t2 -13.5l6 -1
v0.5v0.5q0 1 0.5 1.5l1.5 1.5l0.5 1t1.5 1q1 6 3 12t5 12q1 5 4 11l6 12q4 5 7.5 10t6.5 11q1 4 2.5 8.5t3.5 7.5q2 8 5.5 17.5t9.5 21.5q7 9 16 11t18 -4v0zM282 194q9 28 17.5 61t16.5 71q4 37 -5 61t-33 35q-24 10 -49.5 0t-51.5 -40q-11 -15 -20 -31t-18 -31
q-10 -17 -18.5 -32t-14.5 -28q-9 -14 -15 -28t-9 -29q-5 -16 -8 -32t-5 -31v1q-8 -33 -0.5 -55t30.5 -34q9 -5 18 -7t17 -2q10 0 20.5 2.5t20.5 8.5q9 5 17 12.5t16 17.5q13 14 25 28t21 29q9 13 15.5 26.5t12.5 26.5v0z" />
    <glyph glyph-name="beta" unicode="&#x3b2;" horiz-adv-x="950" 
d="M471 475q-7 -27 -20.5 -46.5t-32.5 -31.5q-21 -14 -35 -22t-20 -11q3 -5 6.5 -10.5t8.5 -13.5q4 -7 10 -16t13 -19q9 -22 13 -47.5t3 -53.5q0 -37 -11 -72t-32 -68q-12 -16 -25.5 -28t-26.5 -21q-15 -10 -31 -15t-34 -5q-18 -1 -33.5 0.5t-28.5 5.5q-15 3 -26 9.5
t-19 15.5q-18 17 -31 35t-22 37q-3 -11 -5.5 -25t-3.5 -32q-3 -19 -5 -37.5t-3 -36.5q-5 -29 -10 -49.5t-11 -33.5q-8 -12 -16.5 -17.5t-17.5 -2.5q-13 3 -19 12t-6 24q0 3 0.5 6.5t1.5 6.5q0 4 1 7.5t2 7.5q0 8 1.5 14.5t3.5 11.5q6 21 18 75.5t30 143.5q5 21 11 44l12 46
t12.5 47.5t13.5 49.5q12 49 27 101t33 107q10 22 21.5 41.5t23.5 36.5q12 16 24 27.5t25 19.5q9 3 16.5 5t15.5 4q6 0 14 1t17 1q16 0 32.5 -4.5t33.5 -11.5q27 -13 45.5 -34t29.5 -50q3 -9 6.5 -17.5t6.5 -17.5q2 -9 3.5 -18t1.5 -18q0 -4 -0.5 -7.5t-0.5 -7.5v-6.5v-6.5
q-2 -8 -4.5 -15.5t-6.5 -14.5v0zM415 530q0 27 -3.5 48.5t-11.5 38.5q-9 15 -22 26.5t-31 18.5q-9 4 -18.5 5t-19.5 -1q-12 -3 -23 -9t-23 -14q-8 -9 -15.5 -20t-15.5 -23q-9 -14 -15 -28t-9 -27q-9 -26 -17 -53.5t-15 -55.5q-5 -15 -9.5 -30.5t-9.5 -30.5q-4 -16 -9 -32.5
t-10 -33.5q-15 -69 -20.5 -110.5t-2.5 -56.5t13.5 -31t30.5 -33q18 -17 39.5 -24.5t45.5 -4.5q30 3 52 21.5t37 51.5q11 35 17 64t7 53q0 9 -1 18.5t-3 18.5q-3 9 -6 17l-6 16q-5 8 -7.5 15t-2.5 13q-2 4 -3.5 8t-2.5 7q-3 -1 -9 -1h-14q-9 0 -18 0.5t-18 2.5
q-12 3 -21.5 7.5t-17.5 12.5q-9 6 -13 12.5t-2 13.5q3 17 13.5 23t27.5 0q11 -6 20 -9t17 -4q6 -2 13 -3.5t16 -2.5q10 -3 24 4.5t32 25.5q16 18 26.5 42t13.5 54v0z" />
    <glyph glyph-name="gamma" unicode="&#x3b3;" horiz-adv-x="950" 
d="M458 466q5 -6 8 -12.5t3 -12.5q0 -10 -4.5 -22t-13.5 -27q-2 -2 -2.5 -3t-0.5 -2q-1 -1 -1.5 -2t-1.5 -1q0 -1 -0.5 -1.5l-0.5 -0.5q-12 -12 -22 -25t-19 -25q-11 -14 -20 -27t-17 -25q-9 -11 -16.5 -20t-13.5 -17q-7 -8 -13 -15t-10 -13q-11 -14 -16.5 -23t-6.5 -14
q-5 -8 -10 -17t-11 -19q-7 -12 -13 -25.5t-10 -28.5q-6 -14 -11.5 -26t-9.5 -24q-6 -12 -10 -24t-7 -22q0 -3 -0.5 -5.5t-0.5 -5.5t-0.5 -5.5t-0.5 -5.5q-2 -5 -3.5 -10t-2.5 -11q-11 -22 -22.5 -38.5t-23.5 -28.5q-13 -12 -25 -15t-22 2q-12 5 -16.5 16t-2.5 28
q2 18 8.5 34.5t17.5 32.5q1 3 3.5 7t4.5 8t4.5 8.5t5.5 9.5q4 9 11.5 20.5t18.5 26.5q5 12 10 23t11 20q4 8 6.5 14t3.5 11q0 2 1 11t2 26q0 15 0.5 38.5t2.5 55.5q0 32 -4 58t-13 47q-11 19 -25.5 31.5t-32.5 18.5q-16 5 -29.5 5.5t-23.5 -2.5q-12 -5 -19.5 -14t-10.5 -22
q-14 -26 -23.5 -36t-15.5 -4q-2 5 3 23t19 50q14 33 39.5 49t63.5 13q48 -4 74.5 -40.5t29.5 -105.5q0 -35 0.5 -61t1.5 -43q0 -18 1.5 -26t4.5 -5q1 1 7 9.5l18 25.5q10 15 23.5 35.5t28.5 44.5q9 18 18.5 35t20.5 34q9 16 17.5 32t16.5 31q10 18 20.5 27t20.5 9
q7 0 14.5 -3t13.5 -9v0z" />
    <glyph glyph-name="delta" unicode="&#x3b4;" horiz-adv-x="950" 
d="M463 482q-6 -6 -11.5 -8.5t-11.5 -2.5q-12 0 -20 6t-12 19l-13 26t-16 29q-10 13 -21.5 28t-24.5 30q-8 10 -16.5 19t-17.5 16q-11 6 -21 9.5t-19 3.5t-16 -5.5t-12 -14.5q-4 -4 -6.5 -7.5t-2.5 -6.5q-2 -4 -2 -8v-7q0 -17 8 -36t25 -40q13 -16 26 -31l26 -30l24 -30
t26 -30q12 -15 23.5 -33t20.5 -39q9 -23 13.5 -46.5t4.5 -47.5q0 -18 -2.5 -35.5t-5.5 -35.5q-14 -45 -37 -81.5t-56 -63.5q-27 -19 -54 -28t-54 -9h-10.5t-11.5 1q-6 0 -12.5 1t-13.5 2q-21 7 -40 18t-35 26q-18 14 -30 30.5t-18 36.5q-5 11 -9 23.5t-7 27.5q-5 13 -7 26
t-2 25q0 8 1 17t4 18q1 9 3.5 18t5.5 18q5 19 12.5 38t18.5 37q9 17 21 31.5t27 26.5q28 27 62.5 39t76.5 10q-5 5 -10 11.5t-11 15.5q-7 7 -12 15t-8 17q-6 7 -11.5 16.5t-9.5 21.5q-6 10 -8 21.5t-2 23.5q0 7 1 14.5t4 16.5q1 7 5.5 14.5t12.5 13.5q13 22 29.5 34t36.5 12
q10 0 18.5 -2t15.5 -5q18 -6 33 -13t29 -16q12 -10 24.5 -20.5t25.5 -21.5q11 -17 24.5 -37.5t28.5 -44.5v-1q7 -14 11 -24.5t4 -17.5q0 -9 -3 -15t-9 -9v0zM333 193q0 5 1 10.5t2 11.5l2 12t3 12q1 10 2 21.5t1 23.5q0 3 -0.5 6t-0.5 6v6v6q-1 6 -2 11t-1 10
q-4 36 -23 58.5t-53 31.5q-8 2 -15 3.5t-14 1.5q-23 0 -42 -10.5t-34 -29.5q-12 -14 -21.5 -28t-15.5 -29q-7 -16 -14 -32.5t-13 -33.5q-6 -23 -9 -45.5t-3 -44.5v-12t1 -12q0 -6 0.5 -13t2.5 -13q2 -15 8.5 -28.5t17.5 -24.5q10 -12 23.5 -20.5t30.5 -12.5q2 -2 6 -3t10 -1
q4 -1 9 -1h10q21 0 39 9.5t35 29.5q7 12 15.5 26.5t17.5 31.5q8 15 14 31.5t10 34.5v0z" />
    <glyph glyph-name="epsilon" unicode="&#x3b5;" horiz-adv-x="950" 
d="M445 103q-6 -15 -13 -28t-14 -23q-9 -12 -19.5 -21t-23.5 -15q-14 -8 -27.5 -13t-26.5 -8q-15 -3 -31 -4.5t-33 -1.5q-45 0 -80.5 9t-62.5 27q-32 17 -47.5 42.5t-15.5 60.5q0 22 8 41t26 36q16 15 37 25.5t45 15.5v9q-21 5 -38.5 14.5t-29.5 23.5q-14 12 -20.5 30
t-6.5 41q0 24 11.5 45.5t35.5 39.5q22 18 53.5 27t70.5 9q31 0 61 -4.5t60 -13.5q26 -9 42 -27.5t22 -47.5q2 -11 1 -18.5t-4 -11.5q-5 -6 -10 -9.5t-11 -4.5q-12 -2 -20.5 0.5t-13.5 8.5q-6 6 -9.5 14.5t-3.5 20.5q-1 6 -4.5 11t-9.5 10q-8 12 -18 19.5t-22 10.5
q-14 3 -28 4.5t-29 1.5q-22 0 -39.5 -6.5t-30.5 -18.5q-15 -13 -21.5 -28.5t-6.5 -33.5q0 -11 3 -21t10 -19q6 -11 15 -20t22 -17q6 -6 15 -9.5t20 -3.5q9 -2 22 -2t28 1h15q1 0 3 -0.5t5 -0.5q2 0 5 -0.5t6 -0.5l12 -6q1 -3 2.5 -6t1.5 -6q0 -10 -10 -14.5t-29 -2.5h-7.5
h-7.5q-3 0 -6 0.5t-6 0.5h-13q-27 -1 -49.5 -8.5t-40.5 -20.5q-19 -15 -28 -34t-9 -41q0 -26 9.5 -46t29.5 -33q18 -15 44.5 -21.5t61.5 -6.5q13 0 25 1.5t23 5.5q10 3 19 11t18 20q0 1 1 3.5t2 4.5t2 5t3 6q1 5 2 10.5t1 11.5q-1 9 1 18.5t8 19.5q4 9 13.5 12t23.5 2
q7 -3 13.5 -7.5t11.5 -11.5q4 -8 5.5 -16t0.5 -17z" />
    <glyph glyph-name="zeta" unicode="&#x3b6;" horiz-adv-x="950" 
d="M442 619q3 -6 3.5 -11.5t-0.5 -11.5q-3 -6 -7.5 -12.5t-11.5 -12.5q-5 -7 -12 -13.5t-16 -12.5q-6 -4 -11 -7.5t-9 -6.5q-5 -3 -9.5 -6t-8.5 -6q-18 -12 -39.5 -20.5t-45.5 -12.5q-28 -6 -44 -9t-20 -3q-3 -6 -9 -15.5t-15 -23.5q-6 -8 -12 -16.5t-13 -18.5t-14.5 -20.5
t-16.5 -22.5q-24 -38 -35.5 -72t-11.5 -65q0 -14 1.5 -25.5t5.5 -20.5q9 -23 21 -39t27 -25q15 -11 34.5 -15t43.5 -1q49 6 78 -17.5t38 -74.5q5 -32 -5.5 -57t-35.5 -43q-29 -19 -58 -28.5t-59 -9.5q-19 0 -35.5 2t-31.5 5q-16 5 -23.5 13t-7.5 19q0 6 3 11.5t11 11.5
q6 6 17.5 8t28.5 1q3 0 6 -0.5t6 -1.5q4 0 7.5 -1t8.5 -1q7 -1 18 -2.5t25 -4.5q31 -6 49 3.5t23 33.5q5 21 -6.5 32.5t-39.5 14.5q-29 1 -52.5 4t-41.5 9q-29 7 -50 22t-34 36q-11 24 -15.5 47t-4.5 46q0 49 13.5 97t40.5 94q8 12 15.5 22.5t13.5 20.5q7 9 13 17.5t11 16.5
q4 7 8 13t7 11t5.5 9.5t4.5 7.5q-3 1 -7 4t-10 6q-8 2 -14 6.5t-12 12.5q-15 10 -22.5 27.5t-5.5 41.5q0 26 15.5 50.5t45.5 47.5q10 9 20.5 16t19.5 11q9 3 15 2t11 -5q7 -7 8 -14.5t-5 -15.5q-7 -9 -14.5 -17.5t-16.5 -16.5q-21 -17 -31.5 -33t-10.5 -31q0 -14 4.5 -24
t15.5 -16q9 -5 17.5 -4.5t16.5 5.5q6 4 16.5 11.5t25.5 18.5q1 2 4 4t6 5q3 1 7 2.5t10 3.5q7 6 16 13t21 13q10 6 24 12t31 12q3 1 8 3t12 4q6 1 11 2t9 1q9 0 17 -5t16 -14v-1z" />
    <glyph glyph-name="eta" unicode="&#x3b7;" horiz-adv-x="950" 
d="M405 162q-14 -31 -23.5 -57t-15.5 -47q-3 -6 -4.5 -11t-2.5 -11l-6 -12t-6 -11l-5.5 -16.5t-3.5 -13.5q-3 -6 -4.5 -13t-1.5 -16q-2 -3 -3.5 -6t-2.5 -7q-2 -3 -4 -7l-4 -8q-6 -8 -11 -17.5t-10 -20.5q-9 -18 -20.5 -23.5t-26.5 2.5q-17 9 -21.5 20.5t3.5 25.5q2 9 5 17
t7 17q1 4 2.5 8.5t3.5 9.5q1 5 3 10l4 10q3 6 8 17t13 29q6 17 15 36.5t20 42.5q4 10 8 20.5t8 21.5t8.5 22t9.5 23q3 10 6.5 20.5t7.5 19.5q3 9 5.5 17.5t5.5 16.5q0 2 0.5 5.5t1.5 6.5q1 4 1.5 8.5t1.5 10.5v9.5t1 11.5q0 5 1 11.5t2 13.5q3 27 -6.5 45.5t-30.5 29.5
q-9 4 -20 7t-24 3q-20 0 -35.5 -8.5t-27.5 -23.5q-14 -15 -25 -29t-18 -27q-9 -14 -15.5 -28.5t-10.5 -29.5q-3 -16 -8.5 -34.5t-11.5 -39.5q-8 -22 -14 -47t-11 -53q-17 -55 -35.5 -78.5t-39.5 -15.5q-9 3 -13.5 11.5t-4.5 23.5q0 7 1.5 17t5.5 22q3 11 8 24t13 28
q32 54 47 110.5t12 115.5q-3 33 -18 48.5t-41 12.5q-18 -5 -23.5 0.5t3.5 20.5q6 15 19 20.5t33 2.5q21 -5 37.5 -11.5t28.5 -15.5q3 -5 6.5 -11t6.5 -13q1 -9 3 -16.5t5 -13.5q14 15 33.5 32.5t45.5 35.5q14 8 29 12.5t31 4.5q14 0 32 -6.5t39 -18.5q35 -16 50 -45.5
t11 -72.5q-8 -45 -19 -89t-24 -86v0z" />
    <glyph glyph-name="theta" unicode="&#x3b8;" horiz-adv-x="950" 
d="M429 298q-17 -72 -47.5 -130.5t-73.5 -103.5q-32 -35 -65 -52t-66 -17h-6.5h-6.5q-4 0 -8 0.5t-8 0.5q-21 8 -39 21.5t-33 32.5q-16 18 -26.5 41t-15.5 52q-9 27 -13.5 55.5t-4.5 57.5q0 36 6 73.5t19 78.5q18 73 48 131.5t72 102.5q31 35 64 53t67 18q6 0 14 -2.5
t20 -5.5q20 -6 37 -18t31 -30q13 -19 24.5 -42.5t21.5 -51.5q6 -29 10 -57t4 -56q0 -37 -6.5 -75t-18.5 -77v0zM365 382q5 36 8 70.5t3 67.5q0 6 -0.5 12.5t-0.5 13.5v13.5v13.5q-2 19 -7 35t-13 28q-9 11 -18.5 18t-18.5 10q-32 9 -60 -7.5t-52 -56.5q-26 -41 -47 -95.5
t-38 -122.5h244zM112 346q-12 -45 -17 -85.5t-5 -76.5v-11.5t1 -10.5v-11.5t1 -10.5q2 -21 7 -38t14 -29q7 -14 17.5 -22.5t25.5 -12.5q27 -8 53.5 9.5t53.5 59.5q14 20 26.5 44t23.5 52q9 27 17.5 56t16.5 62q0 1 1.5 4l3.5 7q0 1 0.5 2.5t1.5 3.5t1.5 4t1.5 4h-245z" />
    <glyph glyph-name="iota" unicode="&#x3b9;" horiz-adv-x="950" 
d="M322 76q3 -9 -6 -23t-30 -33q-22 -18 -42.5 -25.5t-39.5 -2.5q-34 6 -53 20.5t-23 38.5q-3 21 -4 38t1 30q0 8 1.5 20.5t6.5 30.5q3 16 9 36.5t15 44.5q1 4 2 9t2 9q1 5 2 9.5t2 9.5q1 7 2.5 14.5t4.5 15.5q4 19 9 32t10 21q6 27 12 47.5t11 35.5q8 14 20 19t27 2
q9 -3 15 -6.5t10 -8.5q3 -6 4.5 -13t1.5 -14q0 -4 -0.5 -7.5t-1.5 -7.5q0 -4 -1 -7.5t-1 -6.5q-3 -9 -5.5 -17t-5.5 -16q-2 -3 -3.5 -5.5t-2.5 -6.5l-4 -8t-4 -9q-6 -11 -9.5 -23.5t-6.5 -25.5q-3 -8 -6 -15.5t-6 -14.5t-5.5 -14.5t-5.5 -14.5q-7 -15 -11.5 -29.5
t-7.5 -27.5q-3 -8 -6.5 -16t-6.5 -16t-6 -16.5t-6 -17.5q-6 -21 4.5 -33t36.5 -15q12 -2 23.5 -2t20.5 3q8 1 14.5 5t12.5 10q10 9 17.5 8t12.5 -11v0z" />
    <glyph glyph-name="kappa" unicode="&#x3ba;" horiz-adv-x="950" 
d="M468 408q-1 -11 -4.5 -19t-9.5 -14q-7 -7 -16 -10.5t-21 -3.5q-4 -1 -8.5 -0.5t-9.5 3.5q-6 1 -10.5 2.5t-6.5 4.5q-5 7 -13.5 8.5t-21.5 -1.5q-8 -4 -13.5 -13.5t-9.5 -24.5q-5 -9 -9.5 -16t-7.5 -13q-4 -6 -6.5 -10t-4.5 -7q-3 -6 -6 -10.5t-7 -7.5q-5 -5 -10.5 -8
t-11.5 -5q-9 -6 -12 -10t0 -7q0 -4 3 -9.5t9 -12.5q12 -11 18 -24t6 -28v-26t2 -20q0 -10 1 -17.5t4 -12.5q0 -6 1.5 -10t5.5 -6q3 -3 8 -5t13 -2q18 -3 32 7t23 33q5 18 14 24t23 0q4 -5 4 -17.5t-5 -32.5q-8 -21 -17.5 -36.5t-19.5 -24.5q-9 -8 -21 -14.5t-27 -10.5
q-16 -5 -31 -6.5t-29 1.5q-17 7 -29 21t-19 34q-5 19 -7 39.5t-2 42.5q0 12 -1 25.5t-2 28.5q-3 7 -6.5 13t-8.5 11q-6 4 -12 6.5t-12 2.5h-28q-1 -3 -2 -5.5t-2 -4.5l-2 -6t-1 -6q-3 -8 -4.5 -17t-2.5 -18l-3 -18q-2 -6 -3.5 -12t-1.5 -12q-1 -3 -1.5 -5t-1.5 -4
q-1 -3 -1.5 -5t-0.5 -4q-2 -6 -3.5 -11.5t-1.5 -11.5q-7 -21 -13 -37.5t-11 -26.5q-5 -11 -15 -14t-26 3q-9 3 -13 10t-4 18q0 6 1.5 14.5t4.5 17.5q0 1 1 3.5t2 5.5q0 1 0.5 2.5t2.5 3.5q2 13 6.5 28.5t10.5 33.5q5 16 11 35t13 40q0 1 0.5 2.5t0.5 2.5q1 2 1.5 4t1.5 5v3
v4t0.5 4t1.5 5q0 4 1.5 8.5t3.5 9.5q0 1 0.5 3.5t1.5 4.5q0 2 1 4.5t2 5.5q6 12 10.5 24t8.5 26q1 6 2.5 12t2.5 12t2.5 12.5t3.5 12.5q0 12 3 27t8 33q6 16 15 23t23 5q18 -3 27 -11t9 -21q0 -11 -3 -24.5t-8 -31.5l-13 -26q-5 -9 -9.5 -17.5t-8.5 -17.5q0 -4 -1 -7t-1 -5
q-2 -3 -3 -5.5t-1 -4.5q-3 -6 -4.5 -10t-1.5 -5q-2 -3 -1 -3.5t4 -0.5h34q15 0 27 6t23 19q9 12 21.5 29.5t27.5 41.5q12 25 26 44.5t29 32.5q14 12 31.5 16t38.5 1q11 -3 20.5 -7.5t17.5 -10.5q7 -8 10.5 -19t3.5 -25z" />
    <glyph glyph-name="lambda" unicode="&#x3bb;" horiz-adv-x="950" 
d="M417 5q-17 -13 -30 -10t-22 22q-15 21 -26.5 47.5t-18.5 56.5q-6 15 -10.5 31.5t-5.5 34.5q-3 16 -5 34t-2 38v23q-1 5 -1 10v11q-1 11 -1 22.5v23.5v37q-4 -10 -11.5 -24.5t-17.5 -33.5q-12 -21 -26 -42.5t-29 -44.5v1q-25 -47 -44 -88t-31 -75q-4 -11 -8 -20t-7 -18
q-5 -9 -10.5 -16.5t-12.5 -13.5q-6 -8 -11.5 -12.5t-9.5 -6.5q-6 -2 -13 -1.5t-14 2.5q-8 1 -11.5 8t-3.5 20q0 3 0.5 7.5t2.5 10.5q1 5 2 11l2 12q6 15 12 28.5t13 26.5q6 12 11 22.5t9 20.5v-1q15 21 29.5 42.5t29.5 45.5q14 22 30.5 46.5t36.5 50.5q18 24 32.5 43
t25.5 33q10 13 16 21.5t8 11.5l1 3.5t1 10.5q-1 6 -1 15v21q0 23 -6.5 42t-18.5 34q-13 12 -25.5 20t-24.5 11q-6 1 -10 2.5t-7 4.5q-4 1 -7.5 4t-6.5 7q-6 2 -10 5.5t-5 9.5q-3 4 -3.5 8.5t-0.5 10.5q0 4 0.5 8.5t2.5 9.5q0 3 2 7t5 7q9 7 17 11t15 4q12 0 23.5 -5
t22.5 -14q14 -9 25.5 -18.5t20.5 -19.5q8 -12 14 -23t11 -21q3 -16 6 -31t6 -28q1 -15 1.5 -28t0.5 -25q-2 -6 -2 -12v-11q-1 -3 -1.5 -6t-0.5 -6v-4.5v-3.5v-8q-1 -3 -1 -5v-2q-1 -5 -1 -10.5v-12.5v-58q-1 -8 -1 -15.5v-14.5q0 -44 8 -82.5t26 -72.5q4 -16 10 -30.5
t14 -27.5q6 -15 11.5 -27t10.5 -22q0 -5 1 -9.5t3 -8.5q1 -6 2 -9.5t1 -5.5q0 -9 -2 -15.5t-5 -11.5z" />
    <glyph glyph-name="uni03BC" unicode="&#x3bc;" horiz-adv-x="950" 
d="M465 69q0 -16 -6.5 -29t-18.5 -22q-15 -12 -30 -15t-29 2q-8 3 -15.5 9.5t-15.5 15.5q-9 8 -14 15.5t-5 15.5q-9 -9 -21 -19t-25 -20q-17 -11 -37 -16t-44 -5q-12 0 -21 1.5t-15 4.5q-7 2 -14 5t-14 7q-6 3 -10.5 7.5t-7.5 9.5q-4 3 -7 7l-6 8l-1.5 -1.5t-0.5 -1.5v-1.5
v-0.5q-1 -2 -1.5 -4t-0.5 -4q-5 -7 -8.5 -17t-5.5 -22q-3 -14 -5.5 -31.5t-3.5 -38.5q-2 -11 -4 -20.5t-5 -16.5t-7.5 -12.5t-9.5 -9.5t-8 -6.5t-5 -3.5h-6t-5 2q-15 4 -21.5 15t-6.5 29q0 3 0.5 9t2.5 14q0 8 2.5 16t5.5 17q9 22 19 41t19 34q13 16 21 34t10 36v3t1 6
q1 3 1.5 7.5t2.5 10.5q1 10 3.5 25.5t6.5 36.5q2 9 4.5 19t4.5 19q3 10 5 19.5t5 18.5q1 8 2.5 16.5t2.5 16.5q2 8 3 15.5t3 15.5t6.5 18.5t11.5 23.5q6 12 11 26t11 30q6 14 13.5 23t16.5 14q8 3 17.5 2.5t20.5 -6.5l9 -12q1 -5 2.5 -9.5t1.5 -9.5q0 -3 -0.5 -6.5
t-1.5 -6.5q0 -4 -1 -8t-1 -8q-2 -5 -3.5 -9.5t-3.5 -9.5q-1 -5 -3 -10t-3 -9q-11 -21 -18.5 -38t-11.5 -32q-6 -16 -12.5 -29.5t-13.5 -23.5q-5 -13 -9.5 -24.5t-8.5 -21.5q-4 -11 -7.5 -20.5t-6.5 -17.5q-8 -18 -13 -31.5t-7 -20.5v-12q0 -5 7 -13.5t21 -20.5q9 -14 25 -18
t37 1q19 3 35 11.5t28 21.5q10 12 19.5 25.5t17.5 28.5q2 6 5 16t6 22t5 25.5t5 30.5q3 16 7.5 31.5t10.5 30.5q2 6 4 12.5t4 13.5q2 6 4 12.5t4 12.5q2 8 5 17.5t7 21.5q3 10 8.5 22t14.5 25q9 23 22.5 31.5t30.5 2.5q6 -4 9 -12.5t3 -21.5q0 -8 -1 -14.5t-1 -12.5
q-2 -7 -4 -14.5t-5 -16.5q-11 -41 -23.5 -75.5t-25.5 -61.5q-3 -5 -5.5 -10t-4.5 -10t-4.5 -10l-4.5 -9q-6 -11 -10 -22t-6 -21q-9 -24 -10.5 -39t3.5 -21q6 -12 15.5 -17.5t24.5 -5.5q4 0 8 0.5t9 3.5q1 0 3 1t5 2q2 1 5 2t7 3q9 11 13.5 8.5t6.5 -18.5z" />
    <glyph glyph-name="nu" unicode="&#x3bd;" horiz-adv-x="950" 
d="M411 467q3 -1 5 -11t2 -28v-35l-3 -42q-5 -27 -11.5 -53t-15.5 -50q-11 -26 -24 -48t-28 -40q-18 -24 -38.5 -44t-41.5 -37q-23 -18 -45.5 -32.5t-44.5 -23.5q-50 -21 -78.5 -26t-35.5 4q-6 7 -2.5 19.5t15.5 30.5q4 8 9 20t10 28q3 15 9 33t14 39q9 44 14 75.5t5 50.5
v38l-3 33q-5 16 -8 32t-4 31q-2 6 -0.5 12t5.5 12q3 4 6.5 8t8.5 7q15 3 25.5 -5t18.5 -27q12 -22 17 -47t4 -53q-2 -16 -5 -33t-8 -35q-3 -10 -6.5 -20.5t-6.5 -20.5l-6 -22l-6 -22q-17 -42 -25 -65t-8 -27v-1.5t1 -0.5v-1.5t1 -0.5q-2 -6 2.5 -6t13.5 6l9 4.5l11 5.5t13 7
t16 9q12 7 25.5 17t29.5 23q15 12 28 26t25 30q18 23 33 46.5t27 47.5q10 23 15.5 44.5t7.5 42.5q1 39 8.5 57.5t19.5 17.5z" />
    <glyph glyph-name="xi" unicode="&#x3be;" horiz-adv-x="950" 
d="M429 548q-6 -18 -23.5 -24t-47.5 0h1q-36 6 -66.5 8.5t-55.5 2.5q-13 -1 -23.5 -2.5t-19.5 -3.5q-9 -3 -16.5 -7t-12.5 -8q-9 -6 -15 -12.5t-9 -13.5q-5 -9 -6.5 -18.5t0.5 -19.5q5 -30 21 -44t43 -11q25 3 47 4.5t40 1.5t38.5 -3t43.5 -8q19 -6 28 -17.5t8 -28.5
q-2 -8 -6 -13t-10 -8q-8 -3 -19 -4.5t-24 0.5l-42 6q-6 0 -13 1t-15 2q-9 0 -16 0.5t-11 1.5q-39 6 -70 -4.5t-53 -37.5q-24 -26 -34.5 -57.5t-7.5 -67.5q2 -21 11 -37.5t26 -26.5q15 -12 36.5 -17t48.5 -3q22 0 40.5 -5.5t33.5 -15.5q13 -12 22.5 -28t15.5 -37
q0 -20 -3.5 -36t-12.5 -29t-24 -23t-34 -17q-18 -9 -33.5 -13t-27.5 -4q-11 0 -17.5 5.5t-9.5 17.5q0 6 2 10.5t7 8.5q4 4 12.5 6.5t22.5 2.5q25 0 38 11t15 33q0 18 -11 27t-33 12q-9 0 -18 1.5t-18 4.5q-11 1 -22 3.5t-21 6.5q-15 5 -26.5 12t-19.5 16q-9 8 -17 17t-15 20
q-5 9 -8.5 20t-4.5 23q-3 10 -3.5 21.5t-0.5 23.5q0 42 11.5 74t32.5 53q8 11 17 20.5t18 17.5q9 6 18 11.5t18 10.5q-6 3 -10 7.5t-7 10.5q-5 5 -9.5 11t-9.5 14q-3 3 -5.5 8.5t-4.5 11.5q-3 6 -4.5 12t-1.5 14v5.5t1 9.5q0 4 2 9t5 10q2 9 5 17.5t8 16.5q3 6 7.5 11.5
t10.5 8.5q7 4 12.5 8t10.5 8q3 3 5.5 6t4.5 6q0 2 1.5 15.5t4.5 39.5q3 24 21 42.5t53 32.5q13 3 27.5 5.5t29.5 2.5q10 0 17 -2t10 -5q3 -4 4.5 -9t3.5 -11q0 -8 -3 -12.5t-10 -6.5q-8 -3 -19 -4.5t-25 0.5q-18 0 -31.5 -2t-22.5 -7q-11 -6 -15.5 -16t-2.5 -22
q0 -6 3.5 -10t9.5 -5q5 -3 11 -3t14 2q3 0 7.5 0.5t8.5 1.5q5 1 10 1.5t11 1.5h10.5h11.5q5 0 11.5 0.5t13.5 1.5q19 0 37.5 -3t36.5 -9q16 -6 21.5 -16t-0.5 -22v0z" />
    <glyph glyph-name="omicron" unicode="&#x3bf;" horiz-adv-x="950" 
d="M439 177q-13 -50 -39 -88t-65 -63q-24 -18 -50 -26.5t-53 -8.5q-12 0 -26.5 1t-30.5 4q-45 13 -76.5 40.5t-50.5 69.5q-11 25 -16 52t-5 57q0 18 2 36.5t8 36.5q12 49 36 87t60 65q27 18 54.5 27t55.5 9q10 0 23 -2.5t28 -5.5q42 -14 73.5 -41t51.5 -68
q15 -28 22.5 -56.5t7.5 -56.5q0 -4 -0.5 -8t-0.5 -8t-0.5 -8.5t-0.5 -8.5l-4 -18l-4 -18v0zM363 197q6 22 9 44.5t3 45.5q0 15 -1.5 29.5t-4.5 28.5q-5 16 -12 30.5t-16 26.5q-11 11 -24 19t-28 13q-9 2 -18 3.5t-18 1.5q-23 0 -43 -10.5t-37 -29.5q-23 -27 -38.5 -60
t-22.5 -70q-9 -23 -12.5 -45.5t-3.5 -44.5q0 -16 2 -31t8 -28q7 -36 26 -57.5t51 -30.5q10 -3 18.5 -4t14.5 -1q12 0 23.5 2.5t22.5 8.5q9 4 17.5 11.5t14.5 17.5q12 12 22 27t18 33q3 8 6.5 16.5t7.5 16.5q4 9 7.5 18t7.5 19v0z" />
    <glyph glyph-name="pi" unicode="&#x3c0;" horiz-adv-x="950" 
d="M470 436q-1 -9 -2.5 -15.5t-3.5 -10.5q-2 -3 -3.5 -5.5t-2.5 -4.5q-2 -2 -3 -3.5t-2 -2.5q-5 -3 -10.5 -5.5t-11.5 -2.5q-7 -2 -11.5 -2.5t-7.5 -0.5h-3.5h-3.5q-1 0 -3 0.5t-3 0.5h-8.5h-5.5h-5.5t-3.5 1h-5h-5q-16 0 -24.5 -2t-8.5 -6q-1 -4 -1.5 -9t-1.5 -12
q-1 -6 -2.5 -13.5t-2.5 -16.5q-3 -10 -5 -20t-5 -20q-2 -11 -4.5 -21.5t-5.5 -21.5q-4 -20 -6.5 -36t-3.5 -29q-2 -14 -2.5 -26t-0.5 -21q0 -11 0.5 -18.5t2.5 -11.5q3 -13 9 -22t14 -13q7 -6 14.5 -7t15.5 4q9 2 14.5 2.5t8.5 -0.5q2 -3 3 -7.5t1 -10.5q-2 -14 -11 -23.5
t-26 -14.5q-12 -7 -24 -8.5t-22 3.5q-24 7 -36.5 19t-13.5 30q-3 18 -3.5 32t0.5 26q0 9 2 22t5 31q1 17 4 39t7 49q6 26 11 47t8 38q2 15 3 26.5t1 17.5q0 5 -12 7t-35 2q-23 -2 -36.5 -4t-16.5 -5q-3 -8 -5.5 -18.5t-4.5 -24.5q-2 -8 -3.5 -16.5t-3.5 -17.5
q-1 -9 -3 -19.5t-3 -20.5q-5 -23 -9.5 -44t-9.5 -39q-6 -20 -10.5 -38t-7.5 -34q-8 -26 -19.5 -47t-26.5 -39q-17 -18 -32 -20t-30 11q-2 0 -3 2.5t-1 6.5q-2 3 -3.5 6t-2.5 8q-2 10 4 25.5t20 35.5h-1q1 2 2.5 4.5t3.5 5.5l1 1l2 2q0 1 1 2.5t3 3.5q4 10 11.5 22.5
t17.5 27.5q9 14 16.5 30.5t15.5 36.5q7 15 13.5 36.5t12.5 48.5q4 28 5.5 43.5t0.5 18.5q-3 2 -9.5 3t-16.5 1q-14 -1 -25.5 -4t-21.5 -9t-17 -13t-11 -14q-3 -6 -9 -6.5t-13 5.5q-5 4 0 20.5t20 44.5q6 12 16 21.5t25 16.5q13 6 29 9t34 3q7 -3 17.5 -3.5t22.5 -0.5
q11 -1 22.5 -1h23.5h115q18 0 33.5 1t29.5 4q12 2 24 4.5t24 5.5q15 4 21.5 -4t4.5 -29v0z" />
    <glyph glyph-name="rho" unicode="&#x3c1;" horiz-adv-x="950" 
d="M463 190q-4 -24 -11.5 -45t-19.5 -38q-13 -18 -28 -34t-33 -28q-25 -18 -51.5 -26.5t-54.5 -8.5q-11 0 -23.5 1.5t-27.5 6.5q-23 6 -41.5 17.5t-32.5 27.5q-15 15 -27.5 31.5t-22.5 34.5l-5 -1q-2 -17 -2 -36.5v-40.5q-1 -23 -1 -46.5t1 -50.5q0 -5 -0.5 -9.5t-0.5 -8.5
v-10.5v-10.5q-1 -11 -2 -21.5t-1 -22.5q-3 -20 -12.5 -30t-25.5 -10q-9 3 -16 8.5t-11 11.5q-6 7 -8.5 18t-0.5 26q1 29 7 70t18 94q3 24 7 46.5t8 44.5q3 21 7.5 41t12.5 40q4 18 7.5 33.5t6.5 27.5q1 11 2.5 18.5t3.5 12.5q6 18 16.5 35.5t25.5 34.5q13 15 26.5 28
t28.5 24q12 6 25 12t26 11q12 3 24.5 5.5t26.5 2.5q1 0 3.5 -0.5t5.5 -0.5q2 0 5 -0.5t7 -0.5q3 -1 6 -1.5t6 -1.5t6.5 -1.5t6.5 -0.5q20 -8 37.5 -18t32.5 -22q14 -13 27 -29.5t25 -35.5q10 -26 15.5 -52t5.5 -53q0 -18 -3 -35.5t-7 -33.5v0zM390 209q7 21 11 40.5t4 38.5
q0 8 -1 16t-1 16q-1 3 -1.5 6.5t-1.5 7.5t-1.5 7.5t-0.5 7.5q-10 31 -29.5 52.5t-47.5 32.5q-5 0 -9 1t-8 1q-4 1 -7 1.5t-6 0.5q-22 0 -41.5 -9.5t-37.5 -27.5q-9 -12 -17 -26.5t-16 -29.5q-9 -17 -16 -33.5t-10 -32.5q-8 -20 -11 -40t-3 -41q0 -18 2 -33t8 -27
q3 -17 10 -30.5t18 -23.5q10 -12 21.5 -19.5t23.5 -11.5q8 -3 15.5 -3.5t14.5 -0.5q21 0 41 9t38 28q8 12 16.5 26t17.5 31q7 15 13.5 31.5t11.5 34.5v0z" />
    <glyph glyph-name="sigma" unicode="&#x3c3;" horiz-adv-x="950" 
d="M417 469q15 -8 22 -17t6 -18q-2 -6 -5 -10t-9 -6q-6 -3 -12 -4t-10 0q-12 3 -24.5 5.5t-24.5 4.5q-13 1 -24 2t-20 1q-12 0 -21 -1t-15 -2l1 -6q5 0 11 -1t14 -2q6 -2 13 -4.5t14 -5.5q18 -9 33.5 -22.5t27.5 -29.5q11 -18 18.5 -36t10.5 -36q2 -13 3.5 -24.5t1.5 -21.5
q0 -30 -7 -60.5t-20 -60.5q-12 -21 -25 -37.5t-26 -29.5q-15 -15 -32 -26t-35 -18q-18 -6 -36 -9.5t-34 -3.5q-9 0 -18 1t-19 4q-12 3 -23 7t-23 10q-32 18 -54 45.5t-34 64.5q-3 16 -4 32t-1 33q0 21 3 44t11 47q1 3 4 8t8 13q3 6 8 14t11 17q7 20 27 44t52 52
q26 24 62 36.5t81 14.5q46 0 74 -2t39 -6v0zM334 153q16 30 25 61.5t11 64.5q0 32 -12.5 55t-37.5 37q-15 6 -27 10t-21 4t-17.5 -1.5t-15.5 -4.5q-8 -4 -15.5 -7.5t-13.5 -6.5q-11 -9 -21 -19.5t-20 -22.5q-12 -13 -22.5 -27t-20.5 -29q-15 -33 -22.5 -65t-7.5 -63
q0 -32 13.5 -55.5t42.5 -38.5q9 -7 20.5 -10t26.5 -3q5 0 11.5 1.5t15.5 4.5q7 2 13.5 5.5t12.5 9.5q13 8 25 18.5t24 24.5q10 12 18.5 26t14.5 31v0z" />
    <glyph glyph-name="tau" unicode="&#x3c4;" horiz-adv-x="950" 
d="M455 436q-1 -9 -2.5 -15.5t-4.5 -10.5q-3 -6 -7.5 -9.5t-10.5 -6.5q-5 -3 -9.5 -5.5t-8.5 -2.5q-5 -2 -11 -2.5t-12 -0.5h-3.5h-2.5q-2 0 -3 0.5t-2 0.5h-7.5t-9.5 1h-6h-6q-2 0 -4.5 0.5t-4.5 0.5h-10t-10 1q-15 0 -25.5 0.5t-17.5 0.5q-8 -2 -12.5 -3.5t-5.5 -4.5
q-3 -5 -6.5 -17.5t-7.5 -33.5q-3 -5 -5 -10t-3 -11q-3 -8 -7 -15.5t-8 -14.5q-14 -42 -21.5 -68.5t-9.5 -35.5q-5 -9 -8 -17t-3 -15q-2 -8 -2.5 -14.5t-0.5 -11.5q0 -12 2.5 -20.5t8.5 -12.5q4 -6 9 -9.5t11 -4.5q15 -4 33 -3.5t39 5.5q16 3 24.5 -1t8.5 -14
q-3 -18 -15.5 -30.5t-33.5 -18.5q-23 -8 -39 -11.5t-25 -2.5q-33 1 -51.5 11t-24.5 29q-5 9 -7 18t-2 20q-2 9 -1.5 18t2.5 18q3 12 7.5 28t11.5 37q6 19 13.5 41t17.5 48q19 51 28 82t7 40q-1 4 -14.5 5.5t-39.5 -0.5q-29 -3 -46 -7t-22 -9q-14 -6 -23 -13t-13 -14
q-2 -6 -5 -6.5t-9 5.5q-9 4 -5.5 20.5t18.5 44.5q15 27 43 39t68 11l1 -0.5t2 -0.5t2.5 -0.5t3.5 -0.5q2 -2 3.5 -2h1.5q13 -1 27.5 -1h29.5h102q18 0 33 1t29 4q12 2 21.5 4.5t16.5 5.5q15 4 22.5 -4t6.5 -29z" />
    <glyph glyph-name="upsilon" unicode="&#x3c5;" horiz-adv-x="950" 
d="M440 326q-9 -32 -25.5 -71.5t-39.5 -85.5q-24 -47 -55.5 -82.5t-69.5 -60.5q-9 -8 -20.5 -13.5t-23.5 -8.5q-14 -5 -25.5 -6.5t-20.5 -1.5q-11 0 -20.5 1t-16.5 4q-9 2 -18 5.5t-18 9.5q-36 24 -51 53t-9 63q1 15 4 33.5t7 39.5q3 20 7.5 42t11.5 46q10 30 15.5 60
t7.5 60q0 30 10 44.5t28 14.5q22 -2 33.5 -14.5t11.5 -34.5q-1 -12 -2.5 -23.5t-2.5 -21.5l-5.5 -22t-5.5 -19q-9 -18 -17 -36t-15 -36l-8 -20l-8 -20q-4 -11 -8 -21.5t-8 -21.5q-6 -17 -8 -32t-2 -29q0 -22 8.5 -39.5t26.5 -30.5q9 -9 20 -13t26 -4q6 0 13 1.5t16 4.5
q7 2 14.5 6t14.5 10v-1q31 18 56.5 45.5t44.5 63.5q29 61 44 109t15 84q0 9 -1.5 17.5t-2.5 14.5q-3 9 -4 17t-1 14q0 16 6.5 23.5t21.5 7.5q12 -1 21.5 -11t15.5 -28q7 -12 11.5 -25t4.5 -26q0 -3 -0.5 -5t-0.5 -4v-4v-4z" />
    <glyph glyph-name="phi" unicode="&#x3c6;" horiz-adv-x="950" 
d="M443 192q-14 -45 -37 -79.5t-56 -57.5q-30 -24 -65 -33.5t-76 -3.5l-14 -95q-4 -21 -9.5 -35t-12.5 -20q-8 -6 -17.5 -7t-21.5 3q-8 3 -11.5 10t-3.5 16q0 4 0.5 10t2.5 14q1 8 2.5 16.5t3.5 17.5q0 2 1 4.5t2 5.5q1 2 2 5.5t3 7.5q1 7 3.5 13.5t7.5 11.5q0 5 1.5 10
t3.5 11q0 4 1 8t3 9q-30 12 -55.5 36t-46.5 62q-6 11 -10.5 23.5t-6.5 26.5q-3 13 -4.5 26t-1.5 27q0 8 0.5 16.5t2.5 17.5q0 8 2 17t5 18q12 45 33.5 78.5t53.5 56.5q18 10 35 17.5t34 12.5q16 4 30.5 5.5t28.5 1.5q15 -2 22 -6.5t5 -10.5q-3 -9 -11 -13.5t-22 -5.5
q-21 -3 -41.5 -13.5t-39.5 -28.5q-21 -20 -34 -48.5t-19 -65.5q-5 -23 -7 -42.5t-2 -37.5q0 -45 14 -77.5t44 -53.5q1 16 4.5 32.5t9.5 34.5q4 16 8.5 32t9.5 31q0 2 0.5 4t1.5 5q0 2 1 5l2 6q0 2 0.5 4.5t1.5 4.5t1.5 4.5t1.5 5.5q2 18 5 33t6 27q2 10 3.5 16t2.5 8
q9 31 23.5 56.5t34.5 45.5q8 10 19 15.5t26 5.5q3 0 6.5 -1t8.5 -2q1 -1 3.5 -2t4.5 -2l6 -2l6 -2q9 -9 18 -20t19 -23q9 -14 17 -29t15 -30q9 -20 14.5 -40.5t5.5 -41.5q0 -15 -2.5 -30.5t-5.5 -31.5v0zM366 212q4 22 6.5 42.5t2.5 40.5q0 30 -10 58t-29 55q-21 15 -35 3.5
t-21 -48.5q-3 -9 -5 -17.5t-4 -16.5q-3 -8 -5 -15.5t-3 -13.5q-5 -14 -8.5 -25.5t-4.5 -20.5l-36 -199q29 1 53 12.5t42 34.5q18 21 32 48.5t25 61.5v0z" />
    <glyph glyph-name="chi" unicode="&#x3c7;" horiz-adv-x="950" 
d="M443 455q6 -6 9 -11.5t3 -11.5q0 -7 -3.5 -14t-9.5 -14q-14 -17 -27.5 -28.5t-26.5 -17.5q-6 -5 -13 -10.5t-14 -11.5q-9 -8 -17 -17t-17 -19q-12 -11 -22 -20t-16 -18q-8 -10 -16 -19l-16 -18q1 -11 4 -21.5t7 -20.5q1 -6 2.5 -12t3.5 -12q1 -6 3 -12l4 -12
q5 -28 15.5 -44.5t25.5 -20.5q5 -3 11.5 -3.5t15.5 1.5q7 0 13.5 3t12.5 8q7 12 14.5 15t14.5 -2q4 -7 -1 -20.5t-19 -33.5q-12 -21 -25 -32.5t-26 -13.5h-8.5t-11.5 1q-8 1 -14 3t-10 5q-6 3 -12 8t-11 14q-6 7 -10.5 16.5t-5.5 21.5q-1 1 -1.5 2.5t-0.5 3.5t-0.5 3.5
t-0.5 3.5q-2 3 -3 7.5t-1 10.5q-2 4 -3.5 8.5t-3.5 9.5q-1 4 -3 9.5t-3 11.5q-5 10 -8 20.5t-5 19.5l-3 -3t-1 -2q-2 -3 -3.5 -4.5l-1.5 -1.5q-4 -8 -9 -15t-11 -13q-8 -8 -13 -15t-8 -14q-3 -3 -5 -6t-3 -5q-2 -2 -3.5 -4t-2.5 -3q-4 -5 -8 -8t-7 -5q-2 -2 -2 -2.5v-0.5
q-1 -2 -2 -3l-1 -1l-3 -3q-6 -13 -17 -26.5t-28 -28.5q-6 -8 -13 -11t-14 -3q-8 0 -12.5 3t-7.5 11q-12 12 -12 24t12 23q3 5 8.5 11t13.5 13q7 6 14 12.5t13 14.5l7 7q9 6 21.5 17.5t27.5 26.5q6 7 13.5 14.5t15.5 16.5q8 8 17 16.5t18 17.5q0 3 -1 4.5t-1 3.5h1
q-3 8 -5 17t-3 20q-3 9 -5 19.5t-3 22.5q-1 1 -1.5 2t-0.5 3q-1 1 -1.5 2.5t-0.5 3.5q-2 2 -3 4.5t-1 5.5q-6 28 -12.5 46t-14.5 24q-15 6 -28 4t-22 -11q-12 -11 -18 -13t-6 5q-6 7 -3 20.5t15 33.5q15 20 33 30t38 10q21 -2 35 -10.5t20 -23.5q6 -9 9.5 -17t6.5 -15
q0 -5 1 -8.5t1 -7.5q1 -3 1.5 -6t0.5 -6q0 -5 0.5 -12t2.5 -16q0 -6 0.5 -11.5t1.5 -10.5q0 -6 1 -11.5t2 -11.5q0 -5 0.5 -9.5t1.5 -8.5v-5.5v-4.5t0.5 -4t0.5 -3q3 4 6 9l6 10q4 5 7.5 10t8.5 11l14 20l14 20q8 9 14 17.5t9 14.5l5 10t5 7q15 19 29 34.5t28 27.5
q5 3 10.5 5t11.5 2q4 -2 10.5 -6.5t14.5 -12.5v0z" />
    <glyph glyph-name="psi" unicode="&#x3c8;" horiz-adv-x="950" 
d="M450 476q12 0 15.5 -2.5t0.5 -8.5q-4 -7 -11 -14t-16 -13q-24 -14 -38 -49.5t-17 -92.5q-5 -57 -20 -102t-41 -78q-18 -21 -39 -36t-43 -24q-24 -11 -45.5 -17t-40.5 -7q-1 -2 -1 -3.5v-2.5q0 -2 -0.5 -3l-0.5 -1v-2v-1q-1 -5 -2 -9l-2 -8l-2 -8t-1 -7q-3 -8 -5 -16
t-2 -17q-3 -18 -8 -34t-13 -31q-12 -14 -23 -19.5t-21 -2.5q-9 2 -14.5 6t-8.5 10q-4 6 -5.5 12.5t-0.5 12.5q3 17 11 35t20 38q0 1 0.5 2.5t1.5 3.5q1 1 1.5 3t1.5 5q0 2 0.5 4t1.5 4q0 2 1 4t2 5q0 1 0.5 2l1.5 3q0 1 1 3l2 4q0 3 1 6t3 6q-13 3 -25 9.5t-23 15.5
q-12 8 -22.5 21.5t-19.5 33.5q-3 12 -4 26t-1 29q0 26 7 57.5t22 68.5q10 33 16 58.5t6 43.5q0 14 -3 23.5t-8 14.5q-9 5 -13 11.5t-4 15.5q0 7 6.5 10t19.5 2q9 -1 15.5 -2.5t11.5 -4.5q3 -4 7 -8.5t7 -8.5l12 -21q2 -6 3.5 -12t2.5 -11q1 -15 0.5 -31.5t-3.5 -34.5
q-4 -20 -9 -39.5t-11 -39.5q-3 -15 -5 -29t-4 -27q-3 -15 -4.5 -27t-1.5 -21t0.5 -17.5t2.5 -15.5q2 -11 5.5 -19.5t8.5 -14.5q3 -8 9 -14t14 -10l4 12l4 12t4 12.5t4 12.5q3 11 5 19.5t5 14.5v0.5v0.5q0 1 0.5 1.5t0.5 1.5v0.5t1 2.5v1t1 2l1.5 4l4.5 12q3 7 5.5 17t5.5 24
q1 6 2 12.5t2 14.5q1 7 2.5 15.5t3.5 17.5q1 8 2 16.5t3 18.5q1 9 2.5 19t3.5 21q1 9 3.5 18.5t6.5 20.5q1 5 2.5 10.5t3.5 11.5t4 12.5t4 14.5q4 23 16.5 31t32.5 2q15 -6 21.5 -19.5t3.5 -32.5q-3 -11 -6.5 -22t-6.5 -22q-3 -12 -6.5 -24t-6.5 -24q-8 -18 -14.5 -34.5
t-12.5 -31.5q-8 -17 -12.5 -32t-7.5 -28q-5 -13 -9 -22.5t-7 -16.5q-2 -6 -4 -10t-2 -5q-2 -2 -3.5 -9t-3.5 -19q-3 -14 -6 -29t-6 -31q13 0 26 4.5t25 13.5q10 7 21.5 19t23.5 27q21 24 33 57.5t15 78.5q3 21 7.5 41t10.5 39q4 18 11 34.5t16 31.5q5 5 9.5 11t9.5 12
q3 5 8.5 10t11.5 11q3 2 7 4t7 4q4 2 7.5 4t6.5 4q6 3 14 5t19 3z" />
    <glyph glyph-name="omega" unicode="&#x3c9;" horiz-adv-x="950" 
d="M458 181q-13 -46 -29.5 -81t-37.5 -59q-21 -25 -46 -36.5t-52 -11.5q-18 0 -32 6.5t-24 18.5q-15 12 -23.5 24.5t-10.5 26.5q-5 -7 -11.5 -13t-14.5 -12q-9 -7 -20 -13.5t-24 -12.5q-9 -6 -18 -8.5t-19 -2.5q-11 0 -23 4.5t-25 15.5q-24 22 -36 60t-12 92q1 52 11 97
t28 82q4 15 12.5 28.5t20.5 26.5q10 12 23.5 22t29.5 19q5 3 11 5.5t14 5.5q3 0 5.5 1t4.5 1q2 1 3.5 1.5t3.5 0.5q10 0 16.5 -5t9.5 -14q1 -8 -7.5 -19.5t-27.5 -26.5q-21 -17 -39 -51.5t-34 -86.5q-6 -29 -8.5 -58.5t-2.5 -59.5v-7.5v-6.5v-8.5t1 -6.5q2 -41 14.5 -58
t35.5 -10q31 7 47.5 32t18.5 67q0 20 2 39.5t5 38.5q2 18 5 35.5t6 35.5q2 9 6 18t10 18q5 7 10.5 14.5t11.5 15.5q9 13 19 19t22 4q16 -6 21 -25t-1 -50q-6 -34 -11 -58t-11 -39q-6 -11 -11 -21.5t-10 -21.5q-6 -12 -10.5 -25.5t-5.5 -26.5q-3 -9 -4.5 -18t-1.5 -17
q0 -14 3 -23.5t11 -15.5q21 -15 42 -7t42 38h-1q20 30 32 60.5t17 62.5q3 12 5.5 25t4.5 26q0 6 0.5 11.5t0.5 11.5q0 5 0.5 10.5t0.5 11.5q0 24 -4 45.5t-11 39.5q-3 6 -4.5 13t-1.5 15q-2 6 -2.5 11t-0.5 10q0 10 2.5 17.5t8.5 12.5q15 11 31.5 -8.5t34.5 -70.5
q7 -29 11 -57t4 -55q0 -24 -3 -46t-8 -43v0z" />
    <glyph glyph-name="uni0401" unicode="&#x401;" horiz-adv-x="950" 
d="M230 726h488v-81h-402v-239h387v-81h-387v-268h416v-80h-502v749zM375 912q12 0 21.5 -4.5t18.5 -12.5q7 -9 11 -20t4 -23t-4 -23t-11 -20q-9 -11 -18.5 -16t-21.5 -5q-6 0 -11 1.5t-11 5.5q-6 3 -11.5 6.5t-8.5 8.5q-3 3 -5 8t-4 11q-3 5 -4 11t-1 12q0 12 3.5 23
t12.5 20q7 8 17 12.5t23 4.5v0zM574 912q9 0 18.5 -4.5t18.5 -12.5q8 -9 12.5 -20t4.5 -23t-4.5 -23t-12.5 -20q-9 -11 -18.5 -16t-18.5 -5q-6 0 -11.5 1.5t-9.5 5.5q-6 3 -11 6.5t-8 8.5q-5 3 -8.5 8t-6.5 11q-4 5 -5.5 11t-1.5 12q0 12 4.5 23t13.5 20q8 8 19 12.5t25 4.5
v0z" />
    <glyph glyph-name="uni0410" unicode="&#x410;" horiz-adv-x="950" 
d="M658 175h-366l-18 -50l-18 -50q-11 -26 -21.5 -50.5t-21.5 -48.5h-89q37 97 73.5 193.5t72.5 192.5q35 95 71.5 191t75.5 193h115l74 -192t73 -192q35 -96 72.5 -193t76.5 -193h-94zM327 259h298l-153 385z" />
    <glyph glyph-name="uni0411" unicode="&#x411;" horiz-adv-x="950" 
d="M306 59h220q20 0 37.5 2t32.5 8q14 4 26.5 11.5t24.5 18.5q9 9 15.5 19.5t11.5 24.5q3 12 5.5 26.5t2.5 30.5q0 31 -10 56t-30 45q-21 18 -49.5 27.5t-63.5 9.5h-223v-279zM217 746h507v-83h-418v-241h208q69 0 120 -18.5t83 -54.5q35 -37 50.5 -79t12.5 -90t-23 -85.5
t-56 -64.5q-39 -27 -81.5 -40.5t-90.5 -13.5h-312v770z" />
    <glyph glyph-name="uni0412" unicode="&#x412;" horiz-adv-x="950" 
d="M217 -24v770h320q45 0 81 -12t63 -36q28 -25 45 -55t23 -64v-5v-4t0.5 -4t0.5 -3v-9v-7q0 -27 -7.5 -49t-20.5 -39q-15 -24 -33.5 -42t-41.5 -30q15 -5 36.5 -20.5t50.5 -40.5q26 -26 37.5 -62t8.5 -84t-23 -85.5t-56 -64.5q-39 -27 -81.5 -40.5t-90.5 -13.5h-312z
M306 422h208q33 0 59.5 8t44.5 26q18 16 27 39t9 52q0 26 -9 47t-26 38q-18 15 -44.5 23t-59.5 8h-209v-241zM306 59h220q20 0 37.5 2t32.5 8q14 4 26.5 11.5t24.5 18.5q9 9 15.5 19.5t11.5 24.5q3 12 5.5 26.5t2.5 30.5q0 31 -10 56t-30 45q-21 18 -49.5 27.5t-63.5 9.5
h-223v-279z" />
    <glyph glyph-name="uni0413" unicode="&#x413;" horiz-adv-x="950" 
d="M230 746h507v-83h-418v-687h-89v770z" />
    <glyph glyph-name="uni0414" unicode="&#x414;" horiz-adv-x="950" 
d="M215 59q17 30 30.5 67t24.5 79q9 41 15 88t8 100q1 25 2.5 49.5t2.5 48.5q2 24 3 47l2 46q1 43 2 83.5t1 78.5h409v-687h77v-249h-86v166h-462v-166h-89v249h60zM626 59v604h-227q0 -24 -1.5 -53t-3.5 -65q-3 -36 -5.5 -78t-4.5 -89q-5 -95 -22 -174.5t-47 -144.5h311z
" />
    <glyph glyph-name="uni0415" unicode="&#x415;" horiz-adv-x="950" 
d="M218 746h507v-83h-418v-244h401v-84h-401v-276h431v-83h-520v770z" />
    <glyph glyph-name="uni0416" unicode="&#x416;" horiz-adv-x="950" 
d="M423 746h89v-382q34 45 68 92.5t67 98.5q32 49 65.5 97t68.5 94h101l-229 -335q34 -55 70 -109.5t75 -108.5q37 -55 74 -109l74 -108h-113l-240 353l-81 -116v-237h-89v236l-79 117q-27 -42 -56 -86t-60 -90q-32 -47 -62 -91t-58 -86h-108l291 435l-117 168
q-30 42 -60.5 83.5t-60.5 83.5h110l260 -384v384z" />
    <glyph glyph-name="uni0417" unicode="&#x417;" horiz-adv-x="950" 
d="M303 163q1 -11 5 -21t10 -20q5 -12 11 -22.5t13 -20.5q16 -21 46 -31t74 -10q18 0 34.5 3t31.5 10q13 6 26 13t26 16q7 11 14.5 24t14.5 28q6 13 9.5 28.5t3.5 32.5q0 12 -3 23.5t-8 23.5q-6 10 -12.5 19.5t-12.5 18.5q-6 7 -13.5 14.5t-16.5 13.5q-10 6 -20.5 10.5
t-22.5 7.5q-8 2 -17.5 3.5t-20.5 1.5h-58v84q12 0 25 0.5t28 2.5q13 0 23.5 3t18.5 8q20 9 35.5 22.5t27.5 30.5q10 15 15.5 34.5t5.5 43.5q0 25 -8.5 47.5t-24.5 41.5q-18 18 -44 27t-61 9q-39 0 -66 -9t-42 -27q-12 -18 -19 -36t-7 -36h-90q0 21 3.5 40t11.5 37
q7 16 18.5 31.5t28.5 29.5q18 12 37.5 22.5t40.5 18.5q20 6 41 10t44 4q52 0 94 -16.5t74 -47.5q34 -32 52 -68t18 -78t-10 -73t-29 -52q-20 -21 -38 -35t-33 -20q29 -14 52.5 -32.5t41.5 -42.5q17 -25 26 -53.5t9 -60.5q0 -51 -17.5 -93t-51.5 -75q-36 -33 -83.5 -50
t-104.5 -17q-56 0 -100 14t-77 42q-34 27 -52 65.5t-20 87.5h93z" />
    <glyph glyph-name="uni0418" unicode="&#x418;" horiz-adv-x="950" 
d="M293 -24h-105v770h89v-634q45 77 91.5 156.5t94.5 161.5q46 81 94 160t96 156h105v-770h-89v637z" />
    <glyph glyph-name="uni0419" unicode="&#x419;" horiz-adv-x="950" 
d="M293 -24h-105v770h89v-634q45 77 91.5 156.5t94.5 161.5q46 81 94 160t96 156h105v-770h-89v637zM638 899q-5 -15 -11 -27.5t-13 -23.5q-9 -12 -17.5 -22.5t-16.5 -18.5q-14 -10 -27 -17t-26 -10q-14 -5 -28 -7t-28 -2q-29 0 -54 9t-47 27q-23 18 -39.5 40.5t-26.5 51.5
h71q6 -15 15.5 -26t24.5 -18q13 -9 27 -12.5t29 -3.5t29 3.5t28 12.5q13 7 24 18t20 26h66z" />
    <glyph glyph-name="uni041A" unicode="&#x41a;" horiz-adv-x="950" 
d="M271 243v-267h-93v770h93v-380q44 46 89 94t91 98q45 48 90 95t90 93h119l-302 -321l174 -225q42 -57 85.5 -113t87.5 -111h-115l-300 384z" />
    <glyph glyph-name="uni041B" unicode="&#x41b;" horiz-adv-x="950" 
d="M375 663v-501q0 -38 -10.5 -72t-29.5 -64q-8 -15 -20 -26.5t-29 -18.5q-18 -8 -39 -11.5t-45 -3.5v83q26 0 44 12t27 35q6 23 10 42t4 34v574h460v-770h-89v687h-283z" />
    <glyph glyph-name="uni041C" unicode="&#x41c;" horiz-adv-x="950" 
d="M709 746h113v-770h-89v548l-10 1q-25 -69 -49 -137.5t-46 -137.5l-48 -138t-48 -136h-115l-196 549l-6 -1v-548h-89v770h113l233 -673z" />
    <glyph glyph-name="uni041D" unicode="&#x41d;" horiz-adv-x="950" 
d="M667 340h-385v-364h-89v770h89v-322h385v322h86v-770h-86v364z" />
    <glyph glyph-name="uni041E" unicode="&#x41e;" horiz-adv-x="950" 
d="M470 769q77 0 138.5 -28.5t106.5 -85.5q45 -59 68 -132.5t23 -160.5q0 -45 -6 -86t-18 -78q-12 -39 -29 -71t-38 -59q-23 -27 -50 -48t-57 -36q-32 -15 -66.5 -22.5t-71.5 -7.5q-36 0 -69.5 7.5t-63.5 22.5q-32 15 -60 36t-52 48q-21 27 -37.5 59t-28.5 71q-13 37 -19 78
t-6 86q0 87 22.5 160.5t68.5 132.5q46 57 107.5 85.5t137.5 28.5v0zM470 687q-53 0 -97 -23.5t-79 -68.5q-16 -23 -27.5 -49t-18.5 -56q-8 -30 -11.5 -62.5t-3.5 -65.5q0 -72 15 -130.5t46 -103.5q33 -46 77.5 -68.5t98.5 -22.5q56 0 101 22.5t78 68.5q30 45 45.5 103.5
t15.5 130.5q0 33 -4.5 65.5t-12.5 62.5q-9 30 -20 56t-24 49q-34 45 -79 68.5t-100 23.5v0z" />
    <glyph glyph-name="uni041F" unicode="&#x41f;" horiz-adv-x="950" 
d="M292 663v-687h-89v770h545v-770h-89v687h-367z" />
    <glyph glyph-name="uni0420" unicode="&#x420;" horiz-adv-x="950" 
d="M208 746h301q54 0 99 -15.5t80 -45.5q32 -33 48.5 -75t16.5 -93q0 -53 -16.5 -95t-48.5 -73q-35 -33 -80 -48.5t-99 -15.5h-212v-309h-89v770zM297 369h212q16 0 30.5 2t26.5 8q12 4 24.5 10.5t26.5 15.5q23 18 35 46t12 66q0 36 -12 64t-35 48q-14 8 -26.5 14.5
t-24.5 11.5q-12 3 -26.5 5.5t-30.5 2.5h-212v-294z" />
    <glyph glyph-name="uni0421" unicode="&#x421;" horiz-adv-x="950" 
d="M797 211q-3 -24 -10 -46t-18 -43q-12 -21 -28 -42t-34 -42q-41 -42 -97 -63t-126 -21q-38 0 -72.5 7.5t-64.5 22.5q-32 15 -59 36t-49 48q-21 27 -37.5 59t-28.5 71q-13 37 -19 78t-6 86q0 87 22.5 160.5t68.5 132.5q45 57 106 85.5t139 28.5q72 0 127.5 -21.5
t96.5 -63.5q36 -42 58 -80t30 -71h-96q-12 22 -29.5 47.5t-41.5 53.5q-24 26 -60 39.5t-85 13.5q-30 0 -55.5 -6t-46.5 -17q-23 -12 -42 -29t-34 -39q-14 -23 -25 -49t-19 -56q-9 -30 -13.5 -62.5t-4.5 -66.5q0 -72 15 -130.5t47 -103.5q33 -46 77.5 -68.5t100.5 -22.5
q48 0 84 13.5t61 42.5q15 13 27 27.5t21 29.5q8 14 14 29t11 32h95z" />
    <glyph glyph-name="uni0422" unicode="&#x422;" horiz-adv-x="950" 
d="M426 663h-247v83h583v-83h-247v-687h-89v687z" />
    <glyph glyph-name="uni0423" unicode="&#x423;" horiz-adv-x="950" 
d="M471 288q19 56 39.5 113t41.5 114q20 57 40 113t41 112h91l-241 -665q-7 -14 -14 -25t-14 -20q-8 -11 -17.5 -19.5t-20.5 -14.5q-11 -4 -21 -6.5t-19 -3.5q-11 -1 -21.5 -1.5t-22.5 -0.5h-35v73h46q13 0 23.5 3t19.5 11q7 6 12.5 14t8.5 17l20 70q-26 70 -51.5 141
t-50.5 143q-26 70 -52.5 141t-53.5 143h95z" />
    <glyph glyph-name="uni0424" unicode="&#x424;" horiz-adv-x="950" 
d="M515 129q51 5 91.5 22.5t70.5 47.5q28 29 43 69.5t15 93.5q0 51 -14.5 91t-42.5 70q-29 28 -70 46t-93 26v-466zM426 595q-48 -6 -87 -23.5t-68 -46.5q-30 -30 -45 -71t-15 -92q0 -53 15 -93.5t45 -69.5q29 -30 68 -47.5t87 -22.5v466zM426 39q-68 8 -123 34t-97 71
q-42 43 -63 97.5t-21 120.5q0 65 21 119t63 98t97 69.5t123 33.5v77h89v-77q35 -4 67 -12.5t62 -21.5q28 -14 53 -31t46 -38q42 -44 63.5 -98.5t21.5 -118.5q0 -66 -21 -120t-63 -97q-43 -45 -100 -71t-129 -35v-73h-89v73z" />
    <glyph glyph-name="uni0425" unicode="&#x425;" horiz-adv-x="950" 
d="M470 296q-13 -20 -26 -39.5t-26 -39.5t-26 -40.5t-25 -40.5q-27 -42 -54 -82t-54 -78h-102l260 400q-29 46 -58.5 92.5t-59.5 94.5q-32 46 -63.5 92t-63.5 91h110l188 -292q22 36 46.5 73t51.5 76q25 37 49.5 72.5t48.5 70.5h106l-245 -370q30 -51 62.5 -101t65.5 -99
q33 -51 66.5 -101t69.5 -99h-110z" />
    <glyph glyph-name="uni0426" unicode="&#x426;" horiz-adv-x="950" 
d="M296 79h353v668h89v-668h76v-213h-93v130h-513v751h88v-668z" />
    <glyph glyph-name="uni0427" unicode="&#x427;" horiz-adv-x="950" 
d="M759 -24h-89v340q-18 -27 -44 -46t-60 -31q-39 -14 -76 -19.5t-73 -2.5q-21 0 -42 4t-41 12q-21 6 -41 16t-39 24q-19 12 -33.5 29.5t-23.5 39.5q-11 21 -16 45.5t-5 53.5v305h89v-265q0 -67 18 -106t56 -50q18 -6 35.5 -10t35.5 -6q17 -3 32.5 -4t30.5 0q33 0 66 10.5
t67 31.5q31 21 47.5 47.5t16.5 59.5v292h89v-770z" />
    <glyph glyph-name="uni0428" unicode="&#x428;" horiz-adv-x="950" 
d="M722 59v687h93v-770h-684v770h89v-687h206v687h89v-687h207z" />
    <glyph glyph-name="uni0429" unicode="&#x429;" horiz-adv-x="950" 
d="M131 -24v770h89v-687h206v687h89v-687h207v687h93v-687h72v-211h-89v128h-667z" />
    <glyph glyph-name="uni042A" unicode="&#x42a;" horiz-adv-x="950" 
d="M396 355v-296h212q28 0 53 9t47 27q22 16 34 43.5t12 65.5q0 40 -12 68.5t-34 46.5t-47 27t-53 9h-212zM303 663h-209v83h302v-307h212q50 0 93.5 -17t81.5 -50q32 -30 48.5 -72t16.5 -96q0 -51 -16.5 -93t-48.5 -73q-38 -31 -81.5 -46.5t-93.5 -15.5h-305v687z" />
    <glyph glyph-name="uni042B" unicode="&#x42b;" horiz-adv-x="950" 
d="M744 746h89v-770h-89v770zM117 -24v770h89v-307h211q52 0 95.5 -17t76.5 -50q36 -30 54.5 -72t18.5 -96q0 -51 -18.5 -93t-54.5 -73q-33 -31 -76.5 -46.5t-95.5 -15.5h-300zM206 355v-296h211q27 0 53 9t52 27q22 16 34 43.5t12 65.5q0 40 -12 68.5t-34 46.5
q-26 18 -52 27t-53 9h-211z" />
    <glyph glyph-name="uni042C" unicode="&#x42c;" horiz-adv-x="950" 
d="M208 -24v770h89v-307h212q54 0 99 -17t80 -50q32 -30 48.5 -72t16.5 -96q0 -51 -16.5 -93t-48.5 -73q-35 -31 -80 -46.5t-99 -15.5h-301zM297 355v-296h212q16 0 30.5 2t26.5 8q12 4 24.5 10.5t26.5 15.5q23 18 35 45.5t12 63.5q0 38 -12 66.5t-35 48.5q-14 8 -26.5 14.5
t-24.5 12.5q-12 4 -26.5 6.5t-30.5 2.5h-212z" />
    <glyph glyph-name="uni042D" unicode="&#x42d;" horiz-adv-x="950" 
d="M333 318v84h375q-3 63 -21.5 114.5t-51.5 91.5q-29 39 -70 59t-94 20q-36 0 -67 -9t-57 -26q-27 -18 -46 -42.5t-29 -54.5h-105q18 49 47 88.5t68 68.5q38 28 85 42.5t104 14.5q77 0 138.5 -28.5t106.5 -85.5q45 -59 67.5 -132t22.5 -161q0 -90 -22.5 -163.5
t-67.5 -130.5t-106 -85.5t-138 -28.5q-57 0 -104 13t-86 40q-40 26 -68.5 66.5t-46.5 95.5h99q12 -34 32.5 -59t48.5 -40q27 -17 58 -24.5t67 -7.5q52 0 93 19t71 58q33 37 51 87.5t21 115.5h-375z" />
    <glyph glyph-name="uni042E" unicode="&#x42e;" horiz-adv-x="950" 
d="M581 678q-49 0 -88 -22.5t-69 -66.5q-27 -47 -39.5 -103.5t-12.5 -123.5q0 -69 12.5 -126t39.5 -101q30 -45 69 -67t88 -22q45 0 83.5 22t68.5 67q27 44 41.5 101t14.5 126q0 67 -14.5 123.5t-41.5 103.5q-30 44 -68.5 66.5t-83.5 22.5v0zM167 320v-344h-88v770h88v-342
h118q3 80 25 144.5t64 113.5q39 49 91 74t116 25t117 -28.5t95 -83.5q40 -57 61 -128.5t21 -158.5q0 -89 -21 -161t-61 -127q-41 -56 -93.5 -83t-118.5 -27q-64 0 -116 24.5t-91 72.5q-42 48 -64 113t-25 146h-118z" />
    <glyph glyph-name="uni042F" unicode="&#x42f;" horiz-adv-x="950" 
d="M345 312q-37 8 -67.5 26.5t-54.5 48.5q-25 28 -37 62.5t-12 75.5q0 50 18 90.5t55 70.5q34 30 77 45t94 15h301v-772h-89v329h-177q-13 -21 -26 -41.5t-27 -40.5q-13 -21 -26.5 -41.5t-26.5 -41.5q-28 -42 -53.5 -83.5t-48.5 -80.5h-113zM630 387v275h-212
q-27 0 -52.5 -8.5t-47.5 -23.5q-24 -16 -35 -42.5t-11 -62.5q0 -38 11 -64t35 -41q22 -17 47.5 -25t52.5 -8h212z" />
    <glyph glyph-name="uni0430" unicode="&#x430;" horiz-adv-x="950" 
d="M710 68q0 -15 1.5 -28t4.5 -23q3 -11 6.5 -18t8.5 -11q-12 0 -23.5 -0.5t-20.5 -0.5q-6 0 -11.5 -0.5t-11.5 -0.5h-13.5h-12.5q-7 16 -10 36t-3 44l-16 -18t-17 -17q-11 -9 -23 -18t-25 -17q-11 -5 -24 -10t-28 -9q-16 -5 -32 -7.5t-31 -3.5q-35 -2 -68.5 5.5t-64.5 24.5
q-27 16 -43 42.5t-20 62.5q-5 18 -5 35t6 33q4 15 9.5 28.5t12.5 25.5q9 11 20.5 21t23.5 19q12 7 24 13t25 11q14 4 29 7.5t32 6.5q7 0 14.5 1t14.5 2t13.5 2t13.5 2q12 0 22.5 1t21.5 3q9 0 17 1.5t15 4.5q6 0 13 2t15 5q6 1 12 4t12 7q15 7 23 20t8 33q0 17 -9 35t-25 36
q-13 17 -38.5 26t-63.5 9q-19 0 -35 -2.5t-28 -5.5q-14 -5 -26 -11t-22 -12q-7 -8 -12.5 -16.5t-9.5 -17.5q-5 -10 -7 -20.5t0 -20.5h-90q-3 42 14 75.5t53 57.5q16 10 35.5 19t40.5 16q21 6 42.5 9t44.5 3q45 0 84 -12t73 -35q31 -24 47.5 -56.5t16.5 -73.5v-324zM625 287
q-4 -4 -10 -8t-14 -8q-9 -6 -17.5 -9.5t-15.5 -4.5q-6 -2 -11 -3t-10 -1q-6 -1 -11 -2t-9 -1q-11 -3 -21 -4.5t-19 -1.5q-8 -1 -14.5 -1.5t-12.5 -1.5t-11.5 -1.5t-9.5 -0.5q-10 -3 -16.5 -5t-9.5 -3q-22 -8 -39 -18.5t-29 -24.5q-13 -15 -18 -33.5t-2 -39.5q1 -11 4.5 -20
t9.5 -16q4 -8 11.5 -14.5t18.5 -10.5q6 -5 13.5 -8.5t18.5 -4.5q9 -3 20 -3.5t23 0.5q43 3 76.5 17.5t57.5 39.5q23 24 35 47.5t12 45.5v99z" />
    <glyph glyph-name="uni0431" unicode="&#x431;" horiz-adv-x="950" 
d="M471 480q-35 0 -63 -17t-49 -50q-23 -31 -33.5 -69t-10.5 -83t10.5 -84t33.5 -71q21 -34 49 -50.5t63 -16.5q36 0 65 16.5t51 50.5q21 32 32.5 71t11.5 84q0 21 -3 41t-7 41q-6 19 -14 37t-20 33q-23 33 -52 50t-64 17v0zM330 668q33 27 71.5 41.5t80.5 14.5h7h7
q2 -1 5 -1.5t8 -0.5q6 -1 11 -1h10q3 -1 6 -1h6q39 0 61 12t28 36h91q-3 -20 -10 -37t-18 -30q-12 -15 -27 -25t-31 -16q-24 -8 -46.5 -12.5t-41.5 -7.5q-21 -4 -37.5 -5t-28.5 1q-32 3 -60 -8t-52 -37q-12 -10 -20.5 -19.5t-12.5 -18.5q-6 -11 -8 -22.5t-2 -23.5
q30 24 66 37t78 13q59 0 106 -22t83 -65q31 -44 47.5 -96t16.5 -113q0 -62 -16.5 -114.5t-47.5 -94.5q-36 -43 -83 -64.5t-106 -21.5q-58 0 -103.5 21.5t-78.5 64.5q-36 43 -53.5 95t-17.5 114q0 30 0.5 60t3.5 60q1 28 4.5 56.5t9.5 56.5q6 54 29.5 97.5t64.5 76.5v0z" />
    <glyph glyph-name="uni0432" unicode="&#x432;" horiz-adv-x="950" 
d="M265 -24v562h220q33 0 60.5 -9t50.5 -26q25 -20 39.5 -42.5t17.5 -47.5q3 -24 -2.5 -47t-20.5 -44q-11 -21 -26 -35.5t-34 -20.5q3 -2 6.5 -3t7.5 -3q4 -1 8.5 -3t9.5 -4q9 -5 17.5 -11.5t17.5 -14.5q20 -17 29 -43.5t7 -62.5q-3 -33 -16.5 -60t-37.5 -46
q-27 -20 -58.5 -29.5t-67.5 -9.5h-228zM358 309h107q21 0 37 4.5t28 15.5q11 9 17 23.5t6 34.5q0 39 -22.5 58.5t-65.5 19.5h-107v-156zM358 49h107q31 0 53 6t36 18q12 12 18.5 29t6.5 40q0 9 -1.5 18t-4.5 18q-4 7 -10 13.5t-14 12.5q-5 7 -12.5 13t-16.5 11
q-11 3 -24.5 5t-28.5 2h-109v-186z" />
    <glyph glyph-name="uni0433" unicode="&#x433;" horiz-adv-x="950" 
d="M288 538h374v-73h-287v-489h-87v562z" />
    <glyph glyph-name="uni0434" unicode="&#x434;" horiz-adv-x="950" 
d="M292 171q12 23 21 50t15 58q4 30 7.5 63t6.5 69q6 72 9.5 134t3.5 116h297v-490h56v-195h-88v121h-289v-121h-88v195h49zM564 171v416h-121q0 -9 -0.5 -18t-0.5 -19q0 -11 -0.5 -22.5t-0.5 -23.5q-2 -27 -4.5 -56t-5.5 -60q-3 -33 -6.5 -62.5t-8.5 -56.5
q-6 -28 -15.5 -52.5t-22.5 -45.5h186z" />
    <glyph glyph-name="uni0435" unicode="&#x435;" horiz-adv-x="950" 
d="M470 569q53 0 99.5 -21t87.5 -62q38 -41 56.5 -102.5t17.5 -145.5h-418q0 -21 3 -39.5t9 -34.5q5 -18 14.5 -33.5t23.5 -29.5q24 -29 50.5 -43t56.5 -14q33 0 58 7t42 22q13 13 23 27t17 29h98q-8 -29 -26 -56t-46 -54q-27 -27 -68 -40t-96 -13t-101 22t-82 66
q-39 43 -57.5 96.5t-18.5 116.5q0 62 18 115t56 98q35 44 80.5 66.5t102.5 22.5v0zM629 312q-2 18 -5 35.5t-7 33.5q-6 15 -14 29t-20 28q-21 25 -49 38.5t-64 13.5q-32 0 -57.5 -12t-46.5 -36q-22 -25 -35 -57.5t-16 -72.5h314z" />
    <glyph glyph-name="uni0436" unicode="&#x436;" horiz-adv-x="950" 
d="M426 126l-56 93q-19 -30 -37.5 -60.5t-36.5 -61.5q-10 -16 -19.5 -31.5t-18.5 -30.5q-9 -16 -18 -30.5t-17 -28.5h-98l192 322q-10 15 -19.5 30t-19.5 30t-19.5 30t-18.5 31q-21 30 -40.5 59.5t-37.5 59.5h92l172 -265v265h89v-265q10 15 20.5 31.5t22.5 32.5
q11 17 22.5 34t23.5 35l22 34t22 33q11 17 22 33l22 32h96l-160 -240q23 -41 47 -81t50 -80q24 -42 48 -82t48 -79h-102l-139 243l-65 -93v-150h-89v150z" />
    <glyph glyph-name="uni0437" unicode="&#x437;" horiz-adv-x="950" 
d="M372 146q-2 -18 3 -35.5t16 -34.5q12 -20 32 -29t47 -9q25 0 44 6.5t33 21.5q12 13 19 31t7 40q0 16 -4.5 31t-12.5 30q-9 13 -22.5 22.5t-31.5 15.5q-4 1 -11 2.5t-16 2.5q-6 0 -10.5 -0.5t-8.5 -0.5h-8.5h-6.5h-15v74h3h19.5t22.5 1q10 0 17.5 1.5t11.5 4.5
q15 6 25.5 15t16.5 20q5 9 8 23t3 32q0 17 -6 32t-16 28q-12 12 -28 18t-36 6q-11 0 -20 -2.5t-16 -5.5q-9 -5 -16 -9.5t-11 -10.5q-8 -7 -12.5 -14.5t-6.5 -14.5q-3 -9 -4 -17.5t-1 -16.5h-81q-2 39 10 69.5t38 51.5q27 21 58 32.5t65 11.5q35 0 65 -12t54 -35
q25 -23 38 -50.5t13 -59.5q0 -15 -2 -28t-5 -24q-5 -12 -9 -22t-8 -17q-6 -6 -12.5 -12t-13.5 -12q-8 -7 -14.5 -11.5t-11.5 -6.5q21 -11 39 -25t32 -32q13 -19 20 -40t7 -43q0 -37 -13.5 -68.5t-38.5 -56.5q-29 -24 -63.5 -36.5t-75.5 -12.5t-75 13.5t-61 40.5
q-25 27 -36.5 58.5t-9.5 68.5h83z" />
    <glyph glyph-name="uni0438" unicode="&#x438;" horiz-adv-x="950" 
d="M369 -24h-107v562h93v-417h5q27 52 54.5 104t56.5 105q13 25 26.5 51t27.5 52l28 52t28 53h99v-562h-89v417l-5 1z" />
    <glyph glyph-name="uni0439" unicode="&#x439;" horiz-adv-x="950" 
d="M369 -24h-107v562h93v-417h5q27 52 54.5 104t56.5 105q13 25 26.5 51t27.5 52l28 52t28 53h99v-562h-89v417l-5 1zM634 698q-5 -13 -11 -25t-13 -23q-9 -12 -17 -22.5t-15 -18.5q-24 -18 -50.5 -27t-56.5 -9q-27 0 -52 9t-46 27q-23 17 -39 39.5t-26 49.5h68
q6 -14 16 -24.5t25 -17.5q13 -9 26.5 -12.5t27.5 -3.5q15 0 28.5 3.5t27.5 12.5q12 7 23 17.5t20 24.5h64z" />
    <glyph glyph-name="uni043A" unicode="&#x43a;" horiz-adv-x="950" 
d="M358 156v-180h-93v562h93v-261q12 15 25.5 31t27.5 33q13 16 27 32.5t29 34.5q27 33 54.5 65.5t54.5 64.5h104l-213 -250q15 -20 31 -39.5t32 -38.5q16 -20 32 -39.5t32 -38.5q30 -40 60 -79t59 -77h-101l-197 247z" />
    <glyph glyph-name="uni043B" unicode="&#x43b;" horiz-adv-x="950" 
d="M417 465v-355q0 -31 -9 -56.5t-27 -44.5q-17 -20 -46 -30t-71 -10v70q19 1 33 10.5t22 27.5q4 15 7 29t3 27v405h333v-562h-89v489h-156z" />
    <glyph glyph-name="uni043C" unicode="&#x43c;" horiz-adv-x="950" 
d="M627 538h95v-562h-88v323l-6 1q-12 -41 -25 -81.5t-26 -80.5q-15 -42 -28 -82.5t-24 -79.5h-104l-103 324l-10 -1v-323h-88v562h99l152 -459z" />
    <glyph glyph-name="uni043D" unicode="&#x43d;" horiz-adv-x="950" 
d="M586 235h-226v-259h-89v562h89v-229h226v229h89v-562h-89v259z" />
    <glyph glyph-name="uni043E" unicode="&#x43e;" horiz-adv-x="950" 
d="M471 568q60 0 108.5 -22.5t84.5 -66.5q33 -45 50.5 -98t17.5 -115q0 -63 -17.5 -116.5t-50.5 -96.5q-36 -44 -84.5 -66t-108.5 -22q-57 0 -103.5 22t-81.5 66q-36 43 -54 96.5t-18 116.5q0 62 18 115t54 98q35 44 81.5 66.5t103.5 22.5v0zM471 489q-35 0 -63.5 -16.5
t-50.5 -49.5q-25 -33 -37 -72.5t-12 -84.5q0 -47 12 -86t37 -72q21 -33 49.5 -49t64.5 -16t65.5 16t52.5 49q22 33 33.5 72t11.5 86q0 45 -11.5 84.5t-33.5 72.5q-23 33 -52.5 49.5t-65.5 16.5v0z" />
    <glyph glyph-name="uni043F" unicode="&#x43f;" horiz-adv-x="950" 
d="M363 465v-489h-89v562h397v-562h-88v489h-220z" />
    <glyph glyph-name="uni0440" unicode="&#x440;" horiz-adv-x="950" 
d="M315 -134h-93v753h93v-63q15 19 34.5 34t43.5 27q22 10 46.5 16t50.5 6q52 0 96.5 -21.5t80.5 -63.5q33 -43 50 -97t17 -120q0 -67 -17 -121.5t-50 -96.5q-36 -42 -80 -63t-97 -21q-26 0 -50.5 5t-46.5 17q-24 10 -43.5 25.5t-34.5 35.5v-252zM472 556q-38 0 -66.5 -16
t-48.5 -46q-21 -32 -31.5 -71t-10.5 -86q0 -48 10 -88t31 -70q21 -31 50 -46t66 -15t67 15t52 46q21 30 32 70t11 88t-11 87t-32 70q-21 30 -50.5 46t-68.5 16v0z" />
    <glyph glyph-name="uni0441" unicode="&#x441;" horiz-adv-x="950" 
d="M724 149q-9 -38 -27 -69.5t-46 -58.5q-32 -27 -72.5 -41t-89.5 -14q-60 0 -108 22t-85 66q-33 43 -49 96.5t-16 116.5t16 116t49 97q37 44 85 66.5t108 22.5q49 0 90.5 -15.5t74.5 -45.5q27 -30 44.5 -61t25.5 -63h-98q-1 8 -4 16.5t-7 17.5q-6 8 -13.5 17t-16.5 18
q-6 8 -15.5 14.5t-21.5 12.5q-13 4 -28 7t-31 3q-38 0 -67.5 -16.5t-51.5 -49.5q-23 -33 -33.5 -72.5t-10.5 -84.5q0 -47 10.5 -86.5t33.5 -71.5q21 -33 51 -49t68 -16q26 0 48.5 7.5t42.5 24.5q18 15 29 33.5t16 39.5h99z" />
    <glyph glyph-name="uni0442" unicode="&#x442;" horiz-adv-x="950" 
d="M427 465h-169v73h431v-73h-173v-489h-89v489z" />
    <glyph glyph-name="uni0443" unicode="&#x443;" horiz-adv-x="950" 
d="M471 171q19 54 39.5 110.5t41.5 113.5q20 56 40 111.5t41 111.5h91l-241 -664q-7 -12 -14 -22.5t-14 -20.5q-8 -9 -17.5 -16.5t-20.5 -13.5t-21 -9.5t-19 -4.5q-11 -1 -21.5 -1.5t-22.5 -0.5h-35v74h46q13 0 23.5 3.5t19.5 10.5q7 7 12.5 14.5t8.5 16.5l20 68
q-26 70 -51.5 140.5t-50.5 142.5q-26 70 -52.5 141t-53.5 142h95z" />
    <glyph glyph-name="uni0444" unicode="&#x444;" horiz-adv-x="950" 
d="M648 566q-14 0 -26.5 -4.5t-24.5 -12.5q-13 -9 -25 -20.5t-22 -25.5q-18 -32 -26 -68.5t-8 -78.5q0 -44 8 -80.5t26 -66.5q18 -32 42 -47.5t56 -15.5q28 0 51.5 15.5t41.5 47.5q16 30 25 66.5t9 80.5q0 42 -9 78.5t-25 68.5q-11 14 -22 25.5t-22 20.5q-12 8 -24.5 12.5
t-24.5 4.5v0zM299 566q-12 0 -24.5 -4.5t-24.5 -12.5q-14 -9 -24.5 -20.5t-17.5 -25.5q-18 -32 -27 -68.5t-9 -78.5q0 -44 9 -80.5t27 -66.5q18 -32 41 -47.5t50 -15.5q30 0 54.5 15.5t42.5 47.5q15 30 23 67t8 80q0 42 -7.5 78.5t-22.5 68.5q-11 14 -22 25.5t-21 20.5
q-12 8 -26 12.5t-29 4.5v0zM516 -134h-89v260q-12 -13 -27 -23t-31 -16q-18 -8 -35.5 -11t-34.5 -3q-47 0 -86 20.5t-72 62.5q-30 41 -44 91t-14 109q0 58 14 108t44 92q33 41 72 62t86 21q17 0 34 -4t35 -10q16 -8 31 -18.5t28 -22.5v275h89v-275q12 12 27.5 22t33.5 18
q17 7 35 11t36 4q49 0 87.5 -21t66.5 -62q31 -42 47 -92t16 -108q0 -59 -16 -109t-47 -91q-28 -42 -66.5 -62.5t-87.5 -20.5q-18 0 -36 3t-35 11q-18 6 -33.5 16t-27.5 24v-261z" />
    <glyph glyph-name="uni0445" unicode="&#x445;" horiz-adv-x="950" 
d="M470 185q-7 -13 -14.5 -26t-14.5 -26l-16 -26l-16 -26q-18 -28 -35 -54.5t-34 -50.5h-99l178 291q-21 33 -42 67t-42 69q-22 33 -43 67l-42 68h107l113 -188q7 11 14.5 22.5t15.5 23.5q7 11 15 23.5t17 25.5q15 24 29 47t26 46h107l-168 -271q11 -18 22 -36.5t23 -36.5
l22 -36t23 -36q22 -38 44.5 -74t45.5 -72h-106z" />
    <glyph glyph-name="uni0446" unicode="&#x446;" horiz-adv-x="950" 
d="M367 147h215v490h85v-491h71v-170h-89v97h-371v564h89v-490z" />
    <glyph glyph-name="uni0447" unicode="&#x447;" horiz-adv-x="950" 
d="M689 -24h-93v238q-10 -18 -25.5 -32t-36.5 -26q-23 -13 -48.5 -18.5t-53.5 -3.5q-13 0 -27.5 4t-30.5 11q-17 6 -31 14t-25 18q-14 10 -25 24.5t-19 32.5q-9 17 -13 37t-4 43v220h89v-201q0 -41 10 -67.5t31 -38.5q20 -14 41.5 -20.5t45.5 -5.5q12 1 24 4.5t23 8.5
q10 4 19 10t18 14q18 16 28 35t10 41v220h93v-562z" />
    <glyph glyph-name="uni0448" unicode="&#x448;" horiz-adv-x="950" 
d="M632 49v489h89v-562h-500v562h93v-489h112v489h89v-489h117z" />
    <glyph glyph-name="uni0449" unicode="&#x449;" horiz-adv-x="950" 
d="M221 73v564h93v-490h111v490h90v-490h116v490h89v-491h71v-170h-89v97h-481z" />
    <glyph glyph-name="uni044A" unicode="&#x44a;" horiz-adv-x="950" 
d="M420 49h130q31 0 53.5 7t36.5 22q12 13 18.5 32t7.5 43q0 22 -6.5 40.5t-18.5 33.5q-14 13 -36.5 20.5t-53.5 7.5h-131v-206zM333 -24v489h-153v73h240v-209h135q55 0 94.5 -14.5t63.5 -42.5q25 -29 37 -62t10 -71q-2 -20 -5.5 -37.5t-9.5 -32.5q-7 -16 -17.5 -29
t-24.5 -22q-32 -21 -66 -31.5t-70 -10.5h-234z" />
    <glyph glyph-name="uni044B" unicode="&#x44b;" horiz-adv-x="950" 
d="M673 538h89v-562h-89v562zM272 49h131q27 0 47.5 7t34.5 22q12 13 18.5 32t7.5 43q0 22 -6 40.5t-19 33.5q-14 13 -34.5 20.5t-47.5 7.5h-132v-206zM272 538v-209h136q51 0 90.5 -14.5t67.5 -42.5q25 -29 37 -62t10 -71q-2 -20 -6 -37.5t-11 -32.5q-8 -16 -20 -29
t-28 -22q-27 -21 -60 -31.5t-72 -10.5h-237v562h93z" />
    <glyph glyph-name="uni044C" unicode="&#x44c;" horiz-adv-x="950" 
d="M355 49h130q28 0 48.5 7t33.5 22q12 13 18.5 32t7.5 43q0 22 -6 40.5t-18 33.5q-14 13 -35 20.5t-48 7.5h-131v-206zM355 538v-209h135q51 0 90.5 -14.5t67.5 -42.5q25 -29 37 -62t10 -71q-2 -20 -6 -37.5t-11 -32.5q-8 -16 -20 -29t-28 -22q-27 -21 -60 -31.5t-72 -10.5
h-236v562h93z" />
    <glyph glyph-name="uni044D" unicode="&#x44d;" horiz-adv-x="950" 
d="M458 230v74h165q-3 43 -15 76.5t-31 57.5q-21 22 -49 34t-64 12q-24 0 -45 -6t-39 -16q-20 -12 -33 -30.5t-20 -42.5h-89q10 40 30.5 72.5t50.5 58.5q30 24 66 36.5t79 12.5q59 0 105.5 -21.5t80.5 -63.5q31 -43 47 -97t16 -120t-16 -120.5t-47 -96.5q-34 -42 -80.5 -63
t-105.5 -21q-44 0 -80 12t-66 36q-30 23 -50.5 56t-29.5 75h89q7 -25 20 -43t33 -29q18 -12 39 -17.5t45 -5.5q36 0 64.5 12t49.5 36q19 23 30.5 56t14.5 76h-165z" />
    <glyph glyph-name="uni044E" unicode="&#x44e;" horiz-adv-x="950" 
d="M570 489q-37 0 -66.5 -16.5t-51.5 -49.5q-23 -33 -33.5 -72.5t-10.5 -84.5q0 -47 10.5 -86.5t33.5 -71.5q21 -33 50.5 -49t67.5 -16q34 0 64 16t54 49q22 33 33.5 72t11.5 86q0 45 -11.5 84.5t-33.5 72.5q-25 33 -54.5 49.5t-63.5 16.5v0zM221 314h95q6 54 26 99.5
t54 82.5q30 36 73.5 54t100.5 18q60 0 106 -22.5t79 -66.5q36 -44 54.5 -97t18.5 -116t-18.5 -116.5t-54.5 -96.5q-33 -44 -79 -66t-106 -22q-57 0 -102.5 18.5t-79.5 54.5q-32 39 -50.5 87t-22.5 105h-94v-244h-89v563h89v-235z" />
    <glyph glyph-name="uni044F" unicode="&#x44f;" horiz-adv-x="950" 
d="M376 221q-27 6 -49 20t-40 35q-19 20 -28 45.5t-9 55.5q0 36 12 65.5t38 52.5q27 21 59.5 32t68.5 11h224v-562h-89v239h-89q-17 -30 -35 -60t-37 -60q-11 -16 -20.5 -31.5t-19.5 -29.5q-10 -15 -19 -29.5t-18 -28.5h-106zM563 287v178h-108q-14 0 -25.5 -1.5t-20.5 -3.5
q-11 -3 -19.5 -7.5t-14.5 -8.5q-7 -6 -13 -13t-11 -15q-6 -9 -8.5 -19t-2.5 -21q0 -12 2.5 -22t8.5 -18q5 -9 11 -16t13 -11q6 -6 14.5 -10t19.5 -6q9 -3 20.5 -4.5t25.5 -1.5h108z" />
    <glyph glyph-name="uni0451" unicode="&#x451;" horiz-adv-x="950" 
d="M470 559q54 0 101 -21t86 -62q39 -42 58 -105t18 -148h-410q0 -18 3 -35t9 -33q4 -18 12.5 -32t21.5 -25q9 -14 20.5 -23.5t26.5 -15.5q13 -8 26.5 -11t27.5 -3q32 0 55.5 6.5t38.5 20.5q13 13 22 27t14 29h111q-8 -32 -26 -61t-47 -56q-28 -29 -69.5 -43t-96.5 -14
q-28 0 -53.5 6t-47.5 18q-24 12 -44 28.5t-37 38.5q-39 45 -58 98t-19 115q0 61 18 114t56 98q35 44 80.5 66.5t102.5 22.5v0zM325 308h299q-2 15 -6 30.5t-10 30.5q-7 14 -14 27t-13 25q-21 24 -48.5 36.5t-62.5 12.5q-30 0 -54 -11t-43 -32q-21 -23 -33 -52.5t-15 -66.5v0
zM375 719q12 0 21.5 -4.5t18.5 -13.5q7 -9 11 -20t4 -23t-4 -22.5t-11 -19.5q-9 -10 -18.5 -14.5t-21.5 -4.5q-6 0 -11 1t-11 4q-7 2 -12 5.5t-8 8.5q-3 2 -5.5 6.5t-4.5 11.5q-3 6 -4 12t-1 12q0 12 3.5 23t12.5 20q7 9 17.5 13.5t23.5 4.5v0zM574 719q9 0 18.5 -4.5
t18.5 -13.5q8 -9 12.5 -20t4.5 -23t-4.5 -22.5t-12.5 -19.5q-9 -10 -18.5 -14.5t-18.5 -4.5q-6 0 -11.5 1t-9.5 4q-6 2 -11 5.5t-8 8.5q-5 2 -8.5 6.5t-6.5 11.5q-4 6 -5.5 12t-1.5 12q0 12 4.5 23t13.5 20q8 9 19 13.5t25 4.5v0z" />
    <glyph glyph-name="uni2015" unicode="&#x2015;" horiz-adv-x="950" 
d="M947 399v-74h-947v74h947z" />
    <glyph glyph-name="quoteleft" unicode="&#x2018;" horiz-adv-x="211" 
d="M59 702h81q4 -29 7 -58l6 -58h-62z" />
    <glyph glyph-name="quoteright" unicode="&#x2019;" horiz-adv-x="211" 
d="M120 586h-62l13 116h81z" />
    <glyph glyph-name="quotedblleft" unicode="&#x201c;" horiz-adv-x="342" 
d="M190 702h81q4 -29 7 -58l6 -58h-62zM59 702h81q4 -29 7 -58l6 -58h-62z" />
    <glyph glyph-name="quotedblright" unicode="&#x201d;" horiz-adv-x="342" 
d="M120 586h-62l13 116h81zM251 586h-62l13 116h81z" />
    <glyph glyph-name="dagger" unicode="&#x2020;" horiz-adv-x="950" 
d="M494 615q5 -1 14.5 -0.5t23.5 3.5q12 1 25 4.5t26 8.5q17 5 34 6.5t34 -1.5q14 -3 21.5 -12t7.5 -24q0 -8 -2 -14t-5 -10q-4 -5 -9.5 -8.5t-12.5 -4.5q-18 -3 -35 -2.5t-33 6.5q-3 0 -6 1l-6 2q-3 0 -6.5 1t-6.5 3q-5 0 -8.5 0.5t-6.5 1.5t-5.5 1.5t-3.5 1.5q-7 0 -13 1
t-11 3q-6 0 -11 0.5t-8 0.5q0 -14 1 -27t4 -26q1 -14 4.5 -25t8.5 -20q2 -4 5 -7t6 -4q2 -3 3.5 -5t3.5 -3q0 -2 0.5 -3t1.5 -1q1 -1 1.5 -2t1.5 -1q-3 -3 -9 -15t-15 -32q-10 -30 -14.5 -91t-3.5 -152v-17v-15q0 -8 0.5 -15t0.5 -14v-125q-1 -15 -2 -27.5t-1 -21.5
q-3 -21 -7 -32t-10 -11t-9 11t-4 32v275q0 75 -5.5 126t-14.5 77q-11 21 -16 32.5t-5 14.5v1.5t1 4.5l0.5 1t1.5 2t1.5 2t2.5 3q1 2 3.5 5t5.5 7q8 9 13 20.5t8 26.5q0 6 1 12.5t1 13.5q1 6 1.5 12.5t0.5 12.5q-8 0 -18.5 -0.5t-25.5 -3.5t-27 -6.5t-21 -6.5
q-11 -3 -20 -4.5t-16 -1.5q-9 -1 -18 -0.5t-18 2.5q-17 3 -24.5 12.5t-7.5 24.5t7.5 24t24.5 12q18 3 36 1.5t36 -6.5q9 -5 21 -8.5t27 -4.5q14 -3 25 -3.5t19 0.5v21q-1 6 -2 13t-1 15l-5.5 33t-5.5 27q-3 10 -4.5 21.5t-1.5 23.5v14v6t2 10q3 19 11 29.5t20 10.5
q14 0 22.5 -10t11.5 -29q3 -20 1.5 -39t-6.5 -37v-5q-1 -11 -2.5 -24.5l-3.5 -31.5q-3 -15 -4 -26.5t1 -18.5z" />
    <glyph glyph-name="daggerdbl" unicode="&#x2021;" horiz-adv-x="950" 
d="M458 594q-8 1 -18.5 0.5t-24.5 -3.5q-15 -4 -27 -7t-20 -6q-18 -6 -35.5 -6.5t-34.5 2.5q-17 2 -24.5 11t-7.5 25q0 14 7.5 23t24.5 12q17 2 34.5 0.5t35.5 -5.5q3 -2 8.5 -3.5t13.5 -2.5q6 -2 13 -3.5t14 -1.5q2 -1 4.5 -1.5t4.5 -1.5q3 -1 6 -1.5t7 -0.5q6 -2 11 -2.5
t8 -0.5v25q-1 6 -2 12.5t-1 14.5q-2 6 -3 13t-1 15q-2 6 -3.5 12.5t-2.5 12.5q-3 9 -4.5 20.5t-1.5 23.5v14v6t2 10q3 19 10.5 29t19.5 10q14 0 22 -10t11 -28q3 -20 1.5 -38.5t-5.5 -36.5q0 -3 -0.5 -6.5t-0.5 -6.5t-0.5 -6t-0.5 -6q-1 -4 -1.5 -8t-1.5 -7q0 -4 -0.5 -7.5
t-0.5 -6.5q-2 -8 -2 -14.5v-12.5q-1 -7 -1 -13v-11q3 0 7 0.5t9 2.5q2 0 4.5 0.5t5.5 1.5t7 1.5t9 1.5q2 0 4.5 0.5t5.5 1.5q3 0 6.5 1t7.5 2q6 1 12.5 2.5t12.5 3.5q15 4 31.5 5.5t34.5 -0.5q13 -3 20.5 -12t7.5 -23q0 -16 -7.5 -25t-20.5 -11q-18 -3 -34.5 -2.5t-31.5 6.5
l-26 6t-26 7q-15 3 -24.5 3.5t-14.5 -0.5v-111h7t9 2q4 0 10.5 0.5t15.5 2.5q2 0 4.5 0.5t5.5 1.5q3 0 6.5 1t7.5 2q6 1 12.5 2t12.5 1q15 6 31.5 8t34.5 0q13 -5 20.5 -13.5t7.5 -21.5q0 -15 -7.5 -24t-20.5 -12q-18 -3 -34.5 -2.5t-31.5 6.5l-26 6l-26 6q-15 2 -24.5 3
t-14.5 1q0 -13 0.5 -26.5t3.5 -26.5q1 -15 4.5 -25.5t8.5 -17.5q10 -11 15.5 -18t5.5 -10q-2 0 -4 -3t-4 -7l-7 -14t-7 -17q-4 -16 -7 -35.5t-6 -41.5q-3 -24 -4.5 -50t-0.5 -54v-125q0 -7 -0.5 -13.5t-0.5 -12.5v-11.5v-9.5q-2 -21 -6.5 -32t-10.5 -11q-3 0 -5 2.5t-3 7.5
q-3 6 -4 14t-1 19v172q0 59 -5 104t-14 77q-6 9 -10 16.5t-6 13.5q-3 5 -4.5 8l-1.5 3q0 3 0.5 6t3.5 6q1 2 3.5 5t6.5 6q3 2 6 5t6 7q4 6 7 16t5 24q1 12 2 24.5t1 24.5q-8 0 -18.5 -1t-24.5 -3q-15 -3 -27 -6t-20 -6q-18 -6 -35.5 -6.5t-34.5 2.5t-24.5 12t-7.5 24
q0 13 7.5 21.5t24.5 13.5q17 2 34.5 0t35.5 -8q3 0 8.5 -1t13.5 -2q6 -2 13 -3.5t14 -1.5q4 -2 9.5 -2.5t12.5 -0.5q6 -2 11 -2h8v111z" />
    <glyph glyph-name="twodotenleader" unicode="&#x2025;" horiz-adv-x="950" 
d="M658 419h104v-114h-104v114zM179 419h112v-114h-112v114z" />
    <glyph glyph-name="ellipsis" unicode="&#x2026;" horiz-adv-x="950" 
d="M711 419h112v-114h-112v114zM125 419h109v-114h-109v114zM417 419h112v-114h-112v114z" />
    <glyph glyph-name="perthousand" unicode="&#x2030;" horiz-adv-x="950" 
d="M631 776h37q-66 -95 -133 -191t-136 -193q-36 -50 -70.5 -98t-68.5 -96q-35 -48 -68.5 -94.5t-66.5 -92.5h-35zM544 320q19 -14 29 -36t10 -52q0 -33 -10.5 -63.5t-30.5 -60.5q-9 -16 -20 -29t-23 -22q-14 -11 -26.5 -18.5t-24.5 -11.5q-15 -6 -26 -8t-20 -2
q-14 0 -26 2.5t-21 8.5q-20 15 -29.5 38.5t-9.5 56.5q0 31 10.5 62t31.5 62q19 30 43 50.5t53 31.5q9 4 20.5 7t24.5 3t24.5 -5t20.5 -14v0zM530 297q-9 5 -16.5 8t-13.5 3q-5 0 -9.5 -1t-10.5 -2q-7 -3 -12.5 -5t-9.5 -4q-9 -6 -18 -13t-18 -16q-11 -9 -20.5 -19.5
t-18.5 -22.5h1q-18 -26 -28 -50t-11 -48q-3 -26 3.5 -43.5t23.5 -26.5q1 -3 3.5 -5t7.5 -2q3 -2 8 -2h11q10 0 24 5.5t31 17.5q16 10 29.5 25t25.5 35q9 10 15.5 22t11.5 26q3 12 5.5 24.5t4.5 24.5q2 24 -2.5 41t-16.5 28v0zM828 320q19 -13 28 -35.5t9 -53.5
q0 -32 -10.5 -63t-29.5 -61h1q-12 -15 -24.5 -28t-24.5 -22q-14 -11 -27.5 -19t-26.5 -12q-6 -3 -11.5 -5t-9.5 -2q-5 -2 -11 -2.5t-12 -0.5q-12 0 -25 3t-25 9q-20 15 -29 38.5t-9 55.5q0 31 10.5 62t31.5 62h-1q19 29 44.5 49.5t56.5 32.5q9 4 20.5 7t25.5 3q12 0 24 -4.5
t25 -13.5v0zM806 296q-7 4 -14 7t-13 3q-15 0 -29.5 -6t-28.5 -16q-15 -12 -29 -27t-26 -33h1q-20 -25 -30.5 -49.5t-11.5 -48.5q-2 -26 4 -43.5t21 -26.5q3 -3 6 -5t6 -2q3 -2 6 -2h8q15 0 29.5 5t29.5 17q13 10 27.5 25t29.5 36q18 24 27.5 48.5t12.5 48.5q0 24 -6.5 41.5
t-19.5 27.5v0zM333 756q21 -14 31.5 -37t10.5 -55q-2 -33 -12.5 -63.5t-29.5 -60.5q-21 -30 -44.5 -50.5t-50.5 -31.5q-9 -3 -15.5 -5.5t-10.5 -3.5q-6 -3 -10.5 -3.5t-8.5 -0.5q-14 0 -27.5 4.5t-25.5 14.5q-18 13 -26.5 35.5t-8.5 55.5q0 31 10.5 62t31.5 62q18 28 42 49
t54 34q3 2 8.5 4t12.5 4q6 0 11.5 1t11.5 1q13 0 25 -4.5t21 -11.5v0zM319 729l-16.5 5.5t-13.5 2.5q-3 0 -5 -0.5t-5 -0.5q-2 0 -4.5 -0.5t-5.5 -0.5q-7 -2 -11.5 -3.5t-7.5 -3.5q-11 -6 -20.5 -13t-18.5 -16q-11 -9 -20.5 -20.5t-18.5 -24.5h1q-18 -24 -28 -47.5
t-11 -47.5q-2 -12 -0.5 -22t6.5 -19q3 -10 8.5 -17.5t12.5 -13.5q4 -4 11.5 -5.5t18.5 -1.5q10 0 24 5.5t31 17.5q16 11 29.5 26t25.5 35q9 11 15.5 23t11.5 25q3 12 5.5 24.5t4.5 24.5q2 24 -2.5 40.5t-16.5 27.5v0z" />
    <glyph glyph-name="minute" unicode="&#x2032;" horiz-adv-x="950" 
d="M223 839q-27 -35 -52 -68t-47 -63q-24 -32 -48.5 -65t-50.5 -66q9 34 19.5 66.5t22.5 64.5q10 30 22.5 63t27.5 68h106z" />
    <glyph glyph-name="second" unicode="&#x2033;" horiz-adv-x="950" 
d="M360 839q-27 -33 -51.5 -65.5t-48.5 -64.5q-24 -33 -47.5 -66t-45.5 -65q6 17 11.5 33.5t11.5 33.5l12 32l12 32q5 15 10 30.5t10 31.5q5 17 10 33.5t11 34.5h105zM213 839q-24 -33 -47 -65.5t-46 -64.5q-12 -17 -24 -33.5t-24 -32.5q-12 -17 -23.5 -33t-23.5 -32
q9 34 19.5 66.5t22.5 64.5q10 30 22 62.5t27 67.5h97z" />
    <glyph glyph-name="uni203B" unicode="&#x203b;" horiz-adv-x="950" 
d="M699 422q9 0 18.5 -4.5t18.5 -12.5q8 -9 12.5 -20t4.5 -23q0 -14 -4.5 -24.5t-11.5 -18.5q-9 -9 -18.5 -13.5t-19.5 -4.5q-14 0 -25 4.5t-19 13.5q-9 8 -13.5 18.5t-4.5 23.5q0 12 4.5 23t13.5 20q8 9 19 13.5t25 4.5v0zM250 422q12 0 21.5 -4.5t18.5 -12.5q7 -9 11 -20
t4 -23q0 -14 -4 -24.5t-11 -18.5q-9 -9 -18.5 -13.5t-21.5 -4.5q-14 0 -24 4.5t-17 13.5q-9 8 -12.5 18.5t-3.5 23.5q0 12 3.5 23t11.5 20q6 9 16.5 13.5t25.5 4.5v0zM471 659q13 0 24.5 -5t20.5 -14q8 -10 12.5 -20.5t4.5 -20.5q0 -14 -4.5 -24.5t-11.5 -19.5
q-9 -9 -20.5 -13.5t-25.5 -4.5q-10 0 -19 4.5t-17 13.5q-9 9 -13.5 19.5t-4.5 23.5q0 11 4 21.5t13 20.5q7 9 16.5 14t20.5 5v0zM471 186q13 0 24.5 -4.5t20.5 -12.5q8 -9 12.5 -20t4.5 -23q0 -14 -4.5 -24.5t-11.5 -18.5q-9 -9 -20.5 -13.5t-25.5 -4.5q-10 0 -19 4.5
t-17 13.5q-9 8 -13.5 17.5t-4.5 21.5q0 13 4 25t13 21q7 9 16.5 13.5t20.5 4.5v0zM716 58l-245 259q-29 -33 -58.5 -65t-59.5 -65q-32 -33 -62.5 -65.5t-60.5 -63.5q-8 5 -14 11t-10 12q-5 6 -11 11.5t-13 11.5l246 258q-15 15 -29.5 31t-29.5 32t-29.5 32.5t-29.5 33.5
q-32 32 -63.5 64t-64.5 65q7 5 13 11t11 12q4 6 10 10.5t14 9.5l241 -256q31 31 62.5 64t63.5 66q30 32 60 63.5t59 62.5q7 -5 13 -9.5t12 -10.5q4 -6 8.5 -12t10.5 -11l-246 -258q32 -33 63.5 -65t63.5 -64q15 -17 29.5 -33.5t29.5 -32.5l30 -32t30 -31z" />
    <glyph glyph-name="uni2074" unicode="&#x2074;" horiz-adv-x="950" 
d="M132 584v49q17 23 33.5 46t33.5 47q15 22 30 45.5t30 47.5h47v-198h36v-37h-36v-39h-45v39h-129zM261 746l-86 -125h86v125z" />
    <glyph glyph-name="uni207F" unicode="&#x207f;" horiz-adv-x="950" 
d="M125 817h54v-30q9 8 19 15.5t22 14.5q10 6 23 8t28 2q16 -3 30 -12.5t26 -25.5q7 -15 11.5 -29t4.5 -27v-188h-50v168q0 36 -13 55t-37 19q-18 0 -31 -5.5t-21 -15.5q-9 -12 -13.5 -27.5t-4.5 -34.5v-159h-48v272z" />
    <glyph glyph-name="uni2081" unicode="&#x2081;" horiz-adv-x="950" 
d="M208 -64v185h-57v39h12t13 2q6 0 11.5 3t10.5 9v-1q3 2 6 5.5t6 9.5q1 4 2.5 9.5t2.5 11.5h38v-273h-45z" />
    <glyph glyph-name="uni2082" unicode="&#x2082;" horiz-adv-x="950" 
d="M216 14q-5 -5 -9 -10t-7 -11q-5 -6 -8 -11t-4 -11h140v-35h-197q0 14 4 27.5t12 27.5q6 13 19 27.5t31 29.5l50 36q3 5 8.5 10.5t12.5 11.5q6 5 9.5 12.5t4.5 16.5q0 9 -3 17.5t-9 16.5q-8 6 -16.5 10t-18.5 4q-14 0 -24 -4t-16 -11q-8 -8 -11 -17.5t-3 -20.5h-45
q0 15 6.5 30t21.5 30q13 14 31 21.5t41 7.5q9 0 18 -2t19 -5q9 -5 15.5 -9.5t11.5 -8.5q7 -6 12.5 -13t8.5 -14q3 -8 4.5 -16t1.5 -15q0 -17 -4.5 -29t-12.5 -21q-9 -9 -18 -17t-16 -14z" />
    <glyph glyph-name="uni2083" unicode="&#x2083;" horiz-adv-x="950" 
d="M179 17q0 -11 3.5 -19t11.5 -14q6 -6 16.5 -9t25.5 -3q9 0 18 3t17 9q7 6 11 13.5t6 16.5q0 6 -1.5 13t-5.5 14q-5 6 -12.5 10t-17.5 7q-3 0 -7 1t-9 2h-11.5h-8.5v39h10t13 2q6 0 9.5 1t6.5 4q1 1 3 2.5t5 3.5q2 1 4 3l5 5t5.5 8.5t4.5 11.5q0 6 -2 13t-8 15
q-7 6 -16 10t-19 4q-15 0 -24.5 -3t-13.5 -9q-6 -6 -8 -13.5t0 -16.5h-49q2 16 9.5 30t21.5 26q12 10 28 16t36 6t36.5 -6t29.5 -16q12 -12 18 -25t6 -28q0 -14 -4.5 -24t-12.5 -17q-9 -9 -16 -15t-11 -9q8 -3 16.5 -9t17.5 -15q8 -9 12.5 -19.5t4.5 -20.5q0 -17 -7 -31.5
t-20 -26.5q-14 -12 -31.5 -18t-38.5 -6q-13 0 -23.5 1.5t-19.5 4.5q-10 3 -17 6.5t-11 8.5q-8 6 -13.5 13t-9.5 14q-6 7 -8 16t-1 20h46z" />
    <glyph glyph-name="uni2084" unicode="&#x2084;" horiz-adv-x="950" 
d="M132 -25v48q17 23 33.5 46t33.5 47q15 22 30 45.5t30 47.5h47v-196h36v-38h-36v-39h-45v39h-129zM261 139l-86 -126h86v126z" />
    <glyph glyph-name="Euro" unicode="&#x20ac;" horiz-adv-x="950" 
d="M765 248q-8 -39 -28.5 -76.5t-53.5 -72.5q-32 -38 -80 -56.5t-111 -18.5q-71 0 -125.5 24.5t-91.5 75.5q-22 27 -37.5 58t-24.5 67h-88v84h73q-2 11 -2 23v25q0 20 1 39.5t4 38.5h-76v84h97q9 26 22 50t31 46q39 49 93 74.5t124 25.5q64 0 112 -19t80 -56
q33 -36 53.5 -69t26.5 -63h-87q-6 21 -20 43t-35 44q-23 22 -55 33.5t-74 11.5q-50 0 -89.5 -20t-67.5 -59q-7 -11 -13 -21.5t-10 -20.5h218v-84h-242q-3 -19 -4.5 -38.5t-1.5 -39.5v-25t2 -23h246v-84h-229q6 -20 14.5 -38t19.5 -33q28 -40 67.5 -59.5t89.5 -19.5
q40 0 72.5 12t56.5 36q22 22 36 47t20 53z" />
    <glyph glyph-name="uni2103" unicode="&#x2103;" horiz-adv-x="950" 
d="M845 239q-7 -39 -27.5 -76.5t-54.5 -72.5q-32 -39 -80 -57.5t-111 -18.5q-71 0 -125.5 25t-91.5 76q-40 49 -59.5 113.5t-19.5 143.5q0 78 19.5 142.5t59.5 115.5q39 49 93 74.5t124 25.5q64 0 112 -19t80 -56q34 -36 54 -69t26 -63h-87q-6 21 -20 43t-35 44
q-23 22 -55 33.5t-74 11.5q-50 0 -89 -20t-67 -59q-27 -41 -40.5 -92t-13.5 -112q0 -63 13.5 -113.5t40.5 -89.5q28 -40 67 -59.5t89 -19.5q40 0 72.5 12t56.5 36q23 21 37 46t19 54zM194 848q22 0 39.5 -8.5t31.5 -23.5q15 -18 23.5 -37.5t8.5 -41.5q0 -23 -8.5 -43
t-23.5 -36q-14 -17 -31.5 -25t-39.5 -8q-23 0 -41.5 8t-33.5 25q-18 16 -26.5 36t-8.5 43q0 22 8.5 41.5t26.5 37.5q15 15 33.5 23.5t41.5 8.5v0zM194 793q-14 0 -24 -4t-17 -11q-9 -9 -12.5 -19t-3.5 -22t3.5 -22t12.5 -17q7 -9 17 -13t24 -4q9 0 18.5 4t18.5 13
q8 7 12.5 17t4.5 22t-4.5 22t-12.5 19q-9 7 -18.5 11t-18.5 4v0z" />
    <glyph glyph-name="uni2109" unicode="&#x2109;" horiz-adv-x="950" 
d="M195 828q23 0 42.5 -9t36.5 -26q14 -18 21.5 -39t7.5 -44q0 -24 -7.5 -44.5t-21.5 -38.5q-17 -18 -36.5 -26.5t-42.5 -8.5q-24 0 -44 8.5t-35 26.5q-17 18 -25 38.5t-8 44.5q0 23 8 44t25 39q15 17 35 26t44 9v0zM195 778q-15 0 -27 -5.5t-21 -14.5q-11 -11 -15.5 -23
t-4.5 -25q0 -15 4.5 -27t15.5 -21q9 -11 21 -15.5t27 -4.5q12 0 22.5 4.5t20.5 15.5q9 9 13.5 21t4.5 27q0 13 -4.5 25t-13.5 23q-10 9 -20.5 14.5t-22.5 5.5v0zM349 696h458v-44h-401v-278h355v-42h-355v-321h-57v685z" />
    <glyph glyph-name="uni2113" unicode="&#x2113;" horiz-adv-x="950" 
d="M489 76q-21 -45 -51.5 -72.5t-70.5 -39.5q-5 0 -9 -0.5t-8 -0.5h-8h-7q-32 0 -63.5 21.5t-63.5 63.5q-13 -4 -26.5 -7t-27.5 -6q-15 -3 -29.5 -4.5t-27.5 -1.5q-3 9 -5.5 18t-3.5 20q-2 4 -3.5 9t-2.5 10t-2 9.5t-2 9.5h38q4 0 10 0.5t14 2.5q6 0 14.5 1.5t17.5 4.5
q-24 60 -35.5 127.5t-11.5 144.5v61q2 45 9.5 86t19.5 79q12 36 28.5 67t37.5 55q27 29 51.5 44t48.5 15q7 0 17.5 -3.5t22.5 -9.5q12 -9 23.5 -23.5t22.5 -32.5q10 -20 18.5 -41.5t14.5 -43.5q0 -9 1 -17.5t2 -16.5q1 -9 2 -17.5t2 -17.5q1 -19 2 -35.5t1 -30.5
q0 -33 -4 -63.5t-10 -60.5q-8 -30 -15.5 -57.5t-14.5 -51.5q-15 -35 -31 -63.5t-32 -52.5q-18 -24 -32.5 -40.5t-26.5 -25.5q7 -17 16 -27.5t21 -14.5q10 -6 21.5 -6.5t25.5 5.5q7 5 16 12.5t18 17.5q8 9 14.5 21t12.5 27zM356 660q-9 27 -17.5 40.5t-16.5 13.5
q-12 -1 -23 -8.5t-23 -22.5q-41 -56 -59.5 -125.5t-15.5 -153.5q1 -83 12 -145t32 -102q16 11 31.5 29.5t29.5 45.5q13 25 23.5 57.5t18.5 73.5q7 21 12 41.5t8 41.5q1 19 2.5 39t1.5 40q0 36 -4.5 69.5t-11.5 65.5z" />
    <glyph glyph-name="uni2116" unicode="&#x2116;" horiz-adv-x="950" 
d="M376 12l-271 562l-5 -1v-561h-58v698h77l266 -562l2 1v561h67v-698h-78zM672 485q42 0 75 -19t57 -55q24 -34 36.5 -76t12.5 -91q0 -50 -12.5 -92t-36.5 -78t-57 -53.5t-75 -17.5t-76 17.5t-59 53.5q-14 17 -24 36.5t-16 41.5q-7 21 -10 44t-3 48q0 24 3 46.5t10 45.5
q6 21 16 40t24 35q25 36 59 55t76 19v0zM672 423q-27 0 -49 -13.5t-38 -40.5q-17 -27 -25 -58t-8 -67q0 -38 8 -70t25 -57q15 -27 36.5 -39.5t50.5 -12.5q13 0 25 3t24 11q10 6 19.5 15.5t18.5 22.5q15 27 23 58.5t8 68.5t-8 68.5t-23 56.5q-18 27 -40 40.5t-47 13.5v0z
M884 96q7 0 15.5 -4.5t17.5 -12.5q8 -9 12.5 -20t4.5 -23q0 -10 -4.5 -19t-12.5 -16q-9 -8 -17.5 -12t-15.5 -4q-12 0 -22 4t-17 12q-8 7 -11.5 16t-3.5 19q0 12 3.5 23t11.5 20q7 8 17 12.5t22 4.5v0z" />
    <glyph glyph-name="uni2121" unicode="&#x2121;" horiz-adv-x="950" 
d="M220 641h-192v66h462v-66h-198v-629h-72v629zM567 486q42 0 78 -17.5t66 -50.5q33 -35 49.5 -87t16.5 -121h-333q0 -30 10 -55t28 -46q8 -11 17.5 -18.5t21.5 -12.5q10 -6 21.5 -9t24.5 -3q9 0 19 1.5t20 4.5q9 2 16.5 6.5t13.5 10.5q8 4 14 9.5t10 11.5q3 4 5 10t2 14
h91q-7 -29 -21 -53.5t-35 -44.5q-23 -22 -56.5 -32.5t-77.5 -10.5q-48 0 -86 17.5t-65 53.5q-30 36 -44.5 79.5t-14.5 95.5q0 23 3 46t10 47q6 22 17 42t27 37q25 37 63 56t89 19v0zM446 280h236q-1 24 -8.5 46t-20.5 43q-16 21 -37.5 31.5t-48.5 10.5q-28 0 -49 -9t-36 -26
q-15 -18 -24 -42t-12 -54v0zM833 707h73v-694h-73v694z" />
    <glyph glyph-name="trademark" unicode="&#x2122;" horiz-adv-x="950" 
d="M155 697h-79v50h206v-50h-80v-294h-47v294zM460 753h66v-356h-50v183q-5 -23 -9.5 -46t-8.5 -46q-6 -24 -11 -47t-8 -44h-55l-33 183v-183h-55v356h68l45 -240z" />
    <glyph glyph-name="Omega" unicode="&#x2126;" horiz-adv-x="950" 
d="M665 449q0 -59 -14 -109t-41 -92q-30 -42 -62 -70.5t-66 -43.5v-78h109v-62h-142q-15 0 -23 4.5t-9 13.5v127q0 14 1.5 24.5t5.5 18.5q1 3 2 5.5t2 5.5q1 2 2 3.5t2 2.5q34 9 62.5 30t49.5 54q20 31 30.5 73t10.5 94q0 29 -4 55t-11 50q-8 22 -17.5 42.5t-21.5 39.5
q-16 16 -33.5 29.5t-36.5 22.5q-20 9 -41.5 13.5t-44.5 4.5q-45 0 -82.5 -18t-67.5 -54t-44 -83t-14 -105q0 -49 9 -88t27 -68q18 -30 41.5 -52.5t53.5 -35.5q19 -2 29.5 -12.5t12.5 -29.5q1 -21 2 -32.5t1 -12.5v-47q0 -22 -1 -35t-2 -17q-2 -3 -3.5 -7t-2.5 -7
q-2 -5 -6.5 -7t-10.5 -2h-148v62h109v75q-41 15 -75.5 42.5t-61.5 68.5q-27 39 -39.5 90t-12.5 113q-2 69 18 128t62 110q40 49 91.5 74.5t114.5 25.5t114.5 -25t93.5 -74q40 -47 61 -105.5t21 -129.5v0z" />
    <glyph glyph-name="uni212B" unicode="&#x212b;" horiz-adv-x="950" 
d="M477 477l-103 -267h204zM479 802q22 0 40 -8.5t33 -23.5q15 -18 23.5 -37.5t8.5 -41.5q0 -23 -8.5 -43t-23.5 -36q-15 -17 -33 -25t-40 -8t-41 8t-34 25q-18 16 -26 36t-8 43q0 22 8 41.5t26 37.5q15 15 34 23.5t41 8.5v0zM479 747q-13 0 -23 -4t-17 -11q-8 -9 -11.5 -19
t-3.5 -22t3.5 -22t11.5 -17q7 -9 17 -13t23 -4q9 0 18.5 4t18.5 13q8 7 12.5 17t4.5 22t-4.5 22t-12.5 19q-9 7 -18.5 11t-18.5 4v0zM234 14l205 532h77l209 -532l-69 1l-51 132h-255l-48 -132z" />
    <glyph glyph-name="onethird" unicode="&#x2153;" horiz-adv-x="950" 
d="M132 384h682v-44h-682v44zM449 425v286h-93v58q9 0 19 1.5t21 4.5q9 2 16.5 5t13.5 8q8 4 14 10t11 14q3 6 5 14t2 17h63v-418h-72zM391 2q-2 -15 4 -28t19 -22q12 -9 25.5 -13.5t30.5 -4.5q18 0 32 4.5t25 13.5q10 9 15.5 20.5t7.5 23.5q0 11 -2 21.5t-8 19.5
q-7 8 -17 14t-23 10q-5 2 -11 3.5t-13 1.5h-29v63q6 0 14 0.5t18 2.5q9 0 15 2t10 5q8 3 14.5 8.5t11.5 12.5q4 6 7 14t5 17q0 4 -1 9.5t-2 11.5q-2 4 -5 9l-6 10l-12 8t-11 7q-6 3 -15 4.5t-20 1.5q-16 0 -28 -5t-19 -14q-9 -10 -13.5 -21.5t-4.5 -23.5h-72q0 25 9.5 46
t30.5 39q19 18 43.5 27t53.5 9q32 0 57.5 -9t45.5 -26q19 -17 29 -37t10 -43q0 -11 -2.5 -19.5t-5.5 -15.5q-5 -9 -9.5 -15.5t-8.5 -12.5q-3 -6 -8 -11.5t-11 -8.5q-8 -5 -14 -8t-10 -4q18 -6 32.5 -16t26.5 -23q11 -15 17 -30.5t6 -33.5q0 -26 -10.5 -48t-31.5 -40
q-22 -18 -50 -27.5t-62 -9.5q-15 0 -29 2.5t-28 7.5q-15 5 -27.5 11.5t-21.5 15.5q-12 9 -20.5 19.5t-12.5 22.5q-5 12 -7 25t-2 27h68z" />
    <glyph glyph-name="twothirds" unicode="&#x2154;" horiz-adv-x="950" 
d="M132 384h682v-44h-682v44zM391 2q-2 -15 4 -28t19 -22q12 -9 25.5 -13.5t30.5 -4.5q18 0 32 4.5t25 13.5q10 9 15.5 20.5t7.5 23.5q0 11 -2 21.5t-8 19.5q-7 8 -17 14t-23 10q-5 2 -11 3.5t-13 1.5h-29v63q6 0 14 0.5t18 2.5q9 0 15 2t10 5q8 3 14.5 8.5t11.5 12.5
q4 6 7 14t5 17q0 4 -1 9.5t-2 11.5q-2 4 -5 9l-6 10l-12 8t-11 7q-6 3 -15 4.5t-20 1.5q-16 0 -28 -5t-19 -14q-9 -10 -13.5 -21.5t-4.5 -23.5h-72q0 25 9.5 46t30.5 39q19 18 43.5 27t53.5 9q32 0 57.5 -9t45.5 -26q19 -17 29 -37t10 -43q0 -11 -2.5 -19.5t-5.5 -15.5
q-5 -9 -9.5 -15.5t-8.5 -12.5q-3 -6 -8 -11.5t-11 -8.5q-8 -5 -14 -8t-10 -4q18 -6 32.5 -16t26.5 -23q11 -15 17 -30.5t6 -33.5q0 -26 -10.5 -48t-31.5 -40q-22 -18 -50 -27.5t-62 -9.5q-15 0 -29 2.5t-28 7.5q-15 5 -27.5 11.5t-21.5 15.5q-12 9 -20.5 19.5t-12.5 22.5
q-5 12 -7 25t-2 27h68zM457 546q-9 -7 -16.5 -14.5t-13.5 -16.5q-6 -10 -10.5 -18.5t-7.5 -14.5h211v-57h-294q0 21 4.5 42.5t14.5 44.5q9 21 27 43t45 45q10 6 19.5 13t18.5 14q8 6 18 12.5t22 14.5l-1 -1l1.5 1t4.5 4t6 6.5t7 7.5q3 4 7 7.5t8 8.5q6 7 10 17.5t5 24.5
q0 13 -3.5 25.5t-11.5 24.5q-9 10 -22.5 15.5t-30.5 5.5t-29.5 -6t-21.5 -17q-10 -12 -14.5 -26t-4.5 -30h-72q0 25 9 48.5t28 44.5q18 21 44.5 32.5t60.5 11.5q33 0 60 -10t48 -29q18 -20 27 -42.5t9 -46.5t-7.5 -43t-22.5 -32q-5 -8 -11 -14t-13 -11q-8 -6 -14 -12
t-10 -11z" />
    <glyph glyph-name="oneeighth" unicode="&#x215b;" horiz-adv-x="950" 
d="M132 384h682v-44h-682v44zM449 425v286h-93v58q9 0 19 1.5t21 4.5q9 2 16.5 5t13.5 8q8 4 14 10t11 14q3 6 5 14t2 17h63v-418h-72zM565 99q13 -11 25 -22.5t23 -23.5q9 -14 14.5 -28.5t5.5 -29.5q0 -27 -12 -49t-36 -40q-23 -18 -51 -27.5t-62 -9.5q-32 0 -59 9.5
t-51 27.5q-24 19 -35.5 41t-11.5 48q0 15 5 30.5t17 30.5q10 13 23 24.5t29 20.5q-13 9 -23.5 19.5t-18.5 23.5q-9 12 -13 24.5t-4 26.5q0 23 10.5 43t32.5 38q21 16 45.5 24.5t53.5 8.5q32 0 59 -8.5t48 -24.5q21 -18 32 -38t11 -43q0 -14 -4.5 -26.5t-12.5 -24.5
q-9 -12 -19 -22t-21 -17v-6zM472 65q-21 0 -37.5 -5t-26.5 -14q-12 -10 -17.5 -22.5t-5.5 -27.5q0 -12 5.5 -23.5t17.5 -20.5q10 -9 26.5 -14t37.5 -5t37.5 5t29.5 14q12 9 18 20.5t6 23.5q0 15 -6 27.5t-18 22.5q-13 9 -29.5 14t-37.5 5v0zM472 245q-18 0 -30.5 -4.5
t-20.5 -11.5q-9 -9 -13.5 -19t-4.5 -21q0 -14 4.5 -24t13.5 -17q8 -8 20.5 -11.5t30.5 -3.5t32 3.5t23 11.5q9 7 13.5 17t4.5 24q0 11 -4.5 21t-13.5 19q-9 7 -23 11.5t-32 4.5v0z" />
    <glyph glyph-name="threeeighths" unicode="&#x215c;" horiz-adv-x="950" 
d="M132 384h682v-44h-682v44zM565 99q13 -11 25 -22.5t23 -23.5q9 -14 14.5 -28.5t5.5 -29.5q0 -27 -12 -49t-36 -40q-23 -18 -51 -27.5t-62 -9.5q-32 0 -59 9.5t-51 27.5q-24 19 -35.5 41t-11.5 48q0 15 5 30.5t17 30.5q10 13 23 24.5t29 20.5q-13 9 -23.5 19.5t-18.5 23.5
q-9 12 -13 24.5t-4 26.5q0 23 10.5 43t32.5 38q21 16 45.5 24.5t53.5 8.5q32 0 59 -8.5t48 -24.5q21 -18 32 -38t11 -43q0 -14 -4.5 -26.5t-12.5 -24.5q-9 -12 -19 -22t-21 -17v-6zM472 65q-21 0 -37.5 -5t-26.5 -14q-12 -10 -17.5 -22.5t-5.5 -27.5q0 -12 5.5 -23.5
t17.5 -20.5q10 -9 26.5 -14t37.5 -5t37.5 5t29.5 14q12 9 18 20.5t6 23.5q0 15 -6 27.5t-18 22.5q-13 9 -29.5 14t-37.5 5zM472 245q-18 0 -30.5 -4.5t-20.5 -11.5q-9 -9 -13.5 -19t-4.5 -21q0 -14 4.5 -24t13.5 -17q8 -8 20.5 -11.5t30.5 -3.5t32 3.5t23 11.5q9 7 13.5 17
t4.5 24q0 11 -4.5 21t-13.5 19q-9 7 -23 11.5t-32 4.5zM391 547q-2 -17 4 -29t19 -21q12 -10 25.5 -14.5t30.5 -4.5q18 0 32 4.5t25 14.5q10 9 15.5 20t7.5 26q0 10 -2 20t-8 19q-7 8 -17 14t-23 10q-5 2 -11 3.5t-13 1.5h-29v63q6 0 14 0.5t18 2.5q9 0 15 2t10 5
q8 3 14.5 8.5t11.5 12.5q4 6 7 14t5 17q0 4 -1 9.5t-2 11.5q-2 4 -5 9l-6 10l-12 8t-11 7q-6 3 -15 4.5t-20 1.5q-16 0 -28 -5t-19 -14q-9 -10 -13.5 -21.5t-4.5 -23.5h-72q0 25 9.5 46t30.5 39q19 18 43.5 27t53.5 9q32 0 57.5 -9t45.5 -26q19 -17 29 -37t10 -43
q0 -11 -2.5 -19.5t-5.5 -15.5q-5 -9 -9.5 -15.5t-8.5 -12.5q-3 -7 -8 -12t-11 -8q-8 -5 -14 -8t-10 -4q18 -6 32.5 -16t26.5 -23q11 -15 17 -30.5t6 -31.5q0 -27 -10.5 -50t-31.5 -41q-22 -20 -50 -29.5t-62 -9.5q-15 0 -29 2.5t-28 8.5q-15 5 -27.5 12t-21.5 16
q-12 9 -20.5 19.5t-12.5 23.5q-5 12 -7 24.5t-2 27.5h68z" />
    <glyph glyph-name="fiveeighths" unicode="&#x215d;" horiz-adv-x="950" 
d="M132 384h682v-44h-682v44zM565 99q13 -11 25 -22.5t23 -23.5q9 -14 14.5 -28.5t5.5 -29.5q0 -27 -12 -49t-36 -40q-23 -18 -51 -27.5t-62 -9.5q-32 0 -59 9.5t-51 27.5q-24 19 -35.5 41t-11.5 48q0 15 5 30.5t17 30.5q10 13 23 24.5t29 20.5q-13 9 -23.5 19.5t-18.5 23.5
q-9 12 -13 24.5t-4 26.5q0 23 10.5 43t32.5 38q21 16 45.5 24.5t53.5 8.5q32 0 59 -8.5t48 -24.5q21 -18 32 -38t11 -43q0 -14 -4.5 -26.5t-12.5 -24.5q-9 -12 -19 -22t-21 -17v-6zM472 65q-21 0 -37.5 -5t-26.5 -14q-12 -10 -17.5 -22.5t-5.5 -27.5q0 -12 5.5 -23.5
t17.5 -20.5q10 -9 26.5 -14t37.5 -5t37.5 5t29.5 14q12 9 18 20.5t6 23.5q0 15 -6 27.5t-18 22.5q-13 9 -29.5 14t-37.5 5v0zM472 245q-18 0 -30.5 -4.5t-20.5 -11.5q-9 -9 -13.5 -19t-4.5 -21q0 -14 4.5 -24t13.5 -17q8 -8 20.5 -11.5t30.5 -3.5t32 3.5t23 11.5
q9 7 13.5 17t4.5 24q0 11 -4.5 21t-13.5 19q-9 7 -23 11.5t-32 4.5v0zM324 621q3 27 7 54.5t9 54.5q3 26 8 53t11 56h232v-63h-174l-15 -98q7 4 16 8t20 7q9 2 20 3.5t23 1.5q2 0 4 -0.5t4 -0.5h4h5q1 -1 3 -1.5t4 -0.5q2 -1 4 -1.5t5 -0.5q16 -6 33.5 -16t35.5 -25
q15 -16 23 -38.5t8 -52.5q0 -18 -4 -33t-10 -28q-8 -14 -16 -26t-17 -21q-13 -9 -25.5 -16.5t-24.5 -12.5q-13 -6 -27 -8.5t-29 -2.5q-32 0 -57.5 10t-45.5 31q-12 10 -20 20.5t-11 21.5q-5 9 -8 19t-4 21h67q2 -14 8.5 -24.5t17.5 -17.5q9 -9 22 -12.5t29 -3.5q18 0 32 5
t26 17q10 10 16.5 25t8.5 34q0 18 -5.5 34t-15.5 28q-11 12 -26 18t-33 6q-9 0 -17 -1.5t-16 -4.5q-9 -4 -15.5 -8.5t-9.5 -9.5h-80z" />
    <glyph glyph-name="seveneighths" unicode="&#x215e;" horiz-adv-x="950" 
d="M132 384h682v-44h-682v44zM565 99q13 -11 25 -22.5t23 -23.5q9 -14 14.5 -28.5t5.5 -29.5q0 -27 -12 -49t-36 -40q-23 -18 -51 -27.5t-62 -9.5q-32 0 -59 9.5t-51 27.5q-24 19 -35.5 41t-11.5 48q0 15 5 30.5t17 30.5q10 13 23 24.5t29 20.5q-13 9 -23.5 19.5t-18.5 23.5
q-9 12 -13 24.5t-4 26.5q0 23 10.5 43t32.5 38q21 16 45.5 24.5t53.5 8.5q32 0 59 -8.5t48 -24.5q21 -18 32 -38t11 -43q0 -14 -4.5 -26.5t-12.5 -24.5q-9 -12 -19 -22t-21 -17v-6zM472 65q-21 0 -37.5 -5t-26.5 -14q-12 -10 -17.5 -22.5t-5.5 -27.5q0 -12 5.5 -23.5
t17.5 -20.5q10 -9 26.5 -14t37.5 -5t37.5 5t29.5 14q12 9 18 20.5t6 23.5q0 15 -6 27.5t-18 22.5q-13 9 -29.5 14t-37.5 5v0zM472 245q-18 0 -30.5 -4.5t-20.5 -11.5q-9 -9 -13.5 -19t-4.5 -21q0 -14 4.5 -24t13.5 -17q8 -8 20.5 -11.5t30.5 -3.5t32 3.5t23 11.5
q9 7 13.5 17t4.5 24q0 11 -4.5 21t-13.5 19q-9 7 -23 11.5t-32 4.5v0zM330 829h292v-67q-8 -9 -18.5 -21t-23.5 -28q-15 -18 -27.5 -39.5t-23.5 -47.5q-15 -28 -26 -55.5t-18 -54.5q-8 -29 -12 -51.5t-4 -39.5h-81q0 13 4 32.5t12 43.5q6 24 17.5 50.5t28.5 56.5
q15 27 29.5 51t28.5 45q10 10 18 19t14 18q5 7 9.5 13l7.5 10h-227v65z" />
    <glyph glyph-name="uni2160" unicode="&#x2160;" horiz-adv-x="950" 
d="M426 746h89v-770h-89v770z" />
    <glyph glyph-name="uni2161" unicode="&#x2161;" horiz-adv-x="950" 
d="M593 746h89v-770h-89v770zM260 746h89v-770h-89v770z" />
    <glyph glyph-name="uni2162" unicode="&#x2162;" horiz-adv-x="950" 
d="M635 746h89v-770h-89v770zM217 746h89v-770h-89v770zM426 746h89v-770h-89v770z" />
    <glyph glyph-name="uni2163" unicode="&#x2163;" horiz-adv-x="950" 
d="M164 746h86v-770h-86v770zM596 -24h-107q-26 96 -51.5 193t-50.5 193q-27 96 -51.5 192t-47.5 192h88l166 -659h2q19 83 40 165.5t42 164.5q10 40 20 80.5t20 82.5q10 41 20.5 82.5t21.5 83.5h90z" />
    <glyph glyph-name="uni2164" unicode="&#x2164;" horiz-adv-x="950" 
d="M531 -24h-114q-34 96 -67 193t-64 193q-33 96 -64 192t-61 192h90l220 -667q29 82 57.5 166t55.5 168q26 83 54 166t58 167h94z" />
    <glyph glyph-name="uni2165" unicode="&#x2165;" horiz-adv-x="950" 
d="M785 746v-770h-89v770h89zM335 -24q-24 96 -48.5 193t-48.5 193l-52 192t-53 192h97l157 -659h10q10 41 20 82.5t19 82.5q10 42 20 83l20 82q18 81 38 163t41 166h97q-28 -97 -53.5 -193t-49.5 -191q-25 -96 -50 -192.5t-49 -193.5h-115z" />
    <glyph glyph-name="uni2166" unicode="&#x2166;" horiz-adv-x="950" 
d="M671 746v-770h-79v770h79zM273 -24q-24 96 -47 193t-44 193l-87 384h97l133 -659h6q8 41 16 82.5t16 82.5q8 42 16 83t17 82q7 40 15 80.5t16 82.5q8 41 16 82.5t17 83.5h93q-23 -97 -44.5 -193t-42.5 -191q-22 -96 -44 -192.5t-43 -193.5h-106zM819 746v-770h-80v770h80
z" />
    <glyph glyph-name="uni2167" unicode="&#x2167;" horiz-adv-x="950" 
d="M605 746v-770h-80v770h80zM217 -24q-21 96 -41 193t-39 193q-21 96 -41 192t-39 192h97l119 -659h6q12 83 26.5 165.5t31.5 164.5q15 81 30.5 163t30.5 166h92q-11 -49 -21 -97t-19 -96l-20 -96t-19 -95q-21 -96 -41 -192.5t-39 -193.5h-114zM738 746v-770h-79v770h79z
M871 746v-770h-79v770h79z" />
    <glyph glyph-name="uni2168" unicode="&#x2168;" horiz-adv-x="950" 
d="M140 746h80v-770h-80v770zM540 288q-23 -39 -45.5 -77.5t-44.5 -77.5q-24 -41 -46.5 -80t-44.5 -77h-105l236 402q-30 45 -57 91.5t-52 94.5q-26 46 -52 91.5t-53 90.5h99l165 -281q6 15 15 32t20 36q10 18 21.5 36t25.5 38q8 18 17.5 36.5t20.5 37.5q10 18 21 34t23 31
h97l-215 -369q30 -51 59.5 -101t58.5 -100q27 -51 56.5 -101t61.5 -99h-104z" />
    <glyph glyph-name="uni2169" unicode="&#x2169;" horiz-adv-x="950" 
d="M471 288q-23 -38 -46 -77t-45 -78q-12 -21 -23.5 -41t-22.5 -39q-11 -20 -21.5 -39.5t-20.5 -37.5h-99l228 400q-26 46 -52 93t-53 94q-29 45 -56 91t-52 92h99l164 -281q9 17 19 34.5t21 34.5q10 18 20.5 36t21.5 37q20 36 40 70.5t41 68.5h105l-214 -368
q28 -51 57 -101t59 -100q14 -26 28 -51.5t28 -50.5l28 -50t28 -49h-96z" />
    <glyph glyph-name="uni2170" unicode="&#x2170;" horiz-adv-x="950" 
d="M515 -24h-89v562h89v-562zM515 655h-89v91h89v-91z" />
    <glyph glyph-name="uni2171" unicode="&#x2171;" horiz-adv-x="950" 
d="M349 -24h-89v562h89v-562zM349 655h-89v91h89v-91zM682 -24h-89v562h89v-562zM682 655h-89v91h89v-91z" />
    <glyph glyph-name="uni2172" unicode="&#x2172;" horiz-adv-x="950" 
d="M515 -24h-89v562h89v-562zM515 655h-89v91h89v-91zM306 -24h-89v562h89v-562zM306 655h-89v91h89v-91zM724 -24h-89v562h89v-562zM724 655h-89v91h89v-91z" />
    <glyph glyph-name="uni2173" unicode="&#x2173;" horiz-adv-x="950" 
d="M259 -24h-89v562h89v-562zM259 655h-89v91h89v-91zM554 70q9 28 19 57.5t20 58.5q9 29 19 59t21 60q9 29 19 58l20 58q10 30 20 59l20 58h94q-26 -72 -50 -142t-46 -139q-12 -35 -24.5 -70t-24.5 -71l-24 -70l-24 -70h-113q-24 70 -48 140.5t-48 140.5q-25 69 -50.5 139
t-52.5 142h98z" />
    <glyph glyph-name="uni2174" unicode="&#x2174;" horiz-adv-x="950" 
d="M629 538h93q-26 -72 -50 -142t-46 -139q-12 -35 -24.5 -70t-24.5 -71l-24 -70l-24 -70h-112q-12 35 -24.5 70t-24.5 70q-12 36 -24 71l-24 70q-25 69 -50.5 139t-52.5 142h98l155 -468z" />
    <glyph glyph-name="uni2175" unicode="&#x2175;" horiz-adv-x="950" 
d="M697 -24v562h89v-562h-89zM697 655v91h89v-91h-89zM389 70q9 28 19 57.5t20 58.5q9 29 19 59t21 60q9 29 19 58l20 58q10 30 20 59l20 58h94q-26 -72 -50 -142t-46 -139q-12 -35 -24.5 -70t-24.5 -71l-24 -70l-24 -70h-114q-24 70 -47.5 140.5t-47.5 140.5
q-25 69 -50.5 139t-52.5 142h98z" />
    <glyph glyph-name="uni2176" unicode="&#x2176;" horiz-adv-x="950" 
d="M593 -24v562h79v-562h-79zM593 655v91h79v-91h-79zM326 69q8 28 16.5 57.5t17.5 58.5t18 59l18 60q16 59 33.5 117.5t35.5 116.5h86q-23 -72 -44.5 -142t-42.5 -139q-22 -70 -44 -140.5t-43 -140.5h-106q-24 70 -47 140t-44 141q-23 69 -44.5 139.5t-42.5 141.5h86z
M739 -24v562h80v-562h-80zM739 655v91h80v-91h-80z" />
    <glyph glyph-name="uni2177" unicode="&#x2177;" horiz-adv-x="950" 
d="M526 -24v562h79v-562h-79zM526 655v91h79v-91h-79zM659 -24v562h79v-562h-79zM659 655v91h79v-91h-79zM792 -24v562h79v-562h-79zM792 655v91h79v-91h-79zM265 68q15 57 32 116.5t35 119.5q16 59 32.5 117.5t33.5 116.5h86q-11 -36 -21 -71.5t-20 -70.5l-20 -70t-19 -69
q-20 -70 -40 -140.5t-40 -140.5h-114q-11 35 -21 70t-19 70q-10 36 -20 71t-19 70q-21 69 -41 139t-39 142h85z" />
    <glyph glyph-name="uni2178" unicode="&#x2178;" horiz-adv-x="950" 
d="M593 264q23 -36 47 -72t50 -72q24 -37 48 -73t48 -71h-94l-146 217q-18 -27 -35.5 -54.5t-33.5 -54.5q-18 -29 -35.5 -56t-34.5 -52h-93l186 288q-11 16 -21.5 32.5t-21.5 33.5t-22 34.5t-22 35.5l-90 138h94l129 -203q18 24 35.5 49.5t35.5 52.5q16 26 31.5 51.5
t30.5 49.5h98zM281 655h-89v91h89v-91zM281 -24h-89v562h89v-562z" />
    <glyph glyph-name="uni2179" unicode="&#x2179;" horiz-adv-x="950" 
d="M527 264l96 -144q23 -37 47 -73t48 -71h-100l-147 212q-16 -26 -33 -52.5t-35 -53.5q-19 -29 -37 -55.5t-35 -50.5h-107l195 288q-23 32 -45 66t-44 70q-12 17 -23.5 34.5t-22.5 34.5q-11 18 -22.5 35t-22.5 34h98l134 -198q15 24 32.5 48.5t36.5 51.5q9 12 17.5 24.5
t17.5 24.5q8 12 16.5 24.5t17.5 24.5h99z" />
    <glyph glyph-name="arrowleft" unicode="&#x2190;" horiz-adv-x="950" 
d="M922 328h-703q13 -12 26 -23t26 -23q12 -13 25 -25t28 -23q-39 15 -77 31t-75 33q-39 15 -75.5 31t-71.5 33q35 15 71.5 31t75.5 31q37 15 74.5 31t75.5 34l-105 -93h705v-68z" />
    <glyph glyph-name="arrowup" unicode="&#x2191;" horiz-adv-x="950" 
d="M592 523l-88 105v-740h-63v742q-12 -13 -23.5 -26t-21.5 -25q-11 -14 -22.5 -27.5t-23.5 -25.5q9 21 18 40.5t17 39.5q7 18 14.5 37t15.5 39q4 18 11 36.5t16 38.5q7 18 14.5 38t14.5 41z" />
    <glyph glyph-name="arrowright" unicode="&#x2192;" horiz-adv-x="950" 
d="M625 488q20 -9 39 -17.5t38 -15.5q19 -8 36.5 -15.5t35.5 -14.5q33 -15 70 -31t76 -32q-20 -9 -39 -17t-37 -16q-19 -8 -36.5 -16t-34.5 -15q-36 -17 -73 -33t-75 -31l96 94h-699v68h701z" />
    <glyph glyph-name="arrowdown" unicode="&#x2193;" horiz-adv-x="950" 
d="M592 202q-15 -42 -29.5 -81t-29.5 -75q-16 -37 -31.5 -75.5t-30.5 -79.5q-14 39 -28.5 78t-29.5 77q-17 37 -32.5 75.5t-30.5 78.5l91 -104v742h63v-741z" />
    <glyph glyph-name="arrowboth" unicode="&#x2194;" horiz-adv-x="950" 
d="M658 485q18 -9 35 -17t35 -15q17 -8 33.5 -15.5t33.5 -14.5q15 -8 31 -15.5t33 -15.5q16 -8 33 -15.5t34 -14.5q-33 -17 -67 -32.5t-67 -29.5q-18 -8 -35 -15.5t-34 -15.5q-16 -8 -32.5 -15.5t-32.5 -14.5l87 89h-537q7 -11 17.5 -22t22.5 -22q6 -6 11.5 -12t10.5 -12
q6 -5 11 -10.5t11 -10.5q-38 15 -73 30.5t-66 30.5q-33 14 -65.5 29.5t-65.5 32.5q15 7 30.5 14t32.5 15q16 7 33.5 15t35.5 17q17 7 34 14.5t35 15.5q17 8 34 15.5t35 15.5l-84 -88h537z" />
    <glyph glyph-name="arrowupdn" unicode="&#x2195;" horiz-adv-x="950" 
d="M599 186q-5 -11 -9 -21l-8 -20t-8 -19.5t-7 -18.5q-9 -20 -15.5 -38.5t-12.5 -36.5q-9 -18 -16.5 -36.5t-14.5 -37.5q-9 -19 -18 -38.5t-19 -39.5q-15 37 -30 74.5t-31 75.5q-18 37 -34.5 76t-31.5 78l99 -110v576q-14 -15 -26 -29t-23 -27q-12 -15 -25 -29l-26 -28
q10 21 18.5 40.5t16.5 39.5q6 18 14 37t19 38q6 18 13.5 36.5t16.5 38.5q8 18 15.5 37.5t14.5 40.5q15 -39 31.5 -77.5t34.5 -75.5q16 -38 31 -76.5t30 -77.5l-95 112v-576z" />
    <glyph glyph-name="uni2196" unicode="&#x2196;" horiz-adv-x="950" 
d="M914 -53q-3 -3 -6 -6.5t-6 -6.5l-6 -6l-6 -6q-7 -6 -12.5 -12t-8.5 -12l-705 740v-174q-20 48 -37 93.5t-32 89.5q-16 42 -32.5 88t-32.5 94q43 -21 86.5 -39t86.5 -34q42 -18 85 -35.5t87 -35.5h-167z" />
    <glyph glyph-name="uni2197" unicode="&#x2197;" horiz-adv-x="950" 
d="M914 826q-20 -47 -37 -92.5t-32 -89.5q-17 -45 -33.5 -90.5t-32.5 -90.5v169q-90 -93 -178.5 -185t-175.5 -184q-88 -93 -175 -185.5t-173 -183.5l-24 24l-6 6l-6 6t-5.5 6t-5.5 6l706 741h-170z" />
    <glyph glyph-name="uni2198" unicode="&#x2198;" horiz-adv-x="950" 
d="M917 -101q-23 9 -44.5 17.5t-43.5 17.5q-21 9 -42 17.5t-42 17.5t-42.5 17.5t-42.5 16.5q-22 9 -43.5 17.5t-42.5 17.5h160q-90 93 -178 186t-175 186q-44 46 -87.5 92t-87.5 92t-87.5 92t-86.5 93l10 10t12 13q6 6 12 12.5t12 13.5l704 -742v179z" />
    <glyph glyph-name="uni2199" unicode="&#x2199;" horiz-adv-x="950" 
d="M915 778l-707 -742h167q-23 -11 -44.5 -20t-42.5 -18q-22 -9 -42.5 -17.5t-40.5 -16.5q-42 -15 -85.5 -32.5t-88.5 -35.5q8 23 16.5 45.5t16.5 45.5q9 22 17 44t16 45q15 43 32.5 89t37.5 94v-173q85 91 172 184t177 186q44 46 88 92.5t88 92.5q45 46 89 92t88 93z" />
    <glyph glyph-name="arrowdblright" unicode="&#x21d2;" horiz-adv-x="950" 
d="M747 459q-20 12 -39.5 25.5t-38.5 27.5q-20 12 -38.5 26t-35.5 29q2 3 5 7t8 8l6.5 6.5t6.5 7.5q40 -30 81 -59.5t82 -57.5q19 -15 39.5 -29.5t40.5 -29.5t40.5 -29.5t41.5 -29.5q-42 -30 -82.5 -59.5t-79.5 -57.5q-21 -15 -41.5 -29.5t-40.5 -29.5t-40.5 -29.5
t-40.5 -29.5q-3 3 -6.5 7t-6.5 8q-5 3 -8 6t-5 8l155 110h-750v34h793l86 62l-87 64h-792v34h747z" />
    <glyph glyph-name="arrowdblboth" unicode="&#x21d4;" horiz-adv-x="950" 
d="M748 459q-21 12 -40.5 25.5t-37.5 27.5q-20 13 -38.5 27t-36.5 29q2 3 5 7t8 8l6.5 6.5t6.5 7.5q40 -30 81 -59.5t82 -57.5q19 -15 39.5 -29.5t40.5 -29.5t40.5 -29.5t41.5 -29.5q-42 -30 -82.5 -59.5t-79.5 -57.5q-21 -15 -41.5 -29.5t-40.5 -29.5t-40.5 -29.5
t-40.5 -29.5q-3 3 -6.5 7t-6.5 8q-5 3 -8 6t-5 8l153 109h-546q18 -14 36.5 -27.5t38.5 -26.5q9 -8 18.5 -15t18.5 -14q8 -7 16.5 -13.5t17.5 -12.5q-2 -3 -3.5 -5t-2.5 -4t-2 -3.5t-2 -2.5q-2 -2 -3 -4l-2 -4t-2 -3.5t-1 -2.5q-21 15 -41.5 29.5t-41.5 29.5
q-20 15 -40.5 29.5t-40.5 29.5q-42 28 -83.5 57.5t-81.5 59.5q40 30 81.5 59t83.5 59q40 28 81 57.5t83 59.5q1 -5 3 -8t5 -6q2 -4 4.5 -8t5.5 -7l-146 -109h546zM792 299l87 63l-87 63h-637l-87 -63l87 -63h637z" />
    <glyph glyph-name="universal" unicode="&#x2200;" horiz-adv-x="950" 
d="M291 520h405q9 27 20 54.5t23 55.5q11 27 23.5 54.5t26.5 55.5h42q-21 -48 -41 -95.5t-40 -94.5q-20 -48 -40 -94.5t-39 -92.5q-40 -94 -79.5 -188t-78.5 -188h-46q-20 47 -39.5 94t-38.5 94q-20 47 -39 94l-38 94q-20 46 -39.5 93t-38.5 94t-38.5 94.5t-38.5 95.5h42z
M678 486h-378l193 -455z" />
    <glyph glyph-name="partialdiff" unicode="&#x2202;" horiz-adv-x="950" 
d="M581 367q-19 0 -39 -2t-41 -5q-22 -5 -43 -15.5t-42 -26.5q-14 -9 -23 -18t-15 -18q-7 -11 -11.5 -21.5t-6.5 -20.5q-3 -11 -3.5 -20t1.5 -17q1 -9 4 -16.5t8 -13.5q10 -15 25 -18t35 5q19 7 37 18t34 26q10 10 18.5 20.5t14.5 21.5q2 5 4.5 10t5.5 10t5.5 10l5.5 11
q6 10 11.5 20.5t8.5 21.5q1 4 2 8.5t2 8.5q1 5 2 9l2 8zM453 525q-26 -5 -45.5 -15.5t-32.5 -25.5q-14 -15 -23.5 -21t-13.5 -1q0 -1 9.5 11l28.5 36q20 24 51 35.5t73 10.5q39 -2 66.5 -19t44.5 -49q7 -18 11.5 -39t4.5 -45q0 -18 -2.5 -37.5t-5.5 -40.5q-12 -35 -28 -63.5
t-36 -50.5q-21 -24 -45.5 -40t-51.5 -25q-20 -6 -34.5 -8.5t-23.5 -2.5q-34 0 -55 18t-29 56q-2 6 -1 14t4 19q1 10 4.5 21.5t9.5 24.5q14 27 45.5 48t79.5 35q17 4 33.5 6.5t31.5 4.5h14h13q7 0 12.5 0.5t11.5 0.5h9q0 6 -0.5 12t-0.5 12t-0.5 12.5t-0.5 13.5
q-2 12 -5.5 25t-8.5 27q-8 9 -16.5 17.5t-17.5 14.5q-10 6 -20.5 9t-21.5 3q-12 0 -21.5 -1.5t-16.5 -2.5v0z" />
    <glyph glyph-name="existential" unicode="&#x2203;" horiz-adv-x="950" 
d="M724 739v-753h-516v33h475v341h-443v34h443v310h-466v35h507z" />
    <glyph glyph-name="gradient" unicode="&#x2207;" horiz-adv-x="950" 
d="M471 36q-23 40 -45 80t-44 79q-22 40 -44 79.5t-43 79.5q-44 78 -87.5 157.5t-86.5 160.5h710zM176 639l298 -529l287 529h-585z" />
    <glyph glyph-name="element" unicode="&#x2208;" horiz-adv-x="950" 
d="M163 345q0 -21 4.5 -40t13.5 -37q7 -20 17.5 -39t22.5 -37q29 -37 74 -55t107 -18h399v-34h-388q-67 0 -119.5 19.5t-90.5 58.5q-39 41 -58.5 90.5t-19.5 108.5q0 57 19.5 106.5t58.5 90.5q38 39 90.5 59.5t119.5 20.5h388v-34h-399q-61 0 -106 -19t-75 -55
q-12 -20 -22.5 -38.5t-17.5 -36.5q-9 -20 -13.5 -39t-4.5 -38h637v-34h-637z" />
    <glyph glyph-name="suchthat" unicode="&#x220b;" horiz-adv-x="950" 
d="M147 345v34h641q-3 37 -19.5 75t-46.5 77q-28 36 -72.5 55t-104.5 19h-399v34h392q64 0 116 -20.5t93 -59.5q38 -41 57.5 -90t19.5 -107q0 -59 -19.5 -109t-57.5 -90q-41 -39 -93 -58.5t-116 -19.5h-392v34h399q60 0 104.5 18t72.5 55q13 18 25 36.5t21 38.5
q9 18 13.5 37.5t6.5 40.5h-641z" />
    <glyph glyph-name="product" unicode="&#x220f;" horiz-adv-x="950" 
d="M797 696v-45h-171v-640h-43v640h-219v-640h-44v640h-171v45h648z" />
    <glyph glyph-name="summation" unicode="&#x2211;" horiz-adv-x="950" 
d="M750 696v-232h-46v187h-460q31 -38 65 -75t70 -73q35 -38 68.5 -75.5t66.5 -73.5l-270 -297h464v188h46v-234h-548q-6 0 -11.5 1t-9.5 4q-6 1 -9 4.5t-3 9.5q-2 7 1 14.5t10 14.5l22 22q28 33 58 67t63 70q31 34 63 68t65 68q-34 34 -67 69.5t-65 71.5q-33 35 -64 70
t-60 71v60h551z" />
    <glyph glyph-name="radical" unicode="&#x221a;" horiz-adv-x="950" 
d="M89 220q12 7 22.5 14t20.5 15q9 6 17.5 13.5t17.5 15.5l90 -180q13 67 26 136t25 139q11 69 21.5 138t20.5 138h488v-35h-462l-99 -603q-1 -2 -2.5 -2.5t-3.5 -0.5h-5t-2 2l-106 218l-24 -18q-4 -3 -7.5 -6t-6.5 -5q-3 -3 -6 -5t-5 -4z" />
    <glyph glyph-name="proportional" unicode="&#x221d;" horiz-adv-x="950" 
d="M156 362q0 -37 12 -67t36 -54q22 -26 51 -38t64 -12q48 0 83 20.5t56 62.5q10 19 18 34.5t14 27.5q2 5 3.5 9t3.5 7q1 3 2 5.5t1 4.5q0 1 -1 3t-2 6q-2 3 -3.5 7.5l-3.5 10.5q-3 5 -6.5 11.5t-7.5 13.5q-4 8 -8.5 16.5t-9.5 19.5q-21 41 -56 62t-83 21q-35 0 -64 -13
t-51 -37q-14 -15 -23.5 -29t-13.5 -28q-6 -15 -8.5 -31t-2.5 -33v0zM813 509q-11 6 -21.5 11t-19.5 8q-11 2 -23 3.5t-27 1.5q-52 0 -87.5 -21t-53.5 -62q-20 -40 -29.5 -62t-9.5 -26q0 -5 9.5 -27t29.5 -61q18 -42 53.5 -62.5t87.5 -20.5q14 0 26.5 1.5t23.5 5.5q10 3 20 7
t21 10q2 -6 4.5 -9.5t5.5 -5.5q1 -2 2 -3.5t2 -3.5t2.5 -3.5t3.5 -2.5q-15 -9 -27.5 -15t-24.5 -9q-12 -5 -27 -6.5t-32 -1.5q-27 0 -50.5 4.5t-41.5 15.5q-20 9 -34 23t-23 33q-13 17 -22 32t-14 29l-10 20t-4 11q-2 -5 -5.5 -12.5t-9.5 -17.5q-4 -6 -8 -13t-10 -15
q-5 -7 -11 -16l-12 -18q-24 -39 -60.5 -57.5t-87.5 -18.5q-42 0 -77.5 15t-65.5 45q-27 30 -40 66.5t-13 80.5q0 42 13 79t40 67q30 30 66 45.5t77 15.5q50 0 86.5 -19.5t60.5 -56.5q12 -21 21 -36l15 -25q6 -11 9.5 -16.5t4.5 -5.5h10l3 6t9 17q4 10 13.5 25t23.5 35
q9 18 23.5 32t34.5 25q18 9 40.5 14t48.5 5q16 0 31 -2.5t29 -5.5q12 -5 25 -11t25 -13z" />
    <glyph glyph-name="infinity" unicode="&#x221e;" horiz-adv-x="950" 
d="M474 405q-1 -2 1 1t7 9q4 6 8.5 14t10.5 20q0 1 1 2t2 3q1 1 2 3t3 4q1 3 4 6.5t8 7.5q9 15 22.5 26.5t30.5 20.5q16 7 35 11.5t42 4.5q31 0 61 -13t59 -37q24 -27 37 -58.5t13 -67.5q0 -38 -13 -69.5t-37 -56.5q-29 -27 -59 -39.5t-61 -12.5q-23 0 -42 4.5t-35 13.5
q-17 8 -30.5 19t-22.5 25q-5 4 -8 8t-4 9q-3 3 -5 6t-3 6q-5 10 -9.5 18t-7.5 14q-5 4 -7.5 7t-2.5 5h-6q0 -1 -0.5 -1.5t-1.5 -2.5q0 -1 -1 -2.5t-1 -3.5q-2 -3 -4 -7l-4 -8q-3 -5 -5.5 -9.5t-5.5 -9.5l-9 -12q-3 -3 -6 -7.5t-5 -9.5q-21 -32 -53.5 -47t-76.5 -15
q-33 0 -63 12.5t-57 39.5q-26 25 -38 56.5t-12 69.5q0 36 12 67.5t38 58.5q27 24 57 37t63 13q21 0 41 -4.5t38 -11.5q17 -9 29.5 -20.5t21.5 -26.5q1 -3 4 -6.5t7 -6.5q1 -3 2.5 -5t2.5 -3q1 -2 2 -3l2 -2q3 -6 5.5 -10.5t4.5 -8.5t4 -7t4 -5q1 -6 2.5 -9.5t2.5 -3.5h6z
M167 362q0 -29 9.5 -53.5t29.5 -45.5q18 -21 40.5 -31t48.5 -10q39 0 68.5 16.5t48.5 49.5q16 33 25 51t11 23q-2 1 -5 6.5t-7 15.5q-6 9 -12 21t-12 29q-19 33 -48.5 50.5t-68.5 17.5q-26 0 -48.5 -10.5t-40.5 -30.5q-20 -21 -29.5 -46t-9.5 -53zM784 362q0 28 -10.5 53
t-29.5 46q-20 20 -43 30.5t-50 10.5q-39 0 -67 -17.5t-46 -50.5q-5 -9 -9 -16t-7 -13q-4 -6 -6.5 -11.5t-4.5 -9.5q-6 -10 -8.5 -15.5t-2.5 -6.5q0 -3 2.5 -8t8.5 -14q4 -9 11 -22.5t16 -29.5q18 -33 46 -49.5t67 -16.5q27 0 50 10t43 31q19 20 29.5 44.5t10.5 54.5z" />
    <glyph glyph-name="angle" unicode="&#x2220;" horiz-adv-x="950" 
d="M209 79h605v-34h-652q-6 0 -10 2t-6 7q0 2 2 5.5t6 8.5q1 1 2.5 3t2.5 3q1 2 2 3t3 2q69 76 138.5 151.5t140.5 150.5q69 74 141 149t146 152l23 -27z" />
    <glyph glyph-name="uni2225" unicode="&#x2225;" horiz-adv-x="950" 
d="M367 845h44v-965h-44v965zM538 845h44v-965h-44v965z" />
    <glyph glyph-name="logicaland" unicode="&#x2227;" horiz-adv-x="950" 
d="M471 642q-34 -77 -69.5 -154t-71.5 -153q-38 -78 -73 -155t-68 -153q-6 2 -10.5 4t-6.5 4q-3 0 -5.5 2.5t-4.5 5.5q36 79 73 159t74 161q36 80 73 160t76 160q0 2 1 5t4 7q2 3 4 4.5t4 1.5q4 0 7 -1.5t6 -3.5q0 -2 1 -3.5t2 -3.5q1 -1 2 -3t2 -3q37 -81 74 -161t73 -159
q35 -80 72.5 -160t77.5 -160q-5 -3 -8.5 -5.5t-6.5 -2.5q-5 -2 -9 -4t-7 -4z" />
    <glyph glyph-name="logicalor" unicode="&#x2228;" horiz-adv-x="950" 
d="M471 84q35 76 71 153t74 155q36 76 71.5 153t69.5 154q3 -3 7 -5t9 -3q1 -1 2.5 -2t3.5 -2l4 -2t5 -2q-39 -80 -76.5 -160t-73.5 -160q-37 -81 -74 -161t-73 -159q-3 -3 -5 -6t-5 -6t-6 -4.5t-4 -1.5q-2 0 -4 1.5t-4 4.5q-3 3 -4 6t-1 6q-39 80 -76.5 160t-72.5 160
q-36 79 -73 159t-74 161q2 2 4.5 4t5.5 4q1 0 2.5 1t3.5 2t5 2t6 3z" />
    <glyph glyph-name="intersection" unicode="&#x2229;" horiz-adv-x="950" 
d="M466 692q-35 0 -71 -15t-75 -45t-57.5 -78t-18.5 -115v-424h-36v413q0 69 19.5 124t60.5 96q37 40 83 60.5t100 20.5q55 0 103 -20.5t88 -60.5q37 -41 56.5 -96t19.5 -124v-413h-32v424q0 33 -5.5 61.5t-14.5 53.5q-11 24 -26 43.5t-35 34.5q-19 13 -38 24t-37 20
q-20 7 -37.5 11.5t-32.5 4.5h-14z" />
    <glyph glyph-name="union" unicode="&#x222a;" horiz-adv-x="950" 
d="M463 32q18 0 37 3.5t40 12.5q19 7 38 17.5t38 25.5q18 15 32 34.5t25 44.5q9 24 14.5 53t5.5 62v424h28v-413q0 -70 -18 -125.5t-54 -95.5q-39 -40 -86.5 -59.5t-104.5 -19.5q-56 0 -101.5 19.5t-81.5 59.5q-39 40 -57.5 95.5t-18.5 125.5v413h32v-424q0 -69 18 -117.5
t54 -76.5q38 -30 76.5 -44.5t77.5 -14.5h6z" />
    <glyph glyph-name="integral" unicode="&#x222b;" horiz-adv-x="950" 
d="M458 488q0 30 4 57t11 53q6 24 12.5 45.5t14.5 40.5q6 18 15 33t21 27q10 10 21.5 17.5t25.5 10.5q15 3 25.5 -1t16.5 -14q6 -11 6.5 -20t-3.5 -16q-6 -14 -14 -18.5t-18 1.5q-9 9 -17.5 12t-15.5 1q-25 -9 -38 -33t-14 -63l-3 -72q-1 -10 -1.5 -19t-1.5 -18
q0 -9 -0.5 -18t-0.5 -17q-2 -15 -2.5 -28.5t-0.5 -25.5q-1 -13 -1 -23.5v-19.5v-45q-1 -8 -1.5 -17.5t-0.5 -21.5q-2 -13 -3.5 -28t-2.5 -31q-9 -60 -20.5 -109.5t-25.5 -86.5q-15 -38 -36 -59.5t-47 -27.5q-15 -3 -26.5 0t-17.5 14q-3 4 -4 8.5t-1 9.5q-1 5 -0.5 9t3.5 9
q7 12 15 16t16 -1v1q13 -9 21.5 -12t13.5 0q12 5 21 14t15 21q4 12 7 27t5 33q0 18 1.5 36.5t4.5 37.5q0 9 0.5 17.5t1.5 17.5q1 8 1.5 16.5t1.5 17.5q0 21 1 39t3 34q0 15 0.5 27.5t1.5 22.5v3.5t1 6.5v10q0 15 2 39.5t7 59.5z" />
    <glyph glyph-name="uni222C" unicode="&#x222c;" horiz-adv-x="950" 
d="M583 488q5 60 16 109t29 88q16 37 36.5 59t45.5 28q15 3 25.5 -1t15.5 -14q6 -11 7 -20t-2 -16q-6 -13 -14.5 -17t-18.5 1v-1q-9 9 -17.5 12t-15.5 1q-25 -9 -38 -33t-14 -63l-3 -72q-1 -10 -1.5 -19t-1.5 -18q0 -9 -0.5 -18t-0.5 -17q-2 -20 -2.5 -36.5t-0.5 -31.5
q-2 -16 -2.5 -29t-0.5 -22v-23q0 -16 -1.5 -40.5t-4.5 -57.5q-7 -60 -18.5 -109.5t-26.5 -86.5q-17 -38 -38 -59.5t-46 -27.5q-17 -3 -27.5 0t-15.5 14q-9 10 -10 19t7 17q6 13 14 17.5t17 -1.5q12 -9 20.5 -12t14.5 0q12 5 21 14t15 21q5 12 8 27t4 33q3 18 4.5 36.5
t3.5 37.5q0 18 0.5 35t2.5 34q0 21 1 39t3 34q0 15 0.5 27.5t1.5 22.5v2.5t1 6.5v11q0 7 1 17t2 22q0 13 1 27.5t3 32.5zM328 488q2 30 6.5 57t10.5 53q5 24 11.5 45.5t15.5 40.5q6 18 14 33t20 27q10 10 23 17.5t28 10.5q12 3 22.5 -1t19.5 -14q4 -11 4 -20t-3 -16
q-7 -13 -16 -17t-19 1v-1q-9 9 -18 12t-18 1q-24 -10 -36 -34t-12 -62l-3 -72q-2 -19 -2.5 -37t-0.5 -35v-54q-1 -7 -1.5 -13t-0.5 -11v-10v-9q-1 -5 -1.5 -8.5t-0.5 -6.5v-6.5v-4.5q-1 -6 -1 -11v-8q-1 -8 -1.5 -18t-0.5 -22q-2 -14 -3.5 -28.5t-2.5 -29.5q-4 -30 -8.5 -57
t-9.5 -51q-6 -26 -13.5 -48.5t-14.5 -41.5q-11 -18 -21 -32t-19 -25q-11 -11 -22 -18t-21 -10q-15 -3 -26 0t-18 14q-5 4 -7 8.5t-2 9.5q-1 5 -0.5 9t3.5 9q10 12 19 16t16 -1v1q12 -9 20.5 -12t13.5 0q12 5 21 14t15 21q5 12 8 27t5 33q0 9 0.5 18t0.5 18q1 9 1.5 18.5
t1.5 19.5q0 18 0.5 35t2.5 34q1 28 2.5 51t3.5 41q1 18 2 30.5t2 20.5v-1v1v2t0.5 2.5t0.5 3.5v4.5t1 5.5q0 3 0.5 7t0.5 9q1 4 1.5 8.5t1.5 10.5v9.5t1 11.5q0 5 1 11.5t2 13.5z" />
    <glyph glyph-name="uni222E" unicode="&#x222e;" horiz-adv-x="950" 
d="M565 380q0 12 -3 22.5t-8 21.5q-6 9 -13.5 17.5t-14.5 15.5q-3 -10 -5.5 -19t-5.5 -17q-5 -9 -8 -19t-6 -19q-1 -2 -1 -4v-4v-7q-3 -11 -6 -21.5t-6 -19.5q-3 -11 -7.5 -21.5t-10.5 -20.5h1q11 0 21 1.5t19 6.5q7 3 14.5 8.5t13.5 12.5q3 6 7.5 13.5t9.5 16.5q4 8 6.5 17
t2.5 19zM381 380q0 -13 3 -24t10 -20q6 -11 12 -19t14 -14q0 4 1.5 8.5t3.5 9.5q0 1 1 3t2 5q0 2 1 5.5t3 7.5q3 5 6 11l6 12l6 24l2 6t1 6q1 3 2 6.5t2 6.5q0 6 1 12t4 12q0 2 1 4.5t2 4.5q0 2 1 4.5t2 5.5l6 18h-3q-17 0 -32.5 -7t-28.5 -20q-15 -15 -22 -32t-7 -36z
M378 166q1 5 3 10.5t4 10.5l4 12t5 12q4 10 8 21t7 23q-18 9 -31.5 21.5t-22.5 29.5q-11 15 -15.5 34t-4.5 40q0 29 9.5 54t30.5 46t45 32t51 11h13q1 -1 3.5 -1.5t5.5 -0.5q6 24 12.5 44t14.5 38q7 16 13 30.5t11 26.5q12 18 24.5 30.5t25.5 20.5q12 6 23 8t23 0
q21 -5 33.5 -15t16.5 -26q1 -16 -4 -26.5t-17 -16.5q-6 -4 -12 -5t-13 2q-8 1 -13 6t-7 14q-3 3 -3.5 7t-0.5 9l-0.5 0.5l-0.5 0.5v1.5v1.5q-1 0 -1.5 0.5t-1.5 0.5q0 1 -1 1.5t-2 1.5q-5 2 -9.5 -2t-9.5 -13q-6 -11 -11.5 -24.5t-10.5 -28.5q-2 -3 -2.5 -5.5t-0.5 -5.5
q-1 -2 -1.5 -3.5t-1.5 -2.5q0 -2 -0.5 -3t-0.5 -2q-6 -11 -10 -21t-7 -19q-3 -10 -5.5 -20.5t-3.5 -20.5q15 -10 28 -23t24 -29q9 -17 14.5 -35.5t5.5 -37.5q0 -30 -10.5 -55t-30.5 -45q-20 -21 -44.5 -31.5t-54.5 -10.5h-8h-4t-1 1q-18 -50 -32.5 -86t-24.5 -58
q-13 -19 -25 -31t-22 -17q-12 -6 -25 -9t-28 -3q-22 5 -33.5 15.5t-12.5 26.5q-2 17 3 27.5t17 14.5q6 4 13 6t15 1q6 -2 11.5 -7t10.5 -14q1 -5 2.5 -9t1.5 -7v-3t1 -1q0 -2 0.5 -3.5t2.5 -3.5q1 -1 3 0.5t5 4.5q1 2 4.5 5.5t9.5 8.5l5 10t6 14q2 6 4 13t5 15v4t1 4v3.5
t2 5.5z" />
    <glyph glyph-name="therefore" unicode="&#x2234;" horiz-adv-x="950" 
d="M711 162q10 0 18.5 -3.5t14.5 -9.5q5 -7 8 -15t3 -17q0 -10 -3 -18t-8 -14q-6 -8 -14.5 -11t-18.5 -3q-7 0 -14 3t-14 11q-8 6 -11.5 14t-3.5 18q0 9 3.5 17t11.5 15q7 6 14 9.5t14 3.5v0zM235 162q7 0 14 -3.5t15 -9.5q6 -7 10 -15t4 -17q0 -10 -4 -18t-10 -14
q-8 -8 -15 -11t-14 -3q-11 0 -19 3t-13 11q-6 6 -9 14t-3 18q0 9 3 17t9 15q5 6 13 9.5t19 3.5v0zM471 641q10 0 18.5 -3.5t14.5 -9.5q5 -8 8 -16t3 -17q0 -10 -3 -18t-8 -14q-6 -8 -14.5 -11t-18.5 -3q-7 0 -14 3t-14 11q-9 6 -12.5 14t-3.5 18q0 9 3.5 17t12.5 16
q7 6 14 9.5t14 3.5v0z" />
    <glyph glyph-name="uni2235" unicode="&#x2235;" horiz-adv-x="950" 
d="M711 560q-7 0 -14 3t-14 11q-8 6 -11.5 14t-3.5 18q0 7 3.5 15t11.5 16q7 7 14 11t14 4q10 0 18.5 -4t14.5 -11q5 -8 8 -16t3 -15q0 -10 -3 -18t-8 -14q-6 -8 -14.5 -11t-18.5 -3v0zM235 560q-11 0 -19 3t-13 11q-6 6 -9 14t-3 18q0 7 3 15t9 16q5 7 13 11t19 4
q7 0 14 -4t15 -11q6 -8 10 -16t4 -15q0 -10 -4 -18t-10 -14q-8 -8 -15 -11t-14 -3v0zM471 79q-7 0 -14 3.5t-14 11.5q-9 7 -12.5 15.5t-3.5 18.5q0 9 3.5 17t12.5 16q7 6 14 9.5t14 3.5q10 0 18.5 -3.5t14.5 -9.5q5 -8 8 -16t3 -17q0 -10 -3 -18.5t-8 -15.5
q-6 -8 -14.5 -11.5t-18.5 -3.5v0z" />
    <glyph glyph-name="similar" unicode="&#x223c;" horiz-adv-x="950" 
d="M99 301q4 22 10 43.5t15 42.5q7 19 17.5 38t25.5 37q16 16 34.5 29t39.5 22q20 7 41.5 10.5t45.5 2.5q23 -3 45.5 -10.5t43.5 -19.5q20 -12 37 -28.5t31 -37.5q27 -44 58 -67.5t67 -26.5q33 -4 59 6.5t45 35.5q18 24 30.5 50t18.5 54h79q-5 -22 -11 -43t-15 -40
q-10 -21 -20.5 -40t-21.5 -37q-33 -39 -73.5 -54.5t-89.5 -9.5q-50 4 -89.5 28t-67.5 68q-33 44 -66 68t-64 27q-18 1 -32.5 -1t-26.5 -6q-14 -6 -25.5 -14.5t-20.5 -18.5q-6 -12 -11.5 -24.5t-9.5 -26.5q-3 -8 -5.5 -15.5t-4.5 -14.5q-3 -7 -5 -14t-4 -13h-80z" />
    <glyph glyph-name="uni223D" unicode="&#x223d;" horiz-adv-x="950" 
d="M692 580q15 -1 31 -4t34 -9q16 -6 31.5 -16t30.5 -22q27 -27 41.5 -66.5t14.5 -91.5q-1 -38 -14 -70.5t-38 -60.5q-26 -29 -59 -42.5t-75 -13.5q-14 0 -25.5 1t-21.5 4q-11 1 -20 4t-16 8q-5 1 -8.5 2.5t-4.5 3.5q-3 0 -5.5 1t-3.5 3q-1 0 -1.5 1t-0.5 2q-2 0 -3 0.5
t-1 1.5l2.5 7.5t3.5 9.5q0 4 1.5 7.5t4.5 6.5q0 -1 1 -1h3l3.5 -1t9.5 -2q1 -2 2.5 -3t4.5 -1q1 -2 3 -3t5 -1q4 -4 11.5 -7t17.5 -4q9 -3 19.5 -3.5t23.5 -0.5q28 0 53 11t46 34q20 21 30.5 46.5t12.5 55.5q0 37 -9.5 68.5t-29.5 57.5q-21 25 -47.5 38.5t-59.5 16.5
q-48 2 -82.5 -14t-55.5 -50q-22 -33 -37.5 -62t-24.5 -53q-5 -11 -11.5 -23.5t-15.5 -26.5q-9 -15 -21 -31.5t-25 -33.5q-26 -39 -65.5 -56t-93.5 -12q-32 2 -64 16t-63 41q-12 12 -21.5 28.5t-16.5 36.5q-8 19 -11.5 41t-2.5 46q0 35 12 68t36 63q24 29 58 44t76 15
q27 0 48 -4.5t35 -12.5q4 -2 7.5 -3.5t6.5 -3.5q3 -1 5.5 -2t4.5 -1l4.5 -4.5t2.5 -1.5q-3 -5 -4.5 -8t-1.5 -6l-4 -8t-4 -7q-2 0 -5 1.5t-6 4.5q-5 1 -9.5 3t-7.5 5q-16 6 -35 10t-41 4q-28 0 -53 -11t-46 -32q-23 -22 -34.5 -49t-11.5 -59q-1 -39 9 -71.5t31 -56.5
q20 -26 47 -39.5t62 -14.5q44 -3 79 14.5t62 55.5q9 19 18.5 35.5t18.5 30.5q8 12 13 22t7 16q6 12 14.5 26.5t18.5 29.5q4 7 9 14.5l11 16.5q6 8 12.5 16.5t13.5 17.5q22 36 60.5 53t93.5 14v0z" />
    <glyph glyph-name="uni2252" unicode="&#x2252;" horiz-adv-x="950" 
d="M132 467h682v-40h-682v40zM132 297h682v-40h-682v40zM282 679q7 0 15 -4t17 -11q7 -8 11 -17t4 -18q0 -11 -4 -19.5t-11 -15.5q-9 -8 -17 -11.5t-15 -3.5q-12 0 -21 3.5t-14 11.5q-6 7 -9 15.5t-3 19.5q0 9 3 18t9 17q5 7 14 11t21 4v0zM667 146q10 0 18.5 -4t14.5 -11
q6 -8 9 -17t3 -18q0 -11 -3 -19.5t-9 -15.5q-6 -8 -14.5 -11.5t-18.5 -3.5q-9 0 -17 3.5t-14 11.5q-8 7 -11.5 15.5t-3.5 19.5q0 9 3.5 18t11.5 17q6 7 14 11t17 4v0z" />
    <glyph glyph-name="notequal" unicode="&#x2260;" horiz-adv-x="950" 
d="M824 204h-368l-73 -203q-5 0 -9 1t-9 2q-4 1 -9 2t-9 3q-6 0 -11 1t-11 2q-5 1 -10.5 2t-11.5 3l70 187h-227v75h252l53 165h-305v74h326q10 25 19 51t18 53q7 25 15.5 51t17.5 52q7 -3 15.5 -5t18.5 -3q4 -1 9 -2l10 -2t11 -2l12 -2l-63 -191h269v-74h-290l-53 -165h343
v-75z" />
    <glyph glyph-name="equivalence" unicode="&#x2261;" horiz-adv-x="950" 
d="M132 538h682v-33h-682v33zM132 379h682v-34h-682v34zM132 219h682v-34h-682v34z" />
    <glyph glyph-name="lessequal" unicode="&#x2264;" horiz-adv-x="950" 
d="M799 241q-2 -5 -4 -9.5t-3 -8.5q-2 -4 -3.5 -8t-2.5 -7l-15 -33q-38 16 -76 32.5t-77 33.5t-78.5 34.5t-79.5 35.5q-81 34 -158 68.5t-149 67.5q-3 1 -6.5 3t-6.5 5q-5 2 -6.5 4t-1.5 5q0 2 1.5 4.5t6.5 5.5q1 0 3 1t3 2q2 1 3.5 2t3.5 2q75 33 151 67t154 68
q76 33 152.5 66.5t152.5 68.5q6 -9 10.5 -17.5t7.5 -15.5q2 -9 5 -17l6 -16l-500 -220zM823 36h-698v74h698v-74z" />
    <glyph glyph-name="greaterequal" unicode="&#x2265;" horiz-adv-x="950" 
d="M824 464q0 -3 -2.5 -5t-5.5 -4t-5 -3t-3 -2q-2 -1 -3 -2t-2 -1q-76 -35 -152.5 -69t-154.5 -67q-79 -34 -156 -68t-152 -68q-6 8 -10.5 16t-7.5 17q-2 3 -3.5 7t-3.5 8t-4 8.5t-3 9.5l511 224q-63 27 -125.5 54t-124.5 56q-63 27 -126 55t-125 55q1 8 3.5 16t6.5 17
q3 7 7 15.5t10 17.5q72 -33 148 -67t157 -68q79 -35 155.5 -68.5t149.5 -66.5q2 -2 4.5 -3t4.5 -2t3.5 -2t3.5 -1q2 -3 3.5 -5t1.5 -4v0zM832 36h-701v74h701v-74z" />
    <glyph glyph-name="uni226A" unicode="&#x226a;" horiz-adv-x="950" 
d="M592 719q2 -4 5 -7t7 -6q1 -2 2.5 -4t2.5 -4t2.5 -3.5t3.5 -2.5l-452 -330q57 -42 113 -83.5t113 -82.5q55 -42 112 -83.5t116 -82.5q-3 -5 -6 -8t-6 -5q-4 -3 -7 -6l-6 -6q-56 42 -112.5 84.5t-113.5 85.5q-59 42 -117.5 84t-117.5 85q-2 0 -3 0.5t-1 1.5q-2 0 -2 0.5
v2.5q-5 3 -6.5 6.5t-1.5 6.5q0 2 0.5 4t3.5 4q1 0 3.5 2.5t5.5 6.5zM824 719l2 -4t2 -3q1 -2 2 -3.5t2 -2.5q0 -4 2 -7.5t5 -6.5l-452 -330q57 -42 114 -83.5t115 -82.5q28 -21 56.5 -42t56.5 -42t56 -41.5t56 -40.5q-2 -3 -3.5 -5t-2.5 -3l-1.5 -3t-0.5 -2l-4 -6t-5 -6
q-30 21 -59 42l-58 42t-58 42.5t-58 43.5q-59 42 -116 84t-112 85q-2 0 -3 0.5t-1 1.5q-2 0 -2.5 0.5t-0.5 2.5q-8 3 -11.5 6.5t-3.5 6.5q0 2 1.5 4t6.5 4q3 0 6.5 2.5t6.5 6.5z" />
    <glyph glyph-name="uni226B" unicode="&#x226b;" horiz-adv-x="950" 
d="M815 380q2 -3 5 -5t7 -4q3 -3 4.5 -5.5t1.5 -3.5q0 -3 -1 -4.5t-2 -2.5q-3 -2 -5 -3.5t-3 -2.5t-2 -1.5l-1 -0.5q-2 -2 -3 -2.5l-1 -0.5q-59 -43 -117 -85t-115 -84q-59 -43 -117.5 -85.5t-115.5 -84.5q-3 3 -5.5 6t-4.5 7q-3 3 -5 6t-2 6l454 332q-59 40 -116 81.5
t-112 83.5q-56 41 -112.5 82t-113.5 83q1 3 3 7t5 7q0 1 1 2t2 3q1 1 2.5 3t3.5 5zM583 380q2 -3 5.5 -5t8.5 -4l5.5 -5.5t2.5 -3.5q0 -3 -1.5 -4.5t-3.5 -2.5q-3 -2 -6 -3.5t-4 -2.5t-2 -1.5l-1 -0.5q-2 -2 -3 -2.5l-1 -0.5q-59 -43 -116 -85t-112 -84
q-57 -43 -114.5 -85.5t-115.5 -84.5q-3 3 -5 6t-4 7l-6 6t-5 6l450 332q-28 20 -55.5 40.5t-55.5 40.5q-28 21 -56.5 42t-56.5 42q-58 41 -114 82t-110 83q2 3 4.5 7t5.5 7q0 1 1 2t2 3q1 1 2 3t3 5z" />
    <glyph glyph-name="propersubset" unicode="&#x2282;" horiz-adv-x="950" 
d="M162 357q0 -39 12.5 -79t39.5 -79q30 -41 76.5 -60.5t111.5 -19.5h399v-34h-388q-67 0 -119.5 19.5t-90.5 58.5q-39 41 -58.5 90.5t-19.5 108.5q0 57 19.5 106.5t58.5 90.5q38 39 90.5 59.5t119.5 20.5h388v-34h-399q-64 0 -111 -20.5t-77 -60.5q-27 -41 -39.5 -80
t-12.5 -77v-10z" />
    <glyph glyph-name="propersuperset" unicode="&#x2283;" horiz-adv-x="950" 
d="M789 367q0 37 -14.5 76.5t-42.5 80.5q-31 40 -77.5 60.5t-109.5 20.5h-399v34h392q64 0 116 -20.5t93 -59.5q38 -41 57.5 -90t19.5 -107q0 -59 -19.5 -109t-57.5 -90q-41 -39 -93 -58.5t-116 -19.5h-392v34h399q63 0 110 19.5t77 60.5q28 40 42.5 79.5t14.5 78.5v10z" />
    <glyph glyph-name="reflexsubset" unicode="&#x2286;" horiz-adv-x="950" 
d="M125 79h698v-34h-698v34zM160 442q0 -39 13 -74t40 -66q30 -32 77 -47.5t111 -15.5h399v-35h-388q-76 0 -130 17.5t-87 53.5q-36 34 -53 75.5t-17 91.5q0 48 17 89.5t53 77.5q33 34 87 52t130 18h388v-34h-399q-65 0 -112 -16.5t-77 -49.5q-27 -30 -39.5 -64.5
t-12.5 -72.5v0z" />
    <glyph glyph-name="reflexsuperset" unicode="&#x2287;" horiz-adv-x="950" 
d="M823 79v-34h-698v34h698zM790 442q0 37 -14.5 71.5t-42.5 65.5q-30 33 -77.5 49.5t-110.5 16.5h-404v34h397q70 0 123 -18t89 -52q36 -36 54.5 -77.5t18.5 -89.5q0 -49 -18 -91t-54 -76q-36 -36 -89 -53.5t-124 -17.5h-397v35h404q63 0 110 15.5t78 47.5q28 31 42.5 66
t14.5 74v0z" />
    <glyph glyph-name="uni2299" unicode="&#x2299;" horiz-adv-x="950" 
d="M472 767q79 0 148.5 -30t128.5 -89q56 -60 84.5 -131.5t28.5 -155.5t-28.5 -156t-84.5 -131q-60 -60 -129.5 -90t-147.5 -30q-79 0 -146.5 29.5t-124.5 89.5q-59 58 -88 130t-29 158q0 84 29 156t88 132q57 58 125 88t146 30v0zM472 726q-71 0 -133 -27t-115 -79
q-50 -54 -74.5 -119t-24.5 -140q0 -76 24.5 -140.5t74.5 -118.5q53 -54 115 -80t133 -26q74 0 135.5 26t109.5 80q53 53 80 117.5t27 141.5q0 37 -7 72t-19 68q-14 31 -34 61t-47 57q-26 25 -54 44.5t-58 34.5q-32 13 -65 20.5t-68 7.5v0zM472 521q33 0 60.5 -12t50.5 -36
q21 -24 31.5 -52.5t10.5 -60.5q0 -33 -10.5 -61.5t-31.5 -52.5q-23 -23 -50.5 -34t-60.5 -11q-30 0 -56 11t-47 34q-23 24 -34 52.5t-11 61.5q0 32 11 60.5t34 52.5q22 24 47.5 36t55.5 12v0z" />
    <glyph glyph-name="perpendicular" unicode="&#x22a5;" horiz-adv-x="950" 
d="M155 79h301v580h38v-580h298v-34h-637v34z" />
    <glyph glyph-name="uni2312" unicode="&#x2312;" horiz-adv-x="950" 
d="M133 385q12 63 41 116.5t76 97.5q46 43 101.5 65.5t119.5 22.5q63 0 120 -22.5t108 -65.5q46 -44 74.5 -97.5t40.5 -116.5h-40q-8 27 -18 53.5t-22 50.5q-14 24 -30.5 45t-36.5 40q-42 37 -91.5 56.5t-104.5 19.5q-54 0 -101.5 -19.5t-89.5 -56.5q-20 -19 -37 -40
t-31 -45q-15 -24 -25.5 -50.5t-14.5 -53.5h-39z" />
    <glyph glyph-name="uni2460" unicode="&#x2460;" horiz-adv-x="950" 
d="M457 57v445h-132v59q12 0 25.5 1.5t28.5 6.5q13 3 25 9t21 15v-1q10 6 18.5 14t14.5 20q4 10 7 21.5t4 23.5h60v-614h-72zM471 818q90 0 167.5 -34t142.5 -100q63 -67 95 -147.5t32 -174.5q0 -95 -32 -176t-95 -148q-65 -66 -142.5 -98.5t-167.5 -32.5t-166 32.5
t-138 98.5q-63 66 -94 147t-31 177q0 94 31 175t94 147q62 66 138 100t166 34v0zM471 783q-83 0 -152 -31.5t-124 -92.5q-59 -62 -87.5 -136t-28.5 -161q0 -88 28.5 -162.5t87.5 -135.5q56 -61 125 -91.5t151 -30.5q81 0 151 30.5t129 91.5q60 61 90 135.5t30 162.5
q0 87 -30 161t-90 136q-59 61 -129 92.5t-151 31.5v0z" />
    <glyph glyph-name="uni2461" unicode="&#x2461;" horiz-adv-x="950" 
d="M471 818q90 0 167.5 -34t142.5 -100q63 -67 95 -147.5t32 -174.5q0 -95 -32 -176t-95 -148q-65 -66 -142.5 -98.5t-167.5 -32.5t-166 32.5t-138 98.5q-63 66 -94 147t-31 177q0 94 31 175t94 147q62 66 138 100t166 34v0zM471 783q-83 0 -152 -31.5t-124 -92.5
q-59 -62 -87.5 -136t-28.5 -161q0 -88 28.5 -162.5t87.5 -135.5q56 -61 125 -91.5t151 -30.5q81 0 151 30.5t129 91.5q60 61 90 135.5t30 162.5q0 87 -30 161t-90 136q-59 61 -129 92.5t-151 31.5v0zM458 252v1q-3 -2 -6 -4.5t-6 -4.5q-3 -3 -6.5 -5.5t-6.5 -5.5
q-9 -7 -17 -14.5t-16 -14.5q-18 -15 -28 -31.5t-13 -34.5h311v-66h-397q0 31 6 60.5t20 58.5q9 13 21 28t27 30q13 15 31 30t39 32q13 8 27 17t28 20q6 4 12.5 9t12.5 9q6 5 12.5 9.5t12.5 9.5q14 12 26.5 26.5t23.5 32.5q9 16 14.5 34t5.5 39q0 28 -6.5 50.5t-18.5 39.5
q-14 15 -35 23t-50 8q-36 0 -61 -11t-39 -32q-10 -21 -14.5 -42.5t-4.5 -42.5h-72q0 17 3 34t10 35q6 16 13 32t16 31q24 30 61.5 45t89.5 15q48 0 83.5 -14t57.5 -41q22 -28 33.5 -60.5t11.5 -68.5q0 -38 -10 -67.5t-29 -51.5q-20 -24 -39.5 -43t-38.5 -32z" />
    <glyph glyph-name="uni2462" unicode="&#x2462;" horiz-adv-x="950" 
d="M471 818q90 0 167.5 -34t142.5 -100q63 -67 95 -147.5t32 -174.5q0 -95 -32 -176t-95 -148q-65 -66 -142.5 -98.5t-167.5 -32.5t-166 32.5t-138 98.5q-63 66 -94 147t-31 177q0 94 31 175t94 147q62 66 138 100t166 34zM471 783q-83 0 -152 -31.5t-124 -92.5
q-59 -62 -87.5 -136t-28.5 -161q0 -88 28.5 -162.5t87.5 -135.5q56 -61 125 -91.5t151 -30.5q81 0 151 30.5t129 91.5q60 61 90 135.5t30 162.5q0 87 -30 161t-90 136q-59 61 -129 92.5t-151 31.5zM337 232q-1 -21 8 -42t27 -42q15 -22 40 -32.5t58 -10.5q31 0 55 8.5
t41 26.5q15 17 23 39t8 49q0 21 -7 38t-19 31q-14 12 -28.5 20.5t-29.5 12.5q-8 3 -16.5 5.5t-17.5 3.5h-49v66h11h17.5t20.5 1q10 0 18.5 2t14.5 5q35 15 53 41.5t18 63.5q0 21 -7.5 39.5t-21.5 33.5q-15 14 -37 21.5t-51 7.5q-30 0 -52.5 -9t-37.5 -27q-14 -18 -18.5 -37
t-1.5 -38h-71q-3 41 9.5 73.5t39.5 56.5q30 23 64 35t71 12t71.5 -13t64.5 -38q28 -26 42.5 -55t14.5 -62t-9 -57.5t-27 -40.5q-6 -9 -13 -16t-14 -12l-15 -10t-10 -6q24 -11 42.5 -26t33.5 -34q13 -21 20 -43.5t7 -47.5q0 -21 -3.5 -39.5t-9.5 -34.5q-7 -18 -17 -33
t-23 -27q-17 -13 -34.5 -23t-35.5 -16q-20 -8 -40.5 -11t-42.5 -3q-47 0 -83 14t-63 44q-32 27 -47 61t-13 75h72z" />
    <glyph glyph-name="uni2463" unicode="&#x2463;" horiz-adv-x="950" 
d="M471 818q90 0 167.5 -34t142.5 -100q63 -67 95 -147.5t32 -174.5q0 -95 -32 -176t-95 -148q-65 -66 -142.5 -98.5t-167.5 -32.5t-166 32.5t-138 98.5q-63 66 -94 147t-31 177q0 94 31 175t94 147q62 66 138 100t166 34v0zM471 783q-83 0 -152 -31.5t-124 -92.5
q-59 -62 -87.5 -136t-28.5 -161q0 -88 28.5 -162.5t87.5 -135.5q56 -61 125 -91.5t151 -30.5q81 0 151 30.5t129 91.5q60 61 90 135.5t30 162.5q0 87 -30 161t-90 136q-59 61 -129 92.5t-151 31.5v0zM238 168v83q13 24 29 49t34 52q17 26 35.5 53t38.5 54q18 27 36.5 53.5
t36.5 53.5q17 26 32.5 50.5t30.5 47.5h73v-431h94v-65h-94v-115h-72v115h-274zM512 550l-212 -317h212v317z" />
    <glyph glyph-name="uni2464" unicode="&#x2464;" horiz-adv-x="950" 
d="M471 818q90 0 167.5 -34t142.5 -100q63 -67 95 -147.5t32 -174.5q0 -95 -32 -176t-95 -148q-65 -66 -142.5 -98.5t-167.5 -32.5t-166 32.5t-138 98.5q-63 66 -94 147t-31 177q0 94 31 175t94 147q62 66 138 100t166 34v0zM471 783q-83 0 -152 -31.5t-124 -92.5
q-59 -62 -87.5 -136t-28.5 -161q0 -88 28.5 -162.5t87.5 -135.5q56 -61 125 -91.5t151 -30.5q81 0 151 30.5t129 91.5q60 61 90 135.5t30 162.5q0 87 -30 161t-90 136q-59 61 -129 92.5t-151 31.5v0zM278 329l12 82t13 82q3 19 6 39t6 41q3 20 6.5 40t6.5 41h319v-75h-266
l-22 -167q10 10 25.5 18t35.5 13q18 4 37 5.5t37 1.5q10 -2 23.5 -5t29.5 -9q15 -7 30 -16t31 -20q29 -24 44 -63.5t15 -93.5q0 -51 -15.5 -90.5t-45.5 -66.5q-33 -28 -68 -41.5t-74 -13.5q-45 0 -80.5 13t-60.5 40q-15 12 -26 26t-17 29q-8 15 -13 30t-7 31h73
q1 -21 11 -39t28 -33q17 -16 39 -23.5t49 -7.5t49.5 9.5t40.5 30.5q17 19 26 45.5t9 59.5q0 15 -1.5 29t-4.5 28q-4 12 -10.5 23.5t-15.5 22.5q-6 9 -15 17t-20 14q-12 5 -26 8t-30 3q-21 0 -38.5 -4t-30.5 -11q-14 -8 -25.5 -19t-20.5 -24h-69z" />
    <glyph glyph-name="uni2465" unicode="&#x2465;" horiz-adv-x="950" 
d="M471 818q90 0 167.5 -34t142.5 -100q63 -67 95 -147.5t32 -174.5q0 -95 -32 -176t-95 -148q-65 -66 -142.5 -98.5t-167.5 -32.5t-166 32.5t-138 98.5q-63 66 -94 147t-31 177q0 94 31 175t94 147q62 66 138 100t166 34v0zM471 783q-83 0 -152 -31.5t-124 -92.5
q-59 -62 -87.5 -136t-28.5 -161q0 -88 28.5 -162.5t87.5 -135.5q56 -61 125 -91.5t151 -30.5q81 0 151 30.5t129 91.5q60 61 90 135.5t30 162.5q0 87 -30 161t-90 136q-59 61 -129 92.5t-151 31.5v0zM610 518q-2 15 -11 31.5t-24 34.5q-17 18 -38.5 27.5t-48.5 9.5
q-32 0 -53.5 -8.5t-32.5 -23.5q-9 -8 -16 -16t-10 -17q-5 -10 -8.5 -19t-6.5 -16q-10 -21 -15.5 -40.5t-5.5 -36.5q-2 -18 -2.5 -32t0.5 -23q15 15 31.5 27.5t36.5 21.5q18 8 41.5 12t50.5 4q40 -1 73 -16.5t57 -45.5q25 -32 38 -68.5t13 -77.5q0 -44 -13.5 -80.5
t-40.5 -66.5q-30 -31 -65 -46t-76 -15q-44 0 -78.5 12.5t-59.5 38.5q-11 12 -20 25t-17 28q-9 13 -16.5 28.5t-12.5 33.5q-8 15 -12.5 32t-6.5 38q-3 19 -4 42t0 49q0 49 8 91t23 77q13 36 32 64.5t43 49.5q24 19 55.5 29t70.5 10q40 0 73.5 -13.5t59.5 -40.5
q12 -14 22 -27.5t17 -27.5q6 -15 10 -29.5t7 -29.5h-68zM475 384q-28 0 -50 -9.5t-37 -27.5q-17 -19 -25 -44.5t-8 -56.5q0 -32 8 -57.5t25 -43.5q15 -20 37 -29t50 -9q29 0 52 9t40 29q15 18 23.5 43.5t8.5 57.5q0 31 -8.5 56.5t-23.5 44.5q-17 18 -40 27.5t-52 9.5v0z" />
    <glyph glyph-name="uni2466" unicode="&#x2466;" horiz-adv-x="950" 
d="M471 818q90 0 167.5 -34t142.5 -100q63 -67 95 -147.5t32 -174.5q0 -95 -32 -176t-95 -148q-65 -66 -142.5 -98.5t-167.5 -32.5t-166 32.5t-138 98.5q-63 66 -94 147t-31 177q0 94 31 175t94 147q62 66 138 100t166 34v0zM471 783q-83 0 -152 -31.5t-124 -92.5
q-59 -62 -87.5 -136t-28.5 -161q0 -88 28.5 -162.5t87.5 -135.5q56 -61 125 -91.5t151 -30.5q81 0 151 30.5t129 91.5q60 61 90 135.5t30 162.5q0 87 -30 161t-90 136q-59 61 -129 92.5t-151 31.5v0zM271 647h402v-76q-5 -8 -11.5 -17.5t-15.5 -19.5q-11 -12 -20 -24.5
t-16 -26.5q-12 -15 -23.5 -31t-21.5 -33q-11 -18 -20 -37.5t-16 -38.5q-12 -21 -22 -42.5t-17 -42.5q-9 -22 -15.5 -43t-11.5 -42q-2 -9 -3.5 -18t-2.5 -18t-2.5 -18t-2.5 -18q-3 -19 -4.5 -35t-0.5 -28h-91q1 21 6.5 49.5t15.5 66.5q9 36 24 76.5t36 85.5q9 21 19.5 42
t21.5 42q10 19 22.5 37.5t27.5 36.5q11 18 21.5 34t19.5 29q8 12 15 21t13 15h-327v74z" />
    <glyph glyph-name="uni2467" unicode="&#x2467;" horiz-adv-x="950" 
d="M471 818q90 0 167.5 -34t142.5 -100q63 -67 95 -147.5t32 -174.5q0 -95 -32 -176t-95 -148q-65 -66 -142.5 -98.5t-167.5 -32.5t-166 32.5t-138 98.5q-63 66 -94 147t-31 177q0 94 31 175t94 147q62 66 138 100t166 34v0zM471 783q-83 0 -152 -31.5t-124 -92.5
q-59 -62 -87.5 -136t-28.5 -161q0 -88 28.5 -162.5t87.5 -135.5q56 -61 125 -91.5t151 -30.5q81 0 151 30.5t129 91.5q60 61 90 135.5t30 162.5q0 87 -30 161t-90 136q-59 61 -129 92.5t-151 31.5v0zM593 378q22 -12 41 -28.5t34 -35.5q14 -21 21.5 -44t7.5 -47
q0 -39 -17.5 -72t-51.5 -60q-32 -28 -71 -41.5t-86 -13.5q-23 0 -44 3.5t-40 11.5q-21 6 -38 16t-31 24q-15 13 -27.5 28t-21.5 33q-10 16 -14.5 34t-4.5 37q0 24 7 47t22 44q13 20 33 36.5t46 30.5q-20 12 -35 26.5t-26 32.5q-12 17 -17.5 36.5t-5.5 40.5q0 34 14.5 63.5
t44.5 55.5q27 24 61.5 37t76.5 13t78 -13t68 -37q27 -26 41 -55.5t14 -63.5q0 -21 -5.5 -40t-15.5 -35q-11 -18 -26 -32.5t-33 -25.5zM471 344q-33 0 -58 -9t-43 -25q-19 -18 -28 -40t-9 -47q0 -26 9 -47.5t28 -37.5q18 -18 43 -26t58 -8q35 0 62 8t47 26q18 16 27.5 37.5
t9.5 47.5q0 25 -9.5 47t-27.5 40q-20 16 -47 25t-62 9v0zM471 619q-30 0 -52.5 -7.5t-37.5 -21.5q-17 -15 -24.5 -33t-7.5 -39t7.5 -39t24.5 -33q15 -17 37.5 -24.5t52.5 -7.5q32 0 55.5 7.5t38.5 23.5q13 15 20.5 33.5t7.5 39.5t-7.5 39t-20.5 33q-15 14 -38.5 21.5
t-55.5 7.5v0z" />
    <glyph glyph-name="uni2468" unicode="&#x2468;" horiz-adv-x="950" 
d="M471 818q90 0 167.5 -34t142.5 -100q63 -67 95 -147.5t32 -174.5q0 -95 -32 -176t-95 -148q-65 -66 -142.5 -98.5t-167.5 -32.5t-166 32.5t-138 98.5q-63 66 -94 147t-31 177q0 94 31 175t94 147q62 66 138 100t166 34v0zM471 783q-83 0 -152 -31.5t-124 -92.5
q-59 -62 -87.5 -136t-28.5 -161q0 -88 28.5 -162.5t87.5 -135.5q56 -61 125 -91.5t151 -30.5q81 0 151 30.5t129 91.5q60 61 90 135.5t30 162.5q0 87 -30 161t-90 136q-59 61 -129 92.5t-151 31.5v0zM349 204q3 -14 11.5 -30t23.5 -34q16 -19 38.5 -28t52.5 -9
q13 0 24.5 1.5t22.5 6.5q9 3 17.5 8.5t16.5 12.5q9 6 15 14t11 17q3 8 7 17l8 18q9 19 14 37.5t7 36.5q0 16 0.5 29.5t0.5 25.5v16q-14 -15 -30.5 -28.5t-35.5 -24.5q-20 -12 -43 -18t-50 -5q-43 2 -76 17.5t-57 44.5q-26 31 -38.5 68t-12.5 81t14 80t43 63q27 30 61.5 46
t76.5 16q21 0 40 -3t37 -9q16 -6 31 -14.5t28 -18.5q10 -11 20 -23.5t21 -26.5q9 -15 15.5 -31t10.5 -32q12 -32 18 -73t6 -92q0 -26 -2.5 -49.5t-5.5 -44.5q-5 -22 -10 -41.5t-11 -35.5q-11 -36 -28.5 -64.5t-41.5 -47.5q-26 -21 -57.5 -30.5t-70.5 -9.5q-41 0 -74.5 13
t-60.5 40q-12 12 -21 26t-15 29q-8 15 -13 29.5t-6 29.5h68zM475 338q29 0 52 9t40 29q15 18 23.5 43.5t8.5 58.5q0 30 -8.5 54.5t-23.5 45.5q-17 19 -40 29t-52 10q-27 0 -49 -10t-38 -29q-17 -21 -25 -45.5t-8 -54.5q0 -33 8 -58.5t25 -43.5q16 -20 38 -29t49 -9v0z" />
    <glyph glyph-name="uni2469" unicode="&#x2469;" horiz-adv-x="950" 
d="M471 818q90 0 167.5 -34t142.5 -100q63 -67 95 -147.5t32 -174.5q0 -95 -32 -176t-95 -148q-65 -66 -142.5 -98.5t-167.5 -32.5t-166 32.5t-138 98.5q-63 66 -94 147t-31 177q0 94 31 175t94 147q62 66 138 100t166 34v0zM471 783q-83 0 -152 -31.5t-124 -92.5
q-59 -62 -87.5 -136t-28.5 -161q0 -88 28.5 -162.5t87.5 -135.5q56 -61 125 -91.5t151 -30.5q81 0 151 30.5t129 91.5q60 61 90 135.5t30 162.5q0 87 -30 161t-90 136q-59 61 -129 92.5t-151 31.5v0zM283 70v437h-120v46q24 0 46.5 7.5t44.5 23.5q9 5 16.5 13t12.5 19
q4 9 6.5 20t3.5 23h51v-589h-61zM583 675q45 0 82 -22t66 -64q25 -44 38.5 -99.5t13.5 -124.5q0 -68 -13.5 -123.5t-38.5 -100.5q-14 -21 -30 -37t-35 -26q-21 -12 -41.5 -17.5t-41.5 -5.5q-24 0 -45.5 5.5t-40.5 17.5q-20 10 -36.5 26t-29.5 37q-27 45 -39.5 100.5
t-12.5 123.5q0 69 12.5 124.5t39.5 99.5q28 42 66 64t86 22v0zM583 615q-34 0 -58 -18t-39 -54q-17 -36 -24.5 -80t-7.5 -98t7.5 -98t24.5 -80t41 -53.5t56 -17.5q15 0 29 4.5t27 14.5q12 9 21 21.5t15 30.5q9 17 16 37t11 43q3 21 4.5 46t1.5 52t-1.5 51.5t-4.5 47.5
q-4 21 -11 41t-16 38q-7 17 -16 30.5t-21 23.5q-12 9 -26 13.5t-29 4.5v0z" />
    <glyph glyph-name="uni246A" unicode="&#x246a;" horiz-adv-x="950" 
d="M471 818q90 0 167.5 -34t142.5 -100q63 -67 95 -147.5t32 -174.5q0 -95 -32 -176t-95 -148q-65 -66 -142.5 -98.5t-167.5 -32.5t-166 32.5t-138 98.5q-63 66 -94 147t-31 177q0 94 31 175t94 147q62 66 138 100t166 34v0zM468 783q-83 0 -151.5 -31.5t-123.5 -92.5
q-57 -62 -85.5 -136t-28.5 -161q0 -88 28.5 -162.5t87.5 -135.5q56 -61 125 -91.5t151 -30.5q81 0 151 30.5t129 91.5q60 61 90 135.5t30 162.5q0 87 -30.5 161t-90.5 136q-59 61 -129.5 92.5t-152.5 31.5v0zM333 64v446h-123v48q27 0 51.5 7.5t46.5 23.5q9 5 16.5 13
t13.5 19q4 10 6.5 20.5t3.5 21.5h56v-599h-71zM586 64v446h-123v48q28 0 53.5 7.5t47.5 23.5q8 6 14.5 14t11.5 19q4 9 6.5 19.5t3.5 21.5h56v-599h-70z" />
    <glyph glyph-name="uni246B" unicode="&#x246b;" horiz-adv-x="950" 
d="M471 818q90 0 167.5 -34t142.5 -100q63 -67 95 -147.5t32 -174.5q0 -95 -32 -176t-95 -148q-65 -66 -142.5 -98.5t-167.5 -32.5t-166 32.5t-138 98.5q-63 66 -94 147t-31 177q0 94 31 175t94 147q62 66 138 100t166 34v0zM471 783q-83 0 -152 -31.5t-124 -92.5
q-59 -62 -87.5 -136t-28.5 -161q0 -88 28.5 -162.5t87.5 -135.5q56 -61 125 -91.5t151 -30.5q81 0 151 30.5t129 91.5q60 61 90 135.5t30 162.5q0 87 -30 161t-90 136q-59 61 -129 92.5t-151 31.5v0zM279 78v437h-114v46q13 0 25 1.5t23 6.5q9 3 18.5 8.5t18.5 14.5
q7 5 14.5 12.5t14.5 18.5q6 9 9.5 19t3.5 21h48v-585h-61zM534 246q-14 -8 -26.5 -18.5t-24.5 -23.5q-15 -14 -23.5 -30t-10.5 -34h267v-62h-342q0 14 1 28t4 29q2 13 7 27t14 28q6 13 16 27t22 29q12 14 27 28.5t35 29.5l85 67q16 13 29 27.5t22 31.5q8 15 12.5 33t4.5 38
q0 27 -6 48t-17 36q-12 14 -32 21.5t-47 7.5q-30 0 -51 -10.5t-33 -29.5q-8 -19 -11.5 -39t-3.5 -41h-66q0 18 3 34.5t9 32.5q6 15 12.5 29.5t14.5 29.5q19 28 51 42.5t77 14.5q40 0 71.5 -14t53.5 -41q21 -24 31.5 -54t10.5 -66t-8 -64t-23 -49q-18 -21 -35.5 -39
t-35.5 -33z" />
    <glyph glyph-name="uni246C" unicode="&#x246c;" horiz-adv-x="950" 
d="M471 818q90 0 167.5 -34t142.5 -100q63 -67 95 -147.5t32 -174.5q0 -95 -32 -176t-95 -148q-65 -66 -142.5 -98.5t-167.5 -32.5t-166 32.5t-138 98.5q-63 66 -94 147t-31 177q0 94 31 175t94 147q62 66 138 100t166 34zM471 783q-83 0 -152 -31.5t-124 -92.5
q-59 -62 -87.5 -136t-28.5 -161q0 -88 28.5 -162.5t87.5 -135.5q56 -61 125 -91.5t151 -30.5q81 0 151 30.5t129 91.5q60 61 90 135.5t30 162.5q0 87 -30 161t-90 136q-59 61 -129 92.5t-151 31.5zM275 67v438h-114v45q10 0 21 1.5t22 6.5q9 3 20.5 8.5t24.5 12.5
q6 6 12 14.5t13 19.5q6 9 9.5 20t4.5 23h47v-589h-60zM439 240q0 -11 1.5 -21t6.5 -19q3 -11 7 -21.5t10 -19.5q15 -21 40 -30.5t60 -9.5q28 0 50.5 8t37.5 26q14 16 21.5 37t7.5 47q0 19 -6 35.5t-18 29.5q-12 12 -26.5 20.5t-30.5 14.5q-9 2 -17.5 3.5t-16.5 1.5h-39v59h3
h14.5t19.5 1q9 0 18 2t18 5q33 15 50 40t17 60q0 19 -7 36.5t-20 32.5q-14 14 -35 21.5t-49 7.5q-30 0 -51.5 -9t-34.5 -26q-10 -18 -14.5 -37t-3.5 -38h-68q0 40 14 71.5t41 52.5q25 21 56 32t68 11q33 0 63 -11.5t56 -33.5q27 -24 41 -51.5t14 -58.5q0 -15 -2.5 -28.5
t-6.5 -24.5q-6 -12 -11 -23t-9 -20q-6 -6 -13 -11.5t-13 -9.5q-8 -6 -14 -10l-9 -6q22 -11 39.5 -25t30.5 -32q12 -19 18 -40t6 -45q0 -39 -12.5 -70.5t-36.5 -55.5q-27 -25 -61.5 -37t-77.5 -12q-45 0 -81.5 13.5t-63.5 40.5q-26 27 -38 59t-10 68h67z" />
    </font>
</defs>
</svg>
